<?xml version="1.0" encoding="UTF-8"?>
<svg id="Layer_1" xmlns="http://www.w3.org/2000/svg" xmlns:xlink="http://www.w3.org/1999/xlink" version="1.1" viewBox="0 0 432 432">
  <!-- Generator: Adobe Illustrator 29.1.0, SVG Export Plug-In . SVG Version: 2.1.0 Build 142)  -->
  <defs>
    <style>
      .st0 {
        fill: none;
        filter: url(#drop-shadow-1);
        stroke: #000;
        stroke-linecap: square;
        stroke-linejoin: round;
        stroke-width: 1.5px;
      }
    </style>
    <filter id="drop-shadow-1" x="3" y="5" width="430" height="426" filterUnits="userSpaceOnUse">
      <feOffset dx="2" dy="2"/>
      <feGaussianBlur result="blur" stdDeviation="2"/>
      <feFlood flood-color="#000" flood-opacity=".8"/>
      <feComposite in2="blur" operator="in"/>
      <feComposite in="SourceGraphic"/>
    </filter>
  </defs>
  <path class="st0" d="M423.5,216l-.2-6.7-.5-6.7-.8-6.6-1.1-6.6-1.4-6.5-1.6-6.4-1.9-6.4-2.2-6.3-2.5-6.2-2.8-6-3-5.9-3.3-5.7-3.6-5.6-3.8-5.4-4-5.2-4.3-5-4.5-4.8-4.7-4.6-4.9-4.3-5.1-4.1-5.2-3.8-5.4-3.6-5.5-3.3-5.7-3-5.8-2.7-5.9-2.5-6-2.2-6.1-1.9-6.1-1.6-6.1-1.3-6.2-1-6.2-.7-6.2-.4h-6.1c0,0-6.1.2-6.1.2l-6,.6-6,.8-5.9,1.1-5.8,1.4-5.7,1.7-5.5,2-5.4,2.2-5.2,2.5-5,2.8-4.8,3-4.6,3.2-4.4,3.4-4.1,3.6-3.9,3.8-3.6,4-3.4,4.1-3.1,4.3-2.8,4.4-2.5,4.5-2.2,4.6-1.9,4.7-1.6,4.7-1.3,4.7-1,4.7-.7,4.7-.4,4.7v4.6s.2,4.6.2,4.6l.6,4.5.8,4.3,1.1,4.2,1.4,4.1,1.7,3.9,1.9,3.7,2.1,3.5,2.3,3.3,2.5,3,2.7,2.8,2.9,2.5,3,2.2,3.1,1.9,3.2,1.6,3.3,1.3,3.3,1,3.3.7,3.3.4h3.2c0,0,3.2-.2,3.2-.2l3.1-.5,2.9-.8,2.8-1.1,2.6-1.4,2.4-1.6,2.2-1.8,2-2,1.7-2.2,1.4-2.3,1.2-2.4.9-2.5.6-2.6.3-2.6v-2.6s-.4-2.6-.4-2.6l-.6-2.5-.9-2.5-1.2-2.3-1.5-2.2-1.7-2-1.9-1.8-2.1-1.6-2.3-1.4-2.5-1.1-2.6-.8-2.7-.5-2.7-.2h-2.8c0,0-2.8.4-2.8.4l-2.7.7-2.6,1-2.5,1.2-2.4,1.5-2.2,1.8-2,2-1.8,2.2-1.5,2.4-1.3,2.5-1,2.6-.7,2.7-.4,2.8v2.8c0,0,.1,2.8.1,2.8l.5,2.7.8,2.7,1.1,2.6,1.3,2.4,1.6,2.2,1.8,2,2,1.8,2.2,1.6,2.4,1.3,2.5,1,2.6.7,2.6.4h2.6c0,.1,2.6,0,2.6,0l2.6-.5,2.5-.8,2.3-1,2.2-1.3,2-1.5,1.8-1.8,1.5-1.9,1.3-2.1,1-2.2.7-2.3.4-2.4v-2.4c.1,0,0-2.4,0-2.4l-.5-2.4-.8-2.3-1.1-2.1-1.3-2-1.6-1.8-1.8-1.6-2-1.4-2.1-1.1-2.3-.8-2.4-.5-2.4-.3h-2.4c0,0-2.4.4-2.4.4l-2.4.7-2.3.9-2.2,1.2-2,1.5-1.8,1.7-1.6,1.9-1.4,2.1-1.1,2.3-.8,2.4-.5,2.5-.2,2.6v2.6c0,0,.4,2.6.4,2.6l.7,2.5,1,2.5,1.2,2.4,1.5,2.2,1.8,2.1,2,1.9,2.2,1.6,2.4,1.4,2.5,1.1,2.7.9,2.7.6,2.8.3h2.8s2.8-.3,2.8-.3l2.8-.6,2.7-.9,2.6-1.2,2.4-1.5,2.3-1.7,2.1-1.9,1.8-2.1,1.6-2.3,1.3-2.5,1-2.6.8-2.7.5-2.7.2-2.7-.2-2.7-.5-2.7-.7-2.6-1-2.5-1.3-2.4-1.5-2.2-1.8-2-2-1.8-2.2-1.5-2.3-1.3-2.5-1-2.5-.7-2.6-.4h-2.6c0-.1-2.7,0-2.7,0l-2.6.5-2.6.8-2.5,1.1-2.4,1.4-2.2,1.6-2.1,1.9-1.9,2.1-1.6,2.3-1.4,2.5-1.2,2.7-.9,2.9-.6,3-.3,3.1v3.2s.2,3.2.2,3.2l.6,3.3.9,3.3,1.2,3.2,1.5,3.2,1.8,3.1,2.1,3,2.4,2.9,2.6,2.7,2.9,2.6,3.2,2.4,3.4,2.2,3.6,2,3.8,1.7,4,1.5,4.2,1.2,4.3,1,4.4.7,4.5.4h4.6c0,0,4.7-.1,4.7-.1l4.7-.5,4.8-.8,4.8-1.1,4.7-1.5,4.7-1.8,4.6-2.1,4.6-2.4,4.5-2.6,4.3-2.9,4.2-3.2,4.1-3.5,3.9-3.7,3.7-4,3.5-4.2,3.3-4.4,3.1-4.7,2.9-4.9,2.6-5,2.4-5.2,2.1-5.4,1.8-5.5,1.6-5.6,1.3-5.8,1-5.9.7-5.9.4-6v-6.1c.1,0,0-6.1,0-6.1l-.5-6.1-.8-6.1-1.1-6.1-1.4-6.1-1.7-6-2-6-2.3-5.9-2.6-5.8-2.9-5.7-3.2-5.6-3.4-5.4-3.7-5.3-4-5.1-4.2-5-4.5-4.8-4.7-4.6-4.9-4.4-5.1-4.2-5.3-3.9-5.5-3.7-5.7-3.4-5.8-3.2-6-2.9-6.1-2.7-6.3-2.4-6.4-2.1-6.5-1.8-6.5-1.5-6.6-1.2-6.7-.9-6.7-.6-6.7-.3h-6.7s-6.7.3-6.7.3l-6.7.6-6.7.9-6.6,1.2-6.6,1.5-6.5,1.8-6.4,2.1-6.3,2.3-6.1,2.6-6,2.9-5.9,3.2-5.7,3.4-5.5,3.7-5.3,3.9-5.1,4.1-4.9,4.4-4.7,4.6-4.5,4.8-4.2,4.9-4,5.1-3.7,5.3-3.5,5.4-3.2,5.6-2.9,5.7-2.6,5.8-2.3,5.9-2,6-1.7,6-1.4,6.1-1.1,6.1-.8,6.1-.5,6.1-.2,6.1v6.1c0,0,.5,6,.5,6l.7,6,1,5.9,1.3,5.8,1.6,5.7,1.8,5.5,2.1,5.4,2.4,5.2,2.6,5.1,2.9,4.9,3.1,4.7,3.3,4.5,3.5,4.2,3.7,4,3.9,3.8,4.1,3.5,4.2,3.2,4.4,2.9,4.5,2.7,4.6,2.4,4.7,2.1,4.7,1.8,4.8,1.5,4.8,1.1,4.8.8,4.8.5,4.7.2h4.6c0,0,4.6-.5,4.6-.5l4.5-.7,4.3-1,4.2-1.2,4-1.5,3.8-1.8,3.6-2,3.4-2.2,3.2-2.4,2.9-2.6,2.6-2.8,2.4-2.9,2.1-3,1.8-3.1,1.5-3.2,1.2-3.3.8-3.3.5-3.3.2-3.2v-3.2c0,0-.5-3.1-.5-3.1l-.7-3-1-2.9-1.2-2.7-1.5-2.5-1.7-2.3-1.9-2.1-2.1-1.8-2.3-1.6-2.4-1.3-2.5-1-2.6-.7-2.6-.4h-2.7c0-.1-2.6,0-2.6,0l-2.6.5-2.5.8-2.4,1-2.3,1.3-2.1,1.6-1.9,1.8-1.7,2-1.5,2.2-1.2,2.4-1,2.5-.7,2.6-.4,2.7v2.7c0,0,.1,2.7.1,2.7l.5,2.7.8,2.7,1.1,2.6,1.4,2.4,1.6,2.3,1.9,2.1,2.1,1.9,2.3,1.7,2.5,1.4,2.6,1.1,2.7.9,2.8.6,2.8.3h2.8s2.8-.4,2.8-.4l2.7-.6,2.6-.9,2.5-1.2,2.4-1.5,2.2-1.7,1.9-1.9,1.7-2.1,1.5-2.3,1.2-2.4.9-2.5.6-2.6.3-2.6v-2.6s-.3-2.6-.3-2.6l-.6-2.5-.9-2.4-1.2-2.2-1.4-2.1-1.7-1.9-1.9-1.7-2-1.4-2.2-1.2-2.3-.9-2.4-.6-2.4-.3h-2.4s-2.4.3-2.4.3l-2.3.6-2.2.9-2.1,1.2-1.9,1.4-1.7,1.7-1.5,1.9-1.3,2-1,2.2-.7,2.3-.4,2.4v2.4c-.1,0,0,2.4,0,2.4l.5,2.4.8,2.3,1.1,2.2,1.3,2.1,1.6,1.9,1.8,1.7,2,1.5,2.2,1.2,2.4,1,2.5.7,2.6.4h2.6c0,.1,2.6,0,2.6,0l2.6-.5,2.5-.8,2.5-1.1,2.3-1.4,2.2-1.6,2-1.9,1.8-2.1,1.5-2.3,1.3-2.4,1-2.6.7-2.7.4-2.8v-2.8c.1,0,0-2.8,0-2.8l-.5-2.8-.8-2.7-1-2.6-1.3-2.5-1.6-2.3-1.8-2.2-2-2-2.2-1.7-2.4-1.5-2.5-1.2-2.7-.9-2.7-.6-2.8-.3h-2.8s-2.7.3-2.7.3l-2.7.6-2.6.9-2.5,1.1-2.3,1.4-2.1,1.6-1.9,1.9-1.7,2.1-1.4,2.2-1.1,2.4-.9,2.5-.6,2.6-.3,2.6v2.6s.4,2.6.4,2.6l.6,2.6.9,2.5,1.2,2.4,1.5,2.3,1.8,2.1,2,2,2.2,1.8,2.4,1.5,2.6,1.3,2.8,1,3,.8,3.1.5,3.2.2h3.2c0,0,3.3-.5,3.3-.5l3.3-.7,3.3-1,3.2-1.3,3.2-1.6,3.1-1.9,3-2.2,2.8-2.5,2.7-2.8,2.5-3,2.3-3.3,2.1-3.5,1.9-3.7,1.6-3.9,1.4-4,1.1-4.2.8-4.3.5-4.4.2-4.5v-4.6c0,0-.4-4.7-.4-4.7l-.7-4.7-1-4.7-1.3-4.7-1.6-4.7-1.9-4.6-2.2-4.6-2.5-4.5-2.8-4.4-3.1-4.3-3.3-4.1-3.6-4-3.9-3.8-4.1-3.6-4.3-3.4-4.6-3.2-4.8-3-5-2.8-5.2-2.5-5.3-2.3-5.5-2-5.6-1.7-5.8-1.4-5.9-1.2-6-.9-6-.6-6.1-.3h-6.1s-6.2.4-6.2.4l-6.2.6-6.2.9-6.1,1.2-6.1,1.5-6,1.8-6,2.1-5.9,2.4-5.8,2.7-5.7,3-5.5,3.3-5.4,3.5-5.3,3.8-5.1,4.1-4.9,4.3-4.7,4.5-4.5,4.8-4.3,5-4.1,5.2-3.8,5.4-3.6,5.5-3.3,5.7-3.1,5.9-2.8,6-2.5,6.1-2.3,6.3-2,6.4-1.7,6.4-1.4,6.5-1.1,6.6-.8,6.6-.5,6.6-.2,6.7v6.7c.1,0,.5,6.7.5,6.7l.7,6.6,1,6.6,1.3,6.5,1.6,6.5,1.9,6.4,2.2,6.3,2.5,6.2,2.8,6,3,5.9,3.3,5.7,3.5,5.6,3.8,5.4,4,5.2,4.2,5,4.5,4.8,4.7,4.6,4.9,4.4,5.1,4.1,5.2,3.9,5.4,3.6,5.5,3.3,5.7,3.1,5.8,2.8,5.9,2.5,6,2.2,6,1.9,6.1,1.6,6.1,1.3,6.2,1,6.2.7,6.2.4h6.1c0,0,6.1-.1,6.1-.1l6-.5,6-.8,5.9-1.1,5.8-1.4,5.7-1.7,5.5-2,5.4-2.2,5.2-2.5,5-2.7,4.8-3,4.6-3.2,4.4-3.4,4.2-3.6,3.9-3.8,3.7-4,3.4-4.1,3.1-4.3,2.8-4.4,2.5-4.5,2.2-4.6,1.9-4.6,1.6-4.7,1.3-4.7,1-4.7.7-4.7.4-4.7v-4.6c0,0-.1-4.6-.1-4.6l-.5-4.5-.8-4.4-1.1-4.2-1.4-4.1-1.6-3.9-1.9-3.7-2.1-3.5-2.3-3.3-2.5-3-2.7-2.8-2.9-2.5-3-2.2-3.1-1.9-3.2-1.6-3.3-1.3-3.3-1-3.3-.7-3.3-.4h-3.3c0,0-3.2.1-3.2.1l-3.1.5-3,.8-2.8,1.1-2.6,1.3-2.4,1.6-2.2,1.8-2,2-1.7,2.2-1.5,2.3-1.2,2.4-.9,2.5-.6,2.6-.3,2.6v2.6s.3,2.6.3,2.6l.6,2.6.9,2.5,1.2,2.4,1.4,2.2,1.7,2,1.9,1.8,2.1,1.6,2.3,1.4,2.5,1.1,2.6.8,2.7.6,2.7.3h2.8s2.8-.4,2.8-.4l2.7-.6,2.6-.9,2.5-1.2,2.4-1.5,2.2-1.7,2-2,1.8-2.2,1.6-2.4,1.3-2.5,1-2.6.7-2.7.4-2.8v-2.8c.1,0,0-2.8,0-2.8l-.5-2.7-.8-2.7-1.1-2.6-1.3-2.4-1.6-2.3-1.8-2.1-2-1.8-2.2-1.6-2.3-1.3-2.5-1.1-2.6-.8-2.6-.5-2.6-.2h-2.6c0,.1-2.6.6-2.6.6l-2.5.7-2.3,1-2.2,1.3-2,1.5-1.8,1.7-1.6,1.9-1.3,2.1-1,2.2-.7,2.3-.4,2.4v2.4c-.1,0,0,2.4,0,2.4l.5,2.4.7,2.3,1,2.2,1.3,2,1.5,1.8,1.8,1.6,2,1.4,2.1,1.1,2.2.9,2.3.6,2.4.3h2.4s2.4-.3,2.4-.3l2.4-.6,2.3-.9,2.2-1.2,2-1.5,1.8-1.7,1.6-1.9,1.4-2.1,1.1-2.3.9-2.4.6-2.5.3-2.6v-2.6s-.4-2.6-.4-2.6l-.6-2.6-.9-2.5-1.2-2.4-1.5-2.2-1.7-2.1-2-1.9-2.2-1.7-2.4-1.4-2.5-1.2-2.6-.9-2.7-.6-2.8-.3h-2.8s-2.8.3-2.8.3l-2.8.6-2.7.9-2.6,1.2-2.4,1.4-2.3,1.7-2.1,1.9-1.9,2.1-1.6,2.3-1.4,2.5-1.1,2.6-.8,2.7-.5,2.7-.2,2.7v2.7c.1,0,.5,2.7.5,2.7l.7,2.6,1,2.5,1.3,2.4,1.5,2.2,1.8,2,2,1.8,2.2,1.5,2.3,1.3,2.4,1,2.5.7,2.6.4h2.6c0,.1,2.7,0,2.7,0l2.6-.5,2.6-.8,2.5-1.1,2.4-1.3,2.2-1.6,2.1-1.9,1.9-2.1,1.7-2.3,1.4-2.5,1.2-2.7.9-2.9.7-3,.4-3.1v-3.2c0,0-.2-3.2-.2-3.2l-.5-3.3-.8-3.3-1.2-3.2-1.5-3.2-1.8-3.1-2.1-3-2.3-2.9-2.6-2.8-2.9-2.6-3.1-2.4-3.4-2.2-3.6-2-3.8-1.8-4-1.5-4.1-1.3-4.3-1-4.4-.7-4.5-.4h-4.6c0-.1-4.7,0-4.7,0l-4.7.5-4.8.8-4.8,1.1-4.7,1.4-4.7,1.7-4.6,2-4.6,2.3-4.5,2.6-4.4,2.9-4.2,3.2-4.1,3.5-3.9,3.7-3.7,4-3.6,4.2-3.3,4.4-3.1,4.6-2.9,4.8-2.7,5-2.4,5.2-2.1,5.4-1.9,5.5-1.6,5.6-1.3,5.7-1,5.8-.7,5.9-.4,6v6c-.1,0,0,6.1,0,6.1l.5,6.1.8,6.1,1.1,6.1,1.4,6.1,1.7,6,2,6,2.3,5.9,2.6,5.8,2.9,5.7,3.1,5.6,3.4,5.4,3.7,5.3,3.9,5.1,4.2,5,4.4,4.8,4.7,4.6,4.9,4.4,5.1,4.2,5.3,3.9,5.5,3.7,5.7,3.5,5.8,3.2,6,2.9,6.1,2.7,6.2,2.4,6.4,2.1,6.5,1.8,6.5,1.5,6.6,1.2,6.7,1,6.7.7,6.7.3h6.7s6.7-.2,6.7-.2l6.7-.6,6.7-.9,6.6-1.2,6.6-1.5,6.5-1.7,6.4-2,6.3-2.3,6.2-2.6,6-2.9,5.9-3.1,5.7-3.4,5.5-3.6,5.4-3.9,5.2-4.1,4.9-4.3,4.7-4.5,4.5-4.7,4.3-4.9,4-5.1,3.8-5.3,3.5-5.4,3.2-5.5,2.9-5.7,2.7-5.8,2.4-5.9,2.1-6,1.8-6,1.5-6.1,1.2-6.1.9-6.1.6-6.1.2-6.1v-6.1c0,0-.4-6-.4-6l-.7-6-1-5.9-1.2-5.8-1.5-5.7-1.8-5.6-2.1-5.4-2.3-5.3-2.6-5.1-2.8-4.9-3.1-4.7-3.3-4.5-3.5-4.3-3.7-4-3.9-3.8-4.1-3.5-4.2-3.3-4.3-3-4.5-2.7-4.6-2.4-4.6-2.1-4.7-1.8-4.8-1.5-4.8-1.2-4.8-.9-4.8-.6-4.7-.2h-4.7c0,0-4.6.4-4.6.4l-4.5.7-4.3.9-4.2,1.2-4,1.5-3.8,1.7-3.6,2-3.4,2.2-3.2,2.4-2.9,2.6-2.7,2.8-2.4,2.9-2.1,3-1.8,3.1-1.5,3.2-1.2,3.3-.9,3.3-.6,3.3-.3,3.3v3.2c0,0,.4,3.1.4,3.1l.6,3,.9,2.9,1.2,2.7,1.4,2.5,1.7,2.3,1.9,2.1,2.1,1.9,2.2,1.6,2.4,1.3,2.5,1.1,2.6.8,2.6.5,2.7.2h2.6c0-.1,2.6-.6,2.6-.6l2.5-.7,2.4-1,2.3-1.3,2.1-1.5,2-1.8,1.8-2,1.5-2.2,1.3-2.4,1-2.5.7-2.6.4-2.7v-2.7c.1,0,0-2.7,0-2.7l-.5-2.7-.8-2.7-1.1-2.6-1.3-2.5-1.6-2.3-1.9-2.1-2.1-1.9-2.3-1.7-2.4-1.4-2.6-1.2-2.7-.9-2.8-.6-2.8-.3h-2.8s-2.8.3-2.8.3l-2.7.6-2.6.9-2.5,1.2-2.4,1.4-2.2,1.7-2,1.9-1.7,2.1-1.5,2.3-1.2,2.4-.9,2.5-.6,2.6-.3,2.6v2.6s.3,2.6.3,2.6l.6,2.5.9,2.4,1.1,2.3,1.4,2.1,1.6,1.9,1.8,1.7,2,1.4,2.2,1.2,2.3.9,2.4.6,2.4.3h2.4s2.4-.3,2.4-.3l2.3-.6,2.2-.9,2.1-1.1,1.9-1.4,1.8-1.6,1.5-1.8,1.3-2,1-2.2.7-2.3.4-2.4v-2.4c.1,0,0-2.4,0-2.4l-.5-2.4-.8-2.3-1-2.2-1.3-2.1-1.6-1.9-1.8-1.7-2-1.5-2.2-1.3-2.3-1-2.5-.7-2.6-.4h-2.6c0-.1-2.6,0-2.6,0l-2.6.5-2.6.8-2.5,1.1-2.3,1.3-2.2,1.6-2,1.8-1.8,2.1-1.6,2.3-1.3,2.4-1.1,2.6-.8,2.7-.5,2.7-.2,2.8v2.8c.1,0,.6,2.8.6,2.8l.7,2.7,1,2.6,1.3,2.5,1.6,2.4,1.8,2.2,2,2,2.2,1.7,2.4,1.5,2.5,1.2,2.6.9,2.7.6,2.8.3h2.8s2.7-.2,2.7-.2l2.7-.6,2.6-.8,2.5-1.1,2.3-1.4,2.1-1.6,1.9-1.8,1.7-2,1.4-2.2,1.2-2.4.9-2.5.6-2.6.3-2.6v-2.6s-.3-2.6-.3-2.6l-.6-2.6-.9-2.5-1.2-2.4-1.5-2.3-1.7-2.2-2-2-2.2-1.8-2.4-1.6-2.6-1.3-2.8-1.1-2.9-.8-3.1-.5-3.2-.2h-3.2c0,0-3.3.4-3.3.4l-3.3.7-3.3,1-3.2,1.3-3.2,1.6-3.1,1.9-3,2.2-2.9,2.5-2.7,2.7-2.5,3-2.3,3.2-2.1,3.5-1.9,3.7-1.7,3.9-1.4,4-1.1,4.2-.9,4.3-.6,4.4-.3,4.5v4.6s.4,4.7.4,4.7l.6,4.7.9,4.7,1.3,4.7,1.6,4.7,1.9,4.6,2.2,4.6,2.5,4.5,2.8,4.4,3,4.3,3.3,4.1,3.6,4,3.8,3.8,4.1,3.6,4.3,3.4,4.6,3.2,4.8,3,5,2.8,5.1,2.5,5.3,2.3,5.5,2,5.6,1.7,5.7,1.5,5.8,1.2,5.9.9,6,.6,6.1.3h6.1s6.2-.3,6.2-.3l6.2-.6,6.2-.9,6.1-1.2,6.1-1.5,6-1.8,6-2.1,5.9-2.4,5.8-2.7,5.7-3,5.6-3.2,5.4-3.5,5.3-3.8,5.1-4,4.9-4.3,4.7-4.5,4.5-4.7,4.3-4.9,4.1-5.2,3.9-5.3,3.6-5.5,3.4-5.7,3.1-5.9,2.8-6,2.6-6.1,2.3-6.2,2-6.3,1.7-6.4,1.4-6.5,1.1-6.6.8-6.6.5-6.7.2-6.7v-6.7c0,0-.5-6.7-.5-6.7l-.7-6.6-1-6.6-1.3-6.5-1.6-6.5-1.9-6.4-2.2-6.3-2.4-6.2-2.7-6.1-3-5.9-3.3-5.8-3.5-5.6-3.8-5.4-4-5.2-4.2-5-4.4-4.8-4.7-4.6-4.8-4.4-5-4.1-5.2-3.9-5.4-3.6-5.5-3.4-5.6-3.1-5.8-2.8-5.9-2.5-6-2.2-6-1.9-6.1-1.6-6.1-1.3-6.2-1-6.2-.7-6.2-.4h-6.1c0-.1-6.1,0-6.1,0l-6.1.5-6,.8-5.9,1.1-5.8,1.4-5.7,1.7-5.5,1.9-5.4,2.2-5.2,2.5-5,2.7-4.8,2.9-4.6,3.2-4.4,3.4-4.2,3.6-3.9,3.8-3.7,4-3.4,4.1-3.1,4.2-2.9,4.4-2.6,4.5-2.3,4.6-2,4.6-1.7,4.7-1.4,4.7-1,4.7-.7,4.7-.4,4.7v4.6c-.1,0,0,4.6,0,4.6l.5,4.5.8,4.4,1.1,4.2,1.3,4.1,1.6,3.9,1.9,3.7,2.1,3.5,2.3,3.3,2.5,3.1,2.7,2.8,2.8,2.5,3,2.3,3.1,2,3.2,1.7,3.3,1.4,3.3,1.1,3.3.7,3.3.4h3.3c0,.1,3.2,0,3.2,0l3.1-.5,3-.8,2.8-1,2.7-1.3,2.5-1.5,2.3-1.8,2-2,1.8-2.1,1.5-2.3,1.2-2.4.9-2.5.6-2.6.3-2.6v-2.6s-.2-2.6-.2-2.6l-.6-2.6-.9-2.5-1.1-2.4-1.4-2.2-1.7-2.1-1.9-1.9-2.1-1.6-2.3-1.4-2.4-1.1-2.6-.9-2.7-.6-2.7-.3h-2.8s-2.8.3-2.8.3l-2.7.6-2.6.9-2.5,1.2-2.4,1.5-2.2,1.7-2,1.9-1.8,2.2-1.6,2.3-1.3,2.5-1,2.6-.8,2.7-.5,2.8-.2,2.8v2.8c.1,0,.6,2.8.6,2.8l.7,2.7,1,2.6,1.3,2.4,1.5,2.3,1.8,2.1,2,1.9,2.2,1.6,2.3,1.4,2.5,1.1,2.5.8,2.6.5,2.6.2h2.6c0-.1,2.6-.5,2.6-.5l2.5-.7,2.4-1,2.2-1.3,2-1.5,1.8-1.7,1.6-1.9,1.3-2.1,1.1-2.2.8-2.3.5-2.4.2-2.4v-2.4c-.1,0-.6-2.4-.6-2.4l-.7-2.3-1-2.2-1.3-2-1.5-1.9-1.7-1.6-1.9-1.4-2.1-1.2-2.2-.9-2.3-.6-2.4-.3h-2.4s-2.4.3-2.4.3l-2.4.6-2.3.9-2.2,1.2-2,1.4-1.8,1.7-1.6,1.9-1.4,2.1-1.2,2.2-.9,2.4-.6,2.5-.3,2.6v2.6s.3,2.6.3,2.6l.6,2.6.9,2.5,1.2,2.4,1.5,2.3,1.7,2.1,1.9,1.9,2.2,1.7,2.3,1.5,2.5,1.2,2.6.9,2.7.6,2.8.3h2.8s2.8-.2,2.8-.2l2.8-.6,2.7-.9,2.6-1.1,2.5-1.4,2.3-1.7,2.1-1.9,1.9-2.1,1.6-2.3,1.4-2.4,1.1-2.6.8-2.7.5-2.7.2-2.7v-2.7c0,0-.5-2.7-.5-2.7l-.7-2.6-1-2.5-1.2-2.4-1.5-2.2-1.7-2-1.9-1.8-2.1-1.6-2.3-1.3-2.4-1-2.5-.8-2.6-.5-2.6-.2h-2.7c0,.1-2.6.6-2.6.6l-2.6.7-2.5,1-2.4,1.3-2.3,1.6-2.1,1.8-1.9,2.1-1.7,2.3-1.5,2.5-1.2,2.7-1,2.8-.7,3-.4,3.1v3.2c0,0,.1,3.2.1,3.2l.5,3.3.8,3.3,1.1,3.2,1.4,3.2,1.7,3.1,2,3,2.3,2.9,2.6,2.8,2.9,2.6,3.1,2.4,3.4,2.2,3.6,2,3.8,1.8,4,1.5,4.1,1.3,4.3,1,4.4.7,4.5.4h4.6c0,.1,4.7,0,4.7,0l4.7-.5,4.8-.8,4.8-1.1,4.7-1.4,4.7-1.7,4.6-2,4.6-2.3,4.5-2.6,4.4-2.9,4.2-3.2,4.1-3.4,3.9-3.7,3.8-3.9,3.6-4.2,3.4-4.4,3.1-4.6,2.9-4.8,2.7-5,2.4-5.2,2.2-5.3,1.9-5.5,1.6-5.6,1.3-5.7,1.1-5.8.8-5.9.5-6,.2-6v-6.1c-.1,0-.6-6.1-.6-6.1l-.7-6.1-1-6.1-1.4-6.1-1.7-6-2-6-2.2-5.9-2.5-5.8-2.8-5.7-3.1-5.6-3.4-5.5-3.6-5.3-3.9-5.2-4.2-5-4.4-4.8-4.6-4.6-4.9-4.4-5.1-4.2-5.3-4-5.5-3.7-5.6-3.5-5.8-3.2-6-3-6.1-2.7-6.2-2.4-6.3-2.1-6.4-1.9-6.5-1.6-6.6-1.3-6.7-1-6.7-.7-6.7-.4h-6.7c0,0-6.7.2-6.7.2l-6.7.5-6.7.8-6.6,1.1-6.6,1.4-6.5,1.7-6.4,2-6.3,2.3-6.2,2.6-6,2.8-5.9,3.1-5.7,3.4-5.6,3.6-5.4,3.9-5.2,4.1-5,4.3-4.8,4.5-4.5,4.7-4.3,4.9-4,5.1-3.8,5.2-3.5,5.4-3.2,5.5-3,5.7-2.7,5.8-2.4,5.9-2.1,5.9-1.8,6-1.5,6.1-1.2,6.1-.9,6.1-.6,6.1-.3,6.1v6.1s.4,6,.4,6l.6,6,.9,5.9,1.2,5.8,1.5,5.7,1.8,5.6,2.1,5.4,2.3,5.3,2.6,5.1,2.8,4.9,3.1,4.7,3.3,4.5,3.5,4.3,3.7,4.1,3.9,3.8,4,3.6,4.2,3.3,4.3,3,4.5,2.7,4.6,2.4,4.6,2.1,4.7,1.8,4.7,1.5,4.8,1.2,4.8.9,4.8.6,4.7.3h4.7s4.6-.4,4.6-.4l4.5-.6,4.4-.9,4.2-1.2,4.1-1.5,3.9-1.7,3.7-2,3.4-2.2,3.2-2.4,3-2.6,2.7-2.7,2.4-2.9,2.1-3,1.8-3.1,1.5-3.2,1.2-3.3.9-3.3.6-3.3.3-3.3v-3.2s-.3-3.1-.3-3.1l-.6-3-.9-2.9-1.2-2.7-1.4-2.6-1.7-2.4-1.9-2.1-2.1-1.9-2.2-1.6-2.4-1.4-2.5-1.1-2.6-.8-2.6-.5-2.7-.2h-2.7c0,.1-2.6.5-2.6.5l-2.5.7-2.5,1-2.3,1.3-2.2,1.5-2,1.8-1.8,2-1.5,2.2-1.3,2.3-1,2.5-.7,2.6-.5,2.7-.2,2.7v2.7c.1,0,.6,2.7.6,2.7l.7,2.7,1,2.6,1.3,2.5,1.6,2.3,1.8,2.1,2.1,1.9,2.3,1.7,2.4,1.5,2.6,1.2,2.7.9,2.8.6,2.8.3h2.8s2.8-.3,2.8-.3l2.8-.6,2.7-.9,2.5-1.1,2.4-1.4,2.2-1.7,2-1.9,1.8-2.1,1.5-2.2,1.2-2.4,1-2.5.7-2.6.4-2.6v-2.6c0,0-.2-2.6-.2-2.6l-.5-2.5-.8-2.4-1.1-2.3-1.4-2.1-1.6-1.9-1.8-1.7-2-1.5-2.2-1.2-2.3-.9-2.4-.6-2.4-.3h-2.4s-2.4.2-2.4.2l-2.4.6-2.3.8-2.1,1.1-2,1.4-1.8,1.6-1.6,1.8-1.3,2-1,2.2-.8,2.3-.5,2.4-.2,2.4v2.4c.1,0,.6,2.4.6,2.4l.7,2.3,1,2.2,1.3,2.1,1.5,1.9,1.8,1.7,2,1.5,2.2,1.3,2.3,1,2.5.8,2.5.5,2.6.2h2.6c0-.1,2.6-.6,2.6-.6l2.6-.7,2.5-1,2.4-1.3,2.2-1.6,2-1.8,1.8-2,1.6-2.2,1.3-2.4,1.1-2.5.8-2.7.5-2.7.2-2.8v-2.8c0,0-.5-2.8-.5-2.8l-.7-2.7-1-2.6-1.3-2.5-1.5-2.4-1.8-2.2-2-2-2.2-1.8-2.4-1.5-2.5-1.3-2.6-1-2.7-.7-2.8-.4h-2.8c0,0-2.8.2-2.8.2l-2.7.5-2.6.8-2.5,1.1-2.3,1.4-2.1,1.6-1.9,1.8-1.7,2-1.5,2.2-1.2,2.3-.9,2.5-.6,2.5-.3,2.6v2.6s.3,2.6.3,2.6l.6,2.6.9,2.5,1.2,2.4,1.4,2.3,1.7,2.2,2,2,2.2,1.8,2.4,1.6,2.6,1.4,2.8,1.1,2.9.8,3.1.6,3.2.3h3.2s3.3-.4,3.3-.4l3.3-.6,3.3-1,3.3-1.3,3.2-1.6,3.1-1.9,3-2.2,2.9-2.4,2.7-2.7,2.5-3,2.4-3.2,2.1-3.4,1.9-3.6,1.7-3.8,1.4-4,1.2-4.2.9-4.3.6-4.4.3-4.5v-4.6s-.3-4.7-.3-4.7l-.6-4.7-.9-4.7-1.2-4.7-1.5-4.7-1.8-4.6-2.1-4.6-2.4-4.5-2.7-4.4-3-4.3-3.3-4.2-3.6-4-3.8-3.8-4.1-3.7-4.3-3.5-4.5-3.3-4.7-3-4.9-2.8-5.1-2.6-5.3-2.3-5.5-2-5.6-1.8-5.7-1.5-5.8-1.2-5.9-.9-6-.6-6.1-.3h-6.1s-6.2.2-6.2.2l-6.2.6-6.2.9-6.1,1.2-6.1,1.5-6.1,1.8-6,2.1-5.9,2.4-5.8,2.7-5.7,2.9-5.6,3.2-5.4,3.5-5.3,3.8-5.1,4-4.9,4.3-4.7,4.5-4.5,4.7-4.3,4.9-4.1,5.1-3.9,5.3-3.6,5.5-3.4,5.7-3.1,5.8-2.9,6-2.6,6.1-2.3,6.2-2,6.3-1.7,6.4-1.4,6.5-1.1,6.6-.8,6.6-.5,6.6-.2,6.7v6.7c0,0,.4,6.7.4,6.7l.7,6.6,1,6.6,1.3,6.5,1.6,6.5,1.9,6.4,2.1,6.3,2.4,6.2,2.7,6.1,3,5.9,3.2,5.8,3.5,5.6,3.7,5.4,4,5.3,4.2,5.1,4.4,4.8,4.6,4.6,4.8,4.4,5,4.2,5.2,3.9,5.4,3.7,5.5,3.4,5.6,3.1,5.8,2.8,5.9,2.5,6,2.3,6,2,6.1,1.7,6.1,1.4,6.2,1.1,6.2.8,6.2.4h6.2c0,.1,6.1,0,6.1,0l6.1-.5,6-.8,5.9-1.1,5.8-1.3,5.7-1.6,5.6-1.9,5.4-2.2,5.2-2.4,5.1-2.7,4.9-2.9,4.7-3.1,4.4-3.4,4.2-3.6,4-3.8,3.7-3.9,3.4-4.1,3.2-4.2,2.9-4.4,2.6-4.5,2.3-4.6,2-4.6,1.7-4.7,1.4-4.7,1.1-4.7.8-4.7.4-4.7v-4.7c.1,0,0-4.6,0-4.6l-.5-4.5-.8-4.4-1-4.3-1.3-4.1-1.6-3.9-1.8-3.8-2.1-3.5-2.3-3.3-2.5-3.1-2.7-2.8-2.8-2.6-3-2.3-3.1-2-3.2-1.7-3.3-1.4-3.3-1.1-3.3-.8-3.3-.5h-3.3c0-.1-3.2,0-3.2,0l-3.1.5-3,.7-2.8,1-2.7,1.3-2.5,1.5-2.3,1.7-2,1.9-1.8,2.1-1.5,2.3-1.3,2.4-1,2.5-.7,2.6-.4,2.6v2.6c0,0,.2,2.6.2,2.6l.5,2.6.8,2.5,1.1,2.4,1.4,2.2,1.6,2.1,1.9,1.9,2.1,1.7,2.3,1.4,2.4,1.2,2.6.9,2.7.6,2.7.3h2.8s2.8-.3,2.8-.3l2.7-.6,2.7-.9,2.6-1.2,2.4-1.4,2.3-1.7,2.1-1.9,1.8-2.1,1.6-2.3,1.3-2.5,1.1-2.6.8-2.7.5-2.8.2-2.8v-2.8c-.1,0-.5-2.8-.5-2.8l-.7-2.7-1-2.6-1.3-2.5-1.5-2.3-1.8-2.1-2-1.9-2.2-1.6-2.3-1.4-2.4-1.1-2.5-.8-2.6-.5-2.6-.2h-2.6c0,0-2.6.5-2.6.5l-2.5.7-2.4,1-2.2,1.2-2.1,1.5-1.8,1.7-1.6,1.9-1.4,2.1-1.1,2.2-.8,2.3-.5,2.4-.2,2.4v2.4c0,0,.5,2.4.5,2.4l.7,2.3,1,2.2,1.2,2,1.5,1.9,1.7,1.7,1.9,1.4,2.1,1.2,2.2.9,2.3.6,2.4.3h2.4s2.4-.2,2.4-.2l2.4-.6,2.3-.9,2.2-1.1,2-1.4,1.9-1.6,1.7-1.9,1.4-2.1,1.2-2.2.9-2.4.6-2.5.3-2.6v-2.6s-.2-2.6-.2-2.6l-.6-2.6-.9-2.5-1.2-2.4-1.4-2.3-1.7-2.1-1.9-1.9-2.1-1.7-2.3-1.5-2.5-1.2-2.6-1-2.7-.7-2.8-.4h-2.8c0,0-2.8.2-2.8.2l-2.8.5-2.7.8-2.6,1.1-2.5,1.4-2.3,1.6-2.1,1.9-1.9,2.1-1.7,2.3-1.4,2.4-1.1,2.6-.8,2.6-.5,2.7-.2,2.7v2.7c0,0,.4,2.7.4,2.7l.7,2.6.9,2.5,1.2,2.4,1.5,2.2,1.7,2,1.9,1.8,2.1,1.6,2.3,1.3,2.4,1.1,2.5.8,2.6.5,2.6.2h2.7c0-.1,2.6-.5,2.6-.5l2.6-.7,2.5-1,2.4-1.3,2.3-1.6,2.1-1.8,1.9-2.1,1.7-2.3,1.5-2.5,1.2-2.7,1-2.8.7-3,.4-3.1v-3.2c.1,0,0-3.2,0-3.2l-.5-3.3-.8-3.3-1.1-3.2-1.4-3.2-1.7-3.1-2-3-2.3-2.9-2.6-2.8-2.8-2.6-3.1-2.5-3.3-2.3-3.6-2-3.8-1.8-3.9-1.6-4.1-1.3-4.3-1-4.4-.8-4.5-.5-4.6-.2h-4.7c0,.1-4.7.6-4.7.6l-4.8.7-4.8,1.1-4.7,1.4-4.7,1.7-4.7,2-4.6,2.3-4.5,2.6-4.4,2.8-4.3,3.1-4.1,3.4-4,3.7-3.8,3.9-3.6,4.2-3.4,4.4-3.2,4.6-2.9,4.8-2.7,5-2.5,5.2-2.2,5.3-1.9,5.5-1.7,5.6-1.4,5.7-1.1,5.8-.8,5.9-.5,6-.2,6v6.1c.1,0,.5,6.1.5,6.1l.7,6.1,1,6.1,1.3,6.1,1.6,6,1.9,6,2.2,5.9,2.5,5.8,2.8,5.7,3.1,5.6,3.4,5.5,3.6,5.3,3.9,5.2,4.1,5,4.4,4.8,4.6,4.6,4.8,4.4,5,4.2,5.3,4,5.4,3.8,5.6,3.5,5.8,3.3,5.9,3,6.1,2.7,6.2,2.5,6.3,2.2,6.4,1.9,6.5,1.6,6.6,1.3,6.6,1,6.7.7,6.7.4h6.7c0,.1,6.7,0,6.7,0l6.7-.5,6.7-.8,6.6-1.1,6.6-1.4,6.5-1.7,6.4-2,6.3-2.3,6.2-2.5,6.1-2.8,5.9-3.1,5.7-3.3,5.6-3.6,5.4-3.8,5.2-4.1,5-4.3,4.8-4.5,4.5-4.7,4.3-4.9,4.1-5.1,3.8-5.2,3.5-5.4,3.3-5.5,3-5.6,2.7-5.8,2.4-5.9,2.1-5.9,1.8-6,1.5-6.1,1.2-6.1.9-6.1.6-6.1.3-6.1v-6.1s-.3-6-.3-6l-.6-6-.9-5.9-1.2-5.8-1.5-5.7-1.8-5.6-2-5.4-2.3-5.3-2.5-5.1-2.8-4.9-3-4.7-3.3-4.5-3.5-4.3-3.7-4.1-3.9-3.8-4-3.6-4.2-3.3-4.3-3-4.4-2.8-4.5-2.5-4.6-2.2-4.7-1.9-4.7-1.6-4.8-1.2-4.8-.9-4.8-.6-4.7-.3h-4.7s-4.6.3-4.6.3l-4.5.6-4.4.9-4.2,1.2-4.1,1.4-3.9,1.7-3.7,1.9-3.5,2.2-3.2,2.4-3,2.6-2.7,2.7-2.5,2.9-2.2,3-1.9,3.1-1.6,3.2-1.3,3.2-.9,3.3-.6,3.3-.3,3.3v3.2s.3,3.1.3,3.1l.6,3,.9,2.9,1.1,2.8,1.4,2.6,1.6,2.4,1.8,2.2,2,1.9,2.2,1.7,2.4,1.4,2.5,1.1,2.6.8,2.6.5,2.7.2h2.7c0,0,2.6-.4,2.6-.4l2.6-.7,2.5-1,2.3-1.2,2.2-1.5,2-1.7,1.8-2,1.6-2.2,1.3-2.3,1.1-2.5.8-2.6.5-2.7.2-2.7v-2.7c-.1,0-.5-2.7-.5-2.7l-.7-2.7-1-2.6-1.3-2.5-1.6-2.3-1.8-2.2-2-2-2.2-1.7-2.4-1.5-2.6-1.2-2.7-.9-2.8-.7-2.8-.4h-2.8c0,0-2.8.2-2.8.2l-2.8.5-2.7.8-2.6,1.1-2.4,1.4-2.2,1.6-2,1.9-1.8,2-1.5,2.2-1.3,2.4-1,2.5-.7,2.6-.4,2.6v2.6c0,0,.1,2.6.1,2.6l.5,2.5.8,2.4,1.1,2.3,1.3,2.1,1.6,1.9,1.8,1.7,2,1.5,2.1,1.2,2.3,1,2.4.7,2.4.4h2.4c0,0,2.4-.2,2.4-.2l2.4-.5,2.3-.8,2.1-1.1,2-1.4,1.8-1.6,1.6-1.8,1.3-2,1.1-2.1.8-2.3.5-2.3.2-2.4v-2.4c0,0-.5-2.4-.5-2.4l-.7-2.3-1-2.2-1.3-2.1-1.5-2-1.8-1.8-2-1.6-2.2-1.3-2.3-1.1-2.4-.8-2.5-.5-2.6-.2h-2.6c0,0-2.6.5-2.6.5l-2.6.7-2.5,1-2.4,1.3-2.2,1.5-2.1,1.8-1.8,2-1.6,2.2-1.4,2.4-1.1,2.5-.8,2.6-.5,2.7-.2,2.8v2.8c0,0,.4,2.8.4,2.8l.7,2.7,1,2.7,1.2,2.5,1.5,2.4,1.7,2.2,2,2,2.2,1.8,2.4,1.5,2.5,1.3,2.6,1,2.7.7,2.8.4h2.8c0,.1,2.8,0,2.8,0l2.7-.5,2.6-.8,2.5-1.1,2.3-1.3,2.2-1.6,2-1.8,1.7-2,1.5-2.2,1.2-2.3.9-2.4.7-2.5.4-2.6v-2.6c0,0-.2-2.6-.2-2.6l-.5-2.6-.8-2.5-1.1-2.4-1.4-2.3-1.7-2.2-1.9-2-2.2-1.8-2.4-1.6-2.6-1.4-2.8-1.1-2.9-.9-3-.6-3.1-.3h-3.2s-3.3.3-3.3.3l-3.3.6-3.3.9-3.3,1.2-3.2,1.5-3.1,1.8-3,2.1-2.9,2.4-2.7,2.7-2.6,2.9-2.4,3.2-2.2,3.4-1.9,3.6-1.7,3.8-1.5,4-1.2,4.2-.9,4.3-.6,4.4-.3,4.5v4.6s.2,4.7.2,4.7l.6,4.7.9,4.7,1.2,4.7,1.5,4.7,1.8,4.6,2.1,4.6,2.4,4.5,2.7,4.4,3,4.3,3.3,4.2,3.5,4,3.8,3.9,4,3.7,4.3,3.5,4.5,3.3,4.7,3.1,4.9,2.8,5.1,2.6,5.3,2.3,5.4,2.1,5.6,1.8,5.7,1.5,5.8,1.2,5.9,1,6,.7,6.1.4h6.1c0,0,6.1-.2,6.1-.2l6.2-.5,6.2-.8,6.1-1.2,6.1-1.5,6.1-1.8,6-2.1,5.9-2.3,5.8-2.6,5.7-2.9,5.6-3.2,5.5-3.5,5.3-3.7,5.1-4,5-4.2,4.8-4.5,4.6-4.7,4.4-4.9,4.1-5.1,3.9-5.3,3.7-5.5,3.4-5.7,3.2-5.8,2.9-6,2.6-6.1,2.3-6.2,2.1-6.3,1.8-6.4,1.5-6.5,1.2-6.6.9-6.6.6-6.6.3-6.7v-6.7s-.4-6.7-.4-6.7l-.6-6.6-.9-6.6-1.2-6.5-1.5-6.5-1.8-6.4-2.1-6.3-2.4-6.2-2.7-6.1-2.9-5.9-3.2-5.8-3.5-5.6-3.7-5.5-4-5.3-4.2-5.1-4.4-4.9-4.6-4.7-4.8-4.4-5-4.2-5.2-3.9-5.3-3.7-5.5-3.4-5.6-3.1-5.7-2.9-5.9-2.6-5.9-2.3-6-2-6.1-1.7-6.1-1.4-6.2-1.1-6.2-.8-6.2-.5-6.2-.2h-6.1c0,.1-6.1.6-6.1.6l-6,.7-5.9,1-5.8,1.3-5.7,1.6-5.6,1.9-5.4,2.1-5.3,2.4-5.1,2.7-4.9,2.9-4.7,3.1-4.5,3.3-4.2,3.5-4,3.7-3.7,3.9-3.5,4.1-3.2,4.2-2.9,4.3-2.6,4.5-2.3,4.6-2,4.6-1.7,4.7-1.4,4.7-1.1,4.7-.8,4.7-.5,4.7-.2,4.7v4.6c.1,0,.6,4.5.6,4.5l.7,4.4,1,4.3,1.3,4.1,1.6,4,1.8,3.8,2,3.6,2.3,3.3,2.5,3.1,2.6,2.9,2.8,2.6,3,2.3,3.1,2,3.2,1.7,3.2,1.4,3.3,1.1,3.3.8,3.3.5,3.3.2h3.2c0-.1,3.1-.6,3.1-.6l3-.7,2.9-1,2.7-1.3,2.5-1.5,2.3-1.7,2.1-1.9,1.8-2.1,1.6-2.3,1.3-2.4,1-2.5.7-2.6.4-2.6v-2.6c0,0-.1-2.6-.1-2.6l-.5-2.6-.8-2.5-1.1-2.4-1.4-2.3-1.6-2.1-1.8-1.9-2.1-1.7-2.3-1.5-2.4-1.2-2.6-.9-2.7-.6-2.7-.3h-2.8s-2.8.2-2.8.2l-2.7.6-2.7.8-2.6,1.1-2.4,1.4-2.3,1.7-2.1,1.9-1.9,2.1-1.6,2.3-1.4,2.5-1.1,2.6-.8,2.7-.5,2.8-.2,2.8v2.8c0,0,.5,2.8.5,2.8l.7,2.7,1,2.6,1.2,2.5,1.5,2.3,1.7,2.1,2,1.9,2.1,1.7,2.3,1.4,2.4,1.1,2.5.9,2.6.6,2.6.3h2.6c0,0,2.6-.4,2.6-.4l2.5-.6,2.4-.9,2.2-1.2,2.1-1.4,1.9-1.7,1.6-1.9,1.4-2,1.1-2.2.8-2.3.5-2.4.2-2.4v-2.4c0,0-.4-2.4-.4-2.4l-.7-2.3-.9-2.2-1.2-2.1-1.5-1.9-1.7-1.7-1.9-1.5-2.1-1.2-2.2-.9-2.3-.7-2.4-.4h-2.4c0,0-2.4.2-2.4.2l-2.4.5-2.3.8-2.2,1.1-2.1,1.4-1.9,1.6-1.7,1.8-1.5,2-1.2,2.2-.9,2.4-.7,2.5-.4,2.5v2.6c0,0,.2,2.6.2,2.6l.5,2.6.8,2.5,1.1,2.4,1.4,2.3,1.7,2.1,1.9,2,2.1,1.7,2.3,1.5,2.5,1.3,2.6,1,2.7.7,2.8.4h2.8c0,.1,2.8,0,2.8,0l2.8-.5,2.7-.8,2.6-1.1,2.5-1.4,2.3-1.6,2.1-1.8,1.9-2.1,1.7-2.2,1.4-2.4,1.2-2.5.9-2.6.6-2.7.3-2.7v-2.7s-.4-2.7-.4-2.7l-.6-2.6-.9-2.5-1.2-2.4-1.4-2.3-1.7-2.1-1.9-1.9-2.1-1.6-2.3-1.4-2.4-1.1-2.5-.8-2.6-.5-2.6-.2h-2.7c0,0-2.6.5-2.6.5l-2.6.7-2.5,1-2.4,1.3-2.3,1.5-2.1,1.8-1.9,2-1.7,2.3-1.5,2.5-1.3,2.6-1,2.8-.7,2.9-.5,3.1-.2,3.1v3.2c.1,0,.6,3.2.6,3.2l.8,3.3,1.1,3.2,1.4,3.2,1.7,3.1,2,3.1,2.3,2.9,2.5,2.8,2.8,2.7,3.1,2.5,3.3,2.3,3.5,2.1,3.7,1.8,3.9,1.6,4.1,1.3,4.3,1.1,4.4.8,4.5.5,4.6.2h4.7c0-.1,4.7-.5,4.7-.5l4.7-.7,4.8-1,4.7-1.3,4.7-1.6,4.7-1.9,4.6-2.2,4.5-2.5,4.4-2.8,4.3-3.1,4.1-3.4,4-3.6,3.8-3.9,3.6-4.1,3.4-4.4,3.2-4.6,3-4.8,2.7-5,2.5-5.2,2.2-5.3,2-5.5,1.7-5.6,1.4-5.7,1.1-5.8.8-5.9.5-6,.2-6v-6.1c0,0-.5-6.1-.5-6.1l-.7-6.1-1-6.1-1.3-6.1-1.6-6-1.9-6-2.2-5.9-2.5-5.8-2.8-5.7-3-5.6-3.3-5.5-3.6-5.4-3.9-5.2-4.1-5-4.4-4.8-4.6-4.7-4.8-4.5-5-4.2-5.2-4-5.4-3.8-5.6-3.5-5.8-3.3-5.9-3-6.1-2.8-6.2-2.5-6.3-2.2-6.4-1.9-6.5-1.6-6.6-1.3-6.6-1-6.7-.7-6.7-.4h-6.7c0-.1-6.7,0-6.7,0l-6.7.5-6.7.8-6.6,1.1-6.6,1.4-6.5,1.7-6.4,1.9-6.3,2.2-6.2,2.5-6.1,2.8-5.9,3.1-5.8,3.3-5.6,3.6-5.4,3.8-5.2,4-5,4.3-4.8,4.5-4.6,4.7-4.3,4.9-4.1,5.1-3.8,5.2-3.6,5.4-3.3,5.5-3,5.6-2.7,5.8-2.5,5.8-2.2,5.9-1.9,6-1.6,6.1-1.3,6.1-1,6.1-.6,6.1-.3,6.1v6.1s.2,6,.2,6l.6,6,.9,5.9,1.2,5.8,1.4,5.7,1.7,5.6,2,5.5,2.3,5.3,2.5,5.1,2.8,5,3,4.8,3.2,4.6,3.5,4.3,3.7,4.1,3.8,3.9,4,3.6,4.2,3.3,4.3,3.1,4.4,2.8,4.5,2.5,4.6,2.2,4.7,1.9,4.7,1.6,4.8,1.3,4.8,1,4.8.7,4.7.3h4.7s4.6-.2,4.6-.2l4.5-.6,4.4-.9,4.2-1.1,4.1-1.4,3.9-1.7,3.7-1.9,3.5-2.1,3.3-2.3,3-2.5,2.8-2.7,2.5-2.9,2.2-3,1.9-3.1,1.6-3.2,1.3-3.2,1-3.3.7-3.3.3-3.3v-3.2s-.2-3.1-.2-3.1l-.6-3-.8-2.9-1.1-2.8-1.4-2.6-1.6-2.4-1.8-2.2-2-1.9-2.2-1.7-2.3-1.4-2.5-1.1-2.6-.9-2.6-.6-2.7-.3h-2.7s-2.6.4-2.6.4l-2.6.6-2.5.9-2.4,1.2-2.2,1.5-2,1.7-1.8,1.9-1.6,2.1-1.3,2.3-1.1,2.5-.8,2.6-.5,2.7-.2,2.7v2.7c0,0,.5,2.7.5,2.7l.7,2.7,1,2.6,1.3,2.5,1.5,2.3,1.8,2.2,2,2,2.2,1.8,2.4,1.5,2.5,1.3,2.7,1,2.8.7,2.8.4h2.8c0,0,2.8-.1,2.8-.1l2.8-.5,2.7-.8,2.6-1.1,2.4-1.4,2.2-1.6,2-1.8,1.8-2,1.6-2.2,1.3-2.4,1-2.5.7-2.5.4-2.6v-2.6c.1,0,0-2.6,0-2.6l-.5-2.5-.8-2.4-1.1-2.3-1.3-2.2-1.6-2-1.8-1.8-2-1.5-2.1-1.3-2.3-1-2.4-.7-2.4-.4h-2.4c0,0-2.4.1-2.4.1l-2.4.5-2.3.8-2.2,1.1-2,1.3-1.8,1.6-1.6,1.8-1.4,2-1.1,2.1-.8,2.2-.5,2.3-.2,2.4v2.4c0,0,.4,2.4.4,2.4l.7,2.3,1,2.2,1.2,2.1,1.5,2,1.7,1.8,2,1.6,2.1,1.3,2.3,1.1,2.4.8,2.5.5,2.6.2h2.6c0,0,2.6-.4,2.6-.4l2.6-.7,2.5-1,2.4-1.2,2.2-1.5,2.1-1.8,1.9-2,1.6-2.2,1.4-2.4,1.1-2.5.9-2.6.6-2.7.3-2.8v-2.8s-.4-2.8-.4-2.8l-.6-2.7-.9-2.7-1.2-2.5-1.5-2.4-1.7-2.2-2-2-2.2-1.8-2.3-1.6-2.5-1.3-2.6-1-2.7-.7-2.8-.4h-2.8c0-.1-2.8,0-2.8,0l-2.7.5-2.6.8-2.5,1-2.4,1.3-2.2,1.6-2,1.8-1.8,2-1.5,2.2-1.2,2.3-1,2.4-.7,2.5-.4,2.6v2.6c0,0,.1,2.6.1,2.6l.5,2.6.8,2.5,1.1,2.5,1.4,2.3,1.7,2.2,1.9,2,2.1,1.8,2.4,1.6,2.6,1.4,2.7,1.1,2.9.9,3,.6,3.1.3h3.2s3.3-.3,3.3-.3l3.3-.6,3.3-.9,3.3-1.2,3.2-1.5,3.1-1.8,3-2.1,2.9-2.4,2.8-2.7,2.6-2.9,2.4-3.2,2.2-3.4,2-3.6,1.7-3.8,1.5-4,1.2-4.1.9-4.3.7-4.4.4-4.5v-4.6c0,0-.2-4.6-.2-4.6l-.5-4.7-.9-4.7-1.2-4.7-1.5-4.7-1.8-4.7-2.1-4.6-2.4-4.5-2.7-4.4-3-4.3-3.2-4.2-3.5-4-3.8-3.9-4-3.7-4.3-3.5-4.5-3.3-4.7-3.1-4.9-2.9-5.1-2.6-5.3-2.4-5.4-2.1-5.6-1.8-5.7-1.6-5.8-1.3-5.9-1-6-.7-6.1-.4h-6.1c0,0-6.1.1-6.1.1l-6.2.5-6.2.8-6.1,1.1-6.1,1.4-6.1,1.7-6,2-5.9,2.3-5.8,2.6-5.7,2.9-5.6,3.2-5.5,3.4-5.3,3.7-5.2,4-5,4.2-4.8,4.4-4.6,4.7-4.4,4.9-4.2,5.1-3.9,5.3-3.7,5.5-3.4,5.6-3.2,5.8-2.9,6-2.6,6.1-2.4,6.2-2.1,6.3-1.8,6.4-1.5,6.5-1.2,6.6-.9,6.6-.6,6.6-.3,6.7v6.7s.3,6.7.3,6.7l.6,6.6.9,6.6,1.2,6.6,1.5,6.5,1.8,6.4,2.1,6.3,2.4,6.2,2.6,6.1,2.9,6,3.2,5.8,3.4,5.7,3.7,5.5,3.9,5.3,4.2,5.1,4.4,4.9,4.6,4.7,4.8,4.4,5,4.2,5.2,4,5.3,3.7,5.5,3.4,5.6,3.2,5.7,2.9,5.8,2.6,5.9,2.3,6,2,6.1,1.7,6.1,1.4,6.2,1.1,6.2.8,6.2.5,6.2.2h6.1c0-.1,6.1-.5,6.1-.5l6-.7,5.9-1,5.8-1.3,5.7-1.6,5.6-1.8,5.4-2.1,5.3-2.4,5.1-2.6,4.9-2.9,4.7-3.1,4.5-3.3,4.3-3.5,4-3.7,3.8-3.9,3.5-4.1,3.2-4.2,2.9-4.3,2.7-4.5,2.4-4.5,2.1-4.6,1.7-4.7,1.4-4.7,1.1-4.7.8-4.7.5-4.7.2-4.7v-4.6c-.1,0-.5-4.5-.5-4.5l-.7-4.4-1-4.3-1.3-4.1-1.5-4-1.8-3.8-2-3.6-2.2-3.4-2.4-3.1-2.6-2.9-2.8-2.6-2.9-2.3-3.1-2.1-3.2-1.8-3.2-1.5-3.3-1.1-3.3-.8-3.3-.5-3.3-.2h-3.2c0,0-3.1.5-3.1.5l-3,.7-2.9,1-2.7,1.2-2.5,1.5-2.3,1.7-2.1,1.9-1.8,2.1-1.6,2.3-1.3,2.4-1,2.5-.7,2.6-.4,2.6v2.6c-.1,0,0,2.6,0,2.6l.5,2.6.8,2.5,1.1,2.4,1.3,2.3,1.6,2.1,1.8,1.9,2,1.7,2.2,1.5,2.4,1.2,2.5,1,2.6.7,2.7.4h2.8c0,0,2.8-.1,2.8-.1l2.7-.5,2.7-.8,2.6-1.1,2.4-1.4,2.3-1.6,2.1-1.9,1.9-2.1,1.7-2.3,1.4-2.5,1.1-2.6.8-2.7.5-2.8.2-2.8v-2.8c0,0-.4-2.8-.4-2.8l-.7-2.7-.9-2.6-1.2-2.5-1.5-2.3-1.7-2.1-1.9-1.9-2.1-1.7-2.3-1.4-2.4-1.2-2.5-.9-2.6-.6-2.6-.3h-2.6s-2.6.4-2.6.4l-2.5.6-2.4.9-2.3,1.2-2.1,1.4-1.9,1.7-1.7,1.9-1.4,2-1.1,2.2-.9,2.3-.6,2.4-.3,2.4v2.4s.4,2.4.4,2.4l.6,2.3.9,2.2,1.2,2.1,1.4,1.9,1.7,1.7,1.9,1.5,2.1,1.2,2.2,1,2.3.7,2.4.4h2.4c0,0,2.4-.1,2.4-.1l2.4-.5,2.3-.8,2.2-1.1,2.1-1.4,1.9-1.6,1.7-1.8,1.5-2,1.2-2.2,1-2.3.7-2.5.4-2.5v-2.6c0,0-.1-2.6-.1-2.6l-.5-2.6-.8-2.5-1.1-2.4-1.4-2.3-1.6-2.2-1.9-2-2.1-1.8-2.3-1.5-2.5-1.3-2.6-1-2.7-.7-2.8-.4h-2.8c0-.1-2.8,0-2.8,0l-2.8.5-2.7.8-2.6,1.1-2.5,1.3-2.3,1.6-2.2,1.8-1.9,2-1.7,2.2-1.5,2.4-1.2,2.5-.9,2.6-.6,2.7-.3,2.7v2.7s.3,2.7.3,2.7l.6,2.6.9,2.6,1.2,2.4,1.4,2.3,1.7,2.1,1.9,1.9,2.1,1.6,2.3,1.4,2.4,1.1,2.5.8,2.6.6,2.6.3h2.7c0,0,2.6-.4,2.6-.4l2.6-.7,2.5-.9,2.4-1.2,2.3-1.5,2.1-1.8,2-2,1.8-2.2,1.5-2.4,1.3-2.6,1-2.8.8-2.9.5-3.1.2-3.1v-3.2c-.1,0-.5-3.2-.5-3.2l-.7-3.3-1-3.2-1.3-3.2-1.6-3.2-1.9-3.1-2.2-3-2.5-2.8-2.8-2.7-3-2.5-3.3-2.3-3.5-2.1-3.7-1.9-3.9-1.6-4.1-1.4-4.2-1.1-4.4-.8-4.5-.5-4.6-.2h-4.7c0,0-4.7.4-4.7.4l-4.7.7-4.8,1-4.7,1.3-4.7,1.6-4.7,1.9-4.6,2.2-4.5,2.5-4.4,2.8-4.3,3.1-4.1,3.3-4,3.6-3.8,3.9-3.6,4.1-3.4,4.3-3.2,4.6-3,4.8-2.8,5-2.5,5.1-2.2,5.3-2,5.4-1.7,5.6-1.4,5.7-1.1,5.8-.8,5.9-.6,6-.3,6v6.1s.4,6.1.4,6.1l.7,6.1,1,6.1,1.3,6.1,1.6,6,1.9,6,2.2,5.9,2.5,5.8,2.7,5.7,3,5.6,3.3,5.5,3.6,5.4,3.8,5.2,4.1,5,4.3,4.9,4.6,4.7,4.8,4.5,5,4.3,5.2,4,5.4,3.8,5.6,3.6,5.8,3.3,5.9,3.1,6.1,2.8,6.2,2.5,6.3,2.2,6.4,1.9,6.5,1.7,6.6,1.4,6.6,1.1,6.7.8,6.7.5,6.7.2h6.7c0-.1,6.7-.6,6.7-.6l6.7-.7,6.6-1,6.6-1.3,6.5-1.6,6.4-1.9,6.3-2.2,6.2-2.5,6.1-2.8,5.9-3,5.8-3.3,5.6-3.5,5.4-3.8,5.2-4,5-4.2,4.8-4.5,4.6-4.7,4.4-4.9,4.1-5,3.9-5.2,3.6-5.4,3.3-5.5,3-5.6,2.8-5.7,2.5-5.8,2.2-5.9,1.9-6,1.6-6,1.3-6.1,1-6.1.7-6.1.4-6.1v-6.1c0,0-.2-6-.2-6l-.5-6-.8-5.9-1.1-5.8-1.4-5.7-1.7-5.6-2-5.5-2.2-5.3-2.5-5.2-2.8-5-3-4.8-3.2-4.6-3.4-4.4-3.6-4.1-3.8-3.9-4-3.6-4.2-3.4-4.3-3.1-4.4-2.8-4.5-2.5-4.6-2.2-4.7-1.9-4.7-1.6-4.8-1.3-4.8-1-4.8-.7-4.7-.4h-4.7c0,0-4.6.2-4.6.2l-4.5.5-4.4.8-4.3,1.1-4.1,1.4-3.9,1.6-3.7,1.9-3.5,2.1-3.3,2.3-3,2.5-2.8,2.7-2.5,2.9-2.2,3-1.9,3.1-1.6,3.2-1.3,3.2-1,3.3-.7,3.3-.4,3.3v3.2c0,0,.2,3.1.2,3.1l.5,3.1.8,2.9,1.1,2.8,1.3,2.6,1.6,2.4,1.8,2.2,2,2,2.2,1.7,2.3,1.5,2.5,1.2,2.5.9,2.6.6,2.7.3h2.7s2.6-.3,2.6-.3l2.6-.6,2.5-.9,2.4-1.2,2.2-1.4,2-1.7,1.8-1.9,1.6-2.1,1.4-2.3,1.1-2.5.8-2.6.5-2.7.2-2.7v-2.7c0,0-.4-2.7-.4-2.7l-.7-2.7-1-2.6-1.2-2.5-1.5-2.4-1.8-2.2-2-2-2.2-1.8-2.4-1.5-2.5-1.3-2.7-1-2.7-.7-2.8-.4h-2.8c0-.1-2.8,0-2.8,0l-2.8.5-2.7.8-2.6,1.1-2.4,1.3-2.3,1.6-2.1,1.8-1.8,2-1.6,2.2-1.3,2.3-1,2.5-.7,2.5-.4,2.6v2.6c-.1,0,0,2.6,0,2.6l.5,2.5.8,2.4,1,2.3,1.3,2.2,1.5,2,1.8,1.8,2,1.5,2.1,1.3,2.2,1,2.3.7,2.4.4h2.4c0,.1,2.4,0,2.4,0l2.4-.5,2.3-.8,2.2-1,2-1.3,1.8-1.5,1.6-1.8,1.4-2,1.1-2.1.8-2.2.6-2.3.3-2.4v-2.4s-.4-2.4-.4-2.4l-.6-2.3-.9-2.3-1.2-2.1-1.5-2-1.7-1.8-1.9-1.6-2.1-1.4-2.3-1.1-2.4-.8-2.5-.6-2.6-.3h-2.6s-2.6.4-2.6.4l-2.6.6-2.5.9-2.4,1.2-2.3,1.5-2.1,1.7-1.9,2-1.7,2.2-1.4,2.4-1.2,2.5-.9,2.6-.6,2.7-.3,2.8v2.8s.3,2.8.3,2.8l.6,2.7.9,2.7,1.2,2.6,1.5,2.4,1.7,2.3,1.9,2.1,2.1,1.8,2.3,1.6,2.5,1.3,2.6,1.1,2.7.8,2.7.5,2.8.2h2.8c0-.1,2.7-.6,2.7-.6l2.6-.7,2.5-1,2.4-1.3,2.2-1.5,2-1.8,1.8-2,1.5-2.1,1.3-2.3,1-2.4.7-2.5.4-2.6v-2.6c.1,0,0-2.6,0-2.6l-.5-2.6-.8-2.5-1.1-2.5-1.4-2.3-1.6-2.2-1.9-2-2.1-1.9-2.3-1.7-2.5-1.4-2.7-1.2-2.9-.9-3-.6-3.1-.3h-3.2c0,0-3.3.2-3.3.2l-3.3.6-3.3.9-3.3,1.2-3.2,1.5-3.1,1.8-3,2.1-2.9,2.4-2.8,2.6-2.6,2.9-2.4,3.1-2.2,3.4-2,3.6-1.8,3.8-1.5,4-1.2,4.1-1,4.3-.7,4.4-.4,4.5v4.6c0,0,.1,4.6.1,4.6l.5,4.7.8,4.7,1.1,4.7,1.4,4.7,1.7,4.7,2,4.6,2.3,4.5,2.6,4.4,2.9,4.3,3.2,4.2,3.5,4.1,3.7,3.9,4,3.7,4.2,3.5,4.5,3.3,4.7,3.1,4.9,2.9,5.1,2.6,5.3,2.4,5.4,2.1,5.6,1.9,5.7,1.6,5.8,1.3,5.9,1,6,.7,6.1.4h6.1c0,.1,6.1,0,6.1,0l6.2-.5,6.2-.8,6.2-1.1,6.1-1.4,6.1-1.7,6-2,5.9-2.3,5.8-2.6,5.7-2.9,5.6-3.1,5.5-3.4,5.3-3.7,5.2-3.9,5-4.2,4.8-4.4,4.6-4.6,4.4-4.9,4.2-5.1,3.9-5.3,3.7-5.5,3.5-5.6,3.2-5.8,2.9-5.9,2.7-6.1,2.4-6.2,2.1-6.3,1.8-6.4,1.5-6.5,1.2-6.5.9-6.6.6-6.6.3-6.7v-6.7s-.2-6.7-.2-6.7l-.6-6.6-.9-6.6-1.2-6.6-1.5-6.5-1.8-6.4-2.1-6.3-2.3-6.2-2.6-6.1-2.9-6-3.2-5.8-3.4-5.7-3.7-5.5-3.9-5.3-4.1-5.1-4.4-4.9-4.6-4.7-4.8-4.5-5-4.2-5.1-4-5.3-3.7-5.5-3.5-5.6-3.2-5.7-2.9-5.8-2.6-5.9-2.3-6-2.1-6.1-1.8-6.1-1.5-6.2-1.1-6.2-.8-6.2-.5-6.2-.2h-6.1c0,0-6.1.4-6.1.4l-6,.7-5.9,1-5.8,1.3-5.7,1.5-5.6,1.8-5.5,2.1-5.3,2.4-5.1,2.6-4.9,2.9-4.7,3.1-4.5,3.3-4.3,3.5-4,3.7-3.8,3.9-3.5,4-3.3,4.2-3,4.3-2.7,4.4-2.4,4.5-2.1,4.6-1.8,4.7-1.5,4.7-1.2,4.7-.9,4.7-.5,4.7-.2,4.7v4.6c0,0,.4,4.5.4,4.5l.7,4.4,1,4.3,1.2,4.2,1.5,4,1.8,3.8,2,3.6,2.2,3.4,2.4,3.2,2.6,2.9,2.8,2.6,2.9,2.4,3.1,2.1,3.2,1.8,3.2,1.5,3.3,1.2,3.3.9,3.3.5,3.3.2h3.2c0,0,3.1-.4,3.1-.4l3-.7,2.9-.9,2.7-1.2,2.5-1.5,2.3-1.7,2.1-1.9,1.9-2.1,1.6-2.2,1.3-2.4,1-2.5.8-2.6.5-2.6.2-2.6-.2-2.6-.5-2.6-.7-2.5-1-2.4-1.3-2.3-1.6-2.1-1.8-1.9-2-1.7-2.2-1.5-2.4-1.3-2.5-1-2.6-.7-2.7-.4h-2.8c0-.1-2.8,0-2.8,0l-2.7.5-2.7.8-2.6,1.1-2.5,1.4-2.3,1.6-2.1,1.9-1.9,2.1-1.7,2.3-1.4,2.4-1.2,2.6-.9,2.7-.6,2.8-.3,2.8v2.8s.4,2.8.4,2.8l.6,2.7.9,2.6,1.2,2.5,1.5,2.3,1.7,2.2,1.9,1.9,2.1,1.7,2.3,1.5,2.4,1.2,2.5.9,2.6.6,2.6.3h2.6s2.6-.3,2.6-.3l2.5-.6,2.4-.9,2.3-1.2,2.1-1.4,1.9-1.6,1.7-1.8,1.4-2,1.2-2.2.9-2.3.6-2.4.3-2.4v-2.4s-.3-2.4-.3-2.4l-.6-2.3-.9-2.2-1.2-2.1-1.4-1.9-1.7-1.7-1.9-1.5-2-1.3-2.2-1-2.3-.7-2.4-.4h-2.4c0-.1-2.4,0-2.4,0l-2.4.5-2.3.8-2.2,1.1-2.1,1.3-1.9,1.6-1.7,1.8-1.5,2-1.3,2.2-1,2.3-.7,2.5-.4,2.5v2.6c-.1,0,0,2.6,0,2.6l.5,2.6.8,2.5,1.1,2.4,1.3,2.3,1.6,2.2,1.9,2,2.1,1.8,2.3,1.6,2.4,1.3,2.6,1,2.7.8,2.8.5,2.8.2h2.8c0-.1,2.8-.6,2.8-.6l2.7-.7,2.6-1,2.5-1.3,2.4-1.6,2.2-1.8,2-2,1.7-2.2,1.5-2.4,1.2-2.5.9-2.6.6-2.7.3-2.7v-2.7s-.2-2.7-.2-2.7l-.6-2.7-.9-2.6-1.1-2.4-1.4-2.3-1.6-2.1-1.9-1.9-2.1-1.7-2.2-1.4-2.4-1.2-2.5-.9-2.6-.6-2.6-.3h-2.7s-2.6.3-2.6.3l-2.6.6-2.5.9-2.4,1.2-2.3,1.5-2.2,1.7-2,2-1.8,2.2-1.6,2.4-1.3,2.6-1.1,2.8-.8,2.9-.5,3-.2,3.1v3.2c0,0,.5,3.2.5,3.2l.7,3.3,1,3.3,1.3,3.2,1.6,3.2,1.9,3.1,2.2,3,2.5,2.8,2.8,2.7,3,2.5,3.3,2.3,3.5,2.1,3.7,1.9,3.9,1.6,4.1,1.4,4.2,1.1,4.4.8,4.5.6,4.6.3h4.7s4.7-.4,4.7-.4l4.7-.7,4.8-1,4.7-1.3,4.7-1.6,4.7-1.9,4.6-2.2,4.5-2.5,4.4-2.8,4.3-3,4.2-3.3,4-3.6,3.8-3.8,3.6-4.1,3.4-4.3,3.2-4.5,3-4.7,2.8-4.9,2.5-5.1,2.3-5.3,2-5.4,1.7-5.6,1.5-5.7,1.2-5.8.9-5.9.6-6,.3-6v-6.1s-.3-6.1-.3-6.1l-.6-6.1-.9-6.1-1.2-6.1-1.5-6-1.8-6-2.1-5.9-2.4-5.8-2.7-5.7-3-5.6-3.3-5.5-3.5-5.4-3.8-5.2-4.1-5.1-4.3-4.9-4.5-4.7-4.8-4.5-5-4.3-5.2-4.1-5.4-3.8-5.6-3.6-5.7-3.3-5.9-3.1-6-2.8-6.2-2.5-6.3-2.3-6.4-2-6.5-1.7-6.6-1.4-6.6-1.1-6.7-.8-6.7-.5-6.7-.2h-6.7c0,.1-6.7.5-6.7.5l-6.7.7-6.7,1-6.6,1.3-6.5,1.6-6.4,1.9-6.3,2.2-6.2,2.5-6.1,2.7-6,3-5.8,3.3-5.6,3.5-5.4,3.8-5.3,4-5.1,4.2-4.8,4.4-4.6,4.6-4.4,4.8-4.1,5-3.9,5.2-3.6,5.3-3.4,5.5-3.1,5.6-2.8,5.7-2.5,5.8-2.2,5.9-1.9,6-1.6,6-1.3,6.1-1,6.1-.7,6.1-.4,6.1v6.1c0,0,.1,6,.1,6l.5,6,.8,5.9,1.1,5.8,1.4,5.7,1.7,5.6,1.9,5.5,2.2,5.3,2.5,5.2,2.7,5,3,4.8,3.2,4.6,3.4,4.4,3.6,4.1,3.8,3.9,4,3.7,4.1,3.4,4.3,3.1,4.4,2.8,4.5,2.5,4.6,2.2,4.7,1.9,4.7,1.6,4.8,1.3,4.8,1,4.8.7,4.7.4h4.7c0,0,4.6-.1,4.6-.1l4.5-.5,4.4-.8,4.3-1.1,4.1-1.4,3.9-1.6,3.7-1.9,3.5-2.1,3.3-2.3,3.1-2.5,2.8-2.7,2.5-2.8,2.2-3,2-3.1,1.7-3.2,1.3-3.2,1-3.3.7-3.3.4-3.3v-3.2c0,0-.1-3.2-.1-3.2l-.5-3.1-.8-2.9-1.1-2.8-1.3-2.6-1.6-2.4-1.8-2.2-2-2-2.2-1.7-2.3-1.5-2.4-1.2-2.5-.9-2.6-.6-2.7-.3h-2.7s-2.6.3-2.6.3l-2.6.6-2.5.9-2.4,1.2-2.2,1.4-2.1,1.7-1.9,1.9-1.6,2.1-1.4,2.3-1.1,2.4-.9,2.6-.6,2.7-.3,2.7v2.7s.4,2.7.4,2.7l.6,2.7.9,2.6,1.2,2.5,1.5,2.4,1.7,2.2,2,2,2.2,1.8,2.4,1.6,2.5,1.3,2.6,1,2.7.7,2.8.4h2.8c0,.1,2.8,0,2.8,0l2.8-.5,2.7-.8,2.6-1,2.4-1.3,2.3-1.6,2.1-1.8,1.9-2,1.6-2.2,1.3-2.3,1.1-2.4.8-2.5.5-2.6.2-2.6v-2.6c-.1,0-.6-2.5-.6-2.5l-.7-2.5-1-2.3-1.3-2.2-1.5-2-1.7-1.8-1.9-1.6-2.1-1.3-2.2-1-2.3-.8-2.4-.5-2.4-.2h-2.4c0,.1-2.4.6-2.4.6l-2.3.7-2.2,1-2,1.3-1.9,1.5-1.6,1.7-1.4,1.9-1.2,2.1-.9,2.2-.6,2.3-.3,2.4v2.4s.3,2.4.3,2.4l.6,2.4.9,2.3,1.2,2.2,1.4,2,1.7,1.8,1.9,1.6,2.1,1.4,2.3,1.1,2.4.9,2.5.6,2.6.3h2.6s2.6-.3,2.6-.3l2.6-.6,2.5-.9,2.4-1.2,2.3-1.5,2.1-1.7,1.9-1.9,1.7-2.2,1.4-2.3,1.2-2.5.9-2.6.6-2.7.3-2.8v-2.8s-.3-2.8-.3-2.8l-.6-2.8-.9-2.7-1.2-2.6-1.4-2.4-1.7-2.3-1.9-2.1-2.1-1.9-2.3-1.6-2.5-1.4-2.6-1.1-2.7-.8-2.7-.5-2.8-.2h-2.8c0,.1-2.7.5-2.7.5l-2.6.7-2.5,1-2.4,1.3-2.2,1.5-2,1.7-1.8,1.9-1.6,2.1-1.3,2.3-1,2.4-.7,2.5-.4,2.6v2.6c-.1,0,0,2.6,0,2.6l.5,2.6.8,2.6,1,2.5,1.3,2.4,1.6,2.2,1.9,2.1,2.1,1.9,2.3,1.7,2.5,1.4,2.7,1.2,2.9.9,3,.7,3.1.4h3.2c0,0,3.3-.1,3.3-.1l3.3-.5,3.3-.8,3.3-1.1,3.2-1.4,3.1-1.7,3-2,2.9-2.3,2.8-2.6,2.6-2.9,2.4-3.1,2.2-3.3,2-3.6,1.8-3.8,1.5-3.9,1.3-4.1,1-4.3.7-4.4.4-4.5v-4.6c.1,0,0-4.6,0-4.6l-.5-4.7-.8-4.7-1.1-4.7-1.4-4.7-1.7-4.7-2-4.6-2.3-4.5-2.6-4.4-2.9-4.3-3.2-4.2-3.5-4.1-3.7-3.9-4-3.7-4.2-3.5-4.4-3.3-4.7-3.1-4.9-2.9-5.1-2.7-5.2-2.4-5.4-2.2-5.5-1.9-5.7-1.6-5.8-1.3-5.9-1-6-.7-6.1-.4h-6.1c0-.1-6.1,0-6.1,0l-6.2.5-6.2.8-6.2,1.1-6.1,1.4-6.1,1.7-6,2-5.9,2.3-5.9,2.6-5.8,2.8-5.6,3.1-5.5,3.4-5.3,3.7-5.2,3.9-5,4.2-4.8,4.4-4.6,4.6-4.4,4.8-4.2,5.1-4,5.3-3.7,5.4-3.5,5.6-3.2,5.8-3,5.9-2.7,6.1-2.4,6.2-2.1,6.3-1.8,6.4-1.6,6.5-1.3,6.5-1,6.6-.7,6.6-.4,6.7v6.7c0,0,.2,6.7.2,6.7l.5,6.6.8,6.6,1.1,6.6,1.4,6.5,1.7,6.4,2,6.3,2.3,6.2,2.6,6.1,2.9,6,3.1,5.8,3.4,5.7,3.6,5.5,3.9,5.3,4.1,5.1,4.3,4.9,4.6,4.7,4.8,4.5,4.9,4.3,5.1,4,5.3,3.8,5.4,3.5,5.6,3.2,5.7,2.9,5.8,2.7,5.9,2.4,6,2.1,6.1,1.8,6.1,1.5,6.2,1.2,6.2.9,6.2.6,6.2.3h6.1s6.1-.4,6.1-.4l6-.6,5.9-.9,5.8-1.2,5.7-1.5,5.6-1.8,5.5-2.1,5.3-2.3,5.1-2.6,4.9-2.8,4.7-3.1,4.5-3.3,4.3-3.5,4.1-3.7,3.8-3.9,3.5-4,3.3-4.2,3-4.3,2.7-4.4,2.4-4.5,2.1-4.6,1.8-4.7,1.5-4.7,1.2-4.7.9-4.7.6-4.7.3-4.7v-4.6s-.4-4.5-.4-4.5l-.6-4.4-.9-4.3-1.2-4.2-1.5-4-1.7-3.8-2-3.6-2.2-3.4-2.4-3.2-2.6-2.9-2.8-2.7-2.9-2.4-3-2.1-3.2-1.8-3.2-1.5-3.3-1.2-3.3-.9-3.3-.6-3.3-.3h-3.2s-3.1.4-3.1.4l-3,.6-2.9.9-2.7,1.2-2.6,1.4-2.4,1.7-2.1,1.9-1.9,2.1-1.6,2.2-1.4,2.4-1.1,2.5-.8,2.6-.5,2.6-.2,2.6v2.6c.1,0,.5,2.6.5,2.6l.7,2.5,1,2.4,1.3,2.3,1.5,2.1,1.8,2,2,1.8,2.2,1.5,2.4,1.3,2.5,1,2.6.7,2.7.4h2.8c0,.1,2.8,0,2.8,0l2.7-.5,2.7-.8,2.6-1.1,2.5-1.3,2.3-1.6,2.1-1.8,1.9-2.1,1.7-2.3,1.5-2.4,1.2-2.6.9-2.7.6-2.7.3-2.8v-2.8s-.3-2.8-.3-2.8l-.6-2.7-.9-2.6-1.2-2.5-1.4-2.4-1.7-2.2-1.9-2-2.1-1.7-2.3-1.5-2.4-1.2-2.5-.9-2.6-.6-2.6-.3h-2.6s-2.6.2-2.6.2l-2.5.6-2.4.9-2.3,1.1-2.1,1.4-1.9,1.6-1.7,1.8-1.5,2-1.2,2.2-.9,2.3-.6,2.4-.3,2.4v2.4s.3,2.4.3,2.4l.6,2.3.9,2.2,1.1,2.1,1.4,1.9,1.6,1.8,1.8,1.5,2,1.3,2.2,1,2.3.7,2.4.5,2.4.2h2.4c0-.1,2.4-.6,2.4-.6l2.3-.7,2.2-1,2.1-1.3,1.9-1.6,1.7-1.8,1.5-2,1.3-2.2,1-2.3.7-2.4.5-2.5.2-2.6v-2.6c-.1,0-.6-2.6-.6-2.6l-.7-2.5-1-2.4-1.3-2.3-1.6-2.2-1.8-2-2.1-1.8-2.3-1.6-2.4-1.3-2.6-1.1-2.7-.8-2.8-.5-2.8-.2h-2.8c0,.1-2.8.5-2.8.5l-2.7.7-2.7,1-2.5,1.3-2.4,1.5-2.2,1.8-2,2-1.8,2.2-1.5,2.4-1.2,2.5-1,2.6-.7,2.7-.4,2.7v2.7c0,0,.2,2.7.2,2.7l.5,2.7.8,2.6,1.1,2.5,1.4,2.3,1.6,2.1,1.8,1.9,2,1.7,2.2,1.4,2.4,1.2,2.5.9,2.6.6,2.6.3h2.7s2.6-.3,2.6-.3l2.6-.6,2.5-.9,2.4-1.2,2.3-1.5,2.2-1.7,2-2,1.8-2.2,1.6-2.4,1.3-2.6,1.1-2.8.8-2.9.5-3,.2-3.1v-3.2c0,0-.4-3.2-.4-3.2l-.7-3.3-1-3.3-1.3-3.2-1.6-3.2-1.9-3.1-2.2-3-2.5-2.8-2.7-2.7-3-2.5-3.2-2.3-3.5-2.1-3.7-1.9-3.9-1.7-4.1-1.4-4.2-1.1-4.4-.9-4.5-.6-4.6-.3h-4.6s-4.7.3-4.7.3l-4.7.6-4.8.9-4.7,1.2-4.7,1.5-4.7,1.9-4.6,2.2-4.5,2.4-4.4,2.7-4.3,3-4.2,3.3-4,3.6-3.8,3.8-3.7,4.1-3.5,4.3-3.3,4.5-3,4.7-2.8,4.9-2.6,5.1-2.3,5.3-2,5.4-1.8,5.6-1.5,5.7-1.2,5.8-.9,5.9-.6,6-.3,6v6.1s.3,6.1.3,6.1l.6,6.1.9,6.1,1.2,6.1,1.5,6.1,1.8,6,2.1,5.9,2.4,5.9,2.7,5.8,3,5.7,3.2,5.5,3.5,5.4,3.8,5.2,4,5.1,4.3,4.9,4.5,4.7,4.7,4.5,5,4.3,5.2,4.1,5.4,3.9,5.6,3.6,5.7,3.4,5.9,3.1,6,2.8,6.2,2.6,6.3,2.3,6.4,2,6.5,1.7,6.6,1.4,6.6,1.1,6.7.8,6.7.5,6.7.2h6.7c0,0,6.7-.5,6.7-.5l6.7-.7,6.7-1,6.6-1.3,6.5-1.6,6.4-1.9,6.3-2.2,6.2-2.4,6.1-2.7,6-3,5.8-3.2,5.6-3.5,5.5-3.7,5.3-4,5.1-4.2,4.9-4.4,4.6-4.6,4.4-4.8,4.2-5,3.9-5.2,3.6-5.3,3.4-5.5,3.1-5.6,2.8-5.7,2.5-5.8,2.2-5.9,1.9-6,1.6-6,1.3-6.1,1-6.1.7-6.1.4-6.1v-6.1c.1,0,0-6.1,0-6.1l-.5-6-.8-5.9-1.1-5.8-1.4-5.7-1.6-5.6-1.9-5.5-2.2-5.3-2.5-5.2-2.7-5-2.9-4.8-3.2-4.6-3.4-4.4-3.6-4.2-3.8-3.9-4-3.7-4.1-3.4-4.3-3.1-4.4-2.9-4.5-2.6-4.6-2.3-4.7-2-4.7-1.7-4.8-1.4-4.8-1.1-4.8-.7-4.7-.4h-4.7c0-.1-4.6,0-4.6,0l-4.5.5-4.4.8-4.3,1.1-4.1,1.3-4,1.6-3.8,1.8-3.6,2.1-3.3,2.3-3.1,2.5-2.8,2.7-2.6,2.8-2.3,3-2,3.1-1.7,3.2-1.4,3.2-1.1,3.3-.8,3.3-.4,3.3v3.2c-.1,0,0,3.2,0,3.2l.5,3.1.8,3,1,2.8,1.3,2.6,1.5,2.5,1.8,2.2,2,2,2.1,1.8,2.3,1.5,2.4,1.2,2.5.9,2.6.6,2.6.3h2.7s2.6-.2,2.6-.2l2.6-.6,2.5-.8,2.4-1.1,2.2-1.4,2.1-1.6,1.9-1.9,1.7-2.1,1.4-2.3,1.2-2.4.9-2.5.6-2.6.3-2.7v-2.7s-.3-2.7-.3-2.7l-.6-2.7-.9-2.6-1.2-2.5-1.5-2.4-1.7-2.2-1.9-2-2.2-1.8-2.3-1.6-2.5-1.3-2.6-1.1-2.7-.8-2.8-.5-2.8-.2h-2.8c0,.1-2.8.6-2.8.6l-2.7.7-2.6,1-2.5,1.3-2.3,1.5-2.1,1.8-1.9,2-1.6,2.2-1.4,2.3-1.1,2.4-.8,2.5-.5,2.6-.2,2.6v2.6c.1,0,.5,2.5.5,2.5l.7,2.5,1,2.3,1.2,2.2,1.5,2,1.7,1.8,1.9,1.6,2.1,1.3,2.2,1.1,2.3.8,2.4.5,2.4.2h2.4c0-.1,2.4-.5,2.4-.5l2.3-.7,2.2-1,2-1.3,1.9-1.5,1.7-1.7,1.4-1.9,1.2-2.1.9-2.2.6-2.3.3-2.4v-2.4s-.3-2.4-.3-2.4l-.6-2.4-.9-2.3-1.2-2.2-1.4-2-1.7-1.8-1.9-1.6-2.1-1.4-2.3-1.2-2.4-.9-2.5-.6-2.6-.3h-2.6s-2.6.3-2.6.3l-2.6.6-2.5.9-2.4,1.2-2.3,1.4-2.1,1.7-1.9,1.9-1.7,2.1-1.5,2.3-1.2,2.5-.9,2.6-.7,2.7-.4,2.8v2.8c0,0,.2,2.8.2,2.8l.6,2.8.8,2.7,1.1,2.6,1.4,2.4,1.7,2.3,1.9,2.1,2.1,1.9,2.3,1.6,2.5,1.4,2.6,1.1,2.7.8,2.7.5,2.8.2h2.8c0,0,2.7-.5,2.7-.5l2.7-.7,2.5-1,2.4-1.2,2.2-1.5,2-1.7,1.8-1.9,1.6-2.1,1.3-2.3,1.1-2.4.8-2.5.5-2.6.2-2.6v-2.6c-.1,0-.6-2.6-.6-2.6l-.7-2.6-1-2.5-1.3-2.4-1.6-2.2-1.8-2.1-2.1-1.9-2.3-1.7-2.5-1.5-2.7-1.2-2.9-1-3-.7-3.1-.4h-3.2c0-.1-3.3,0-3.3,0l-3.3.5-3.3.8-3.3,1.1-3.2,1.4-3.2,1.7-3.1,2-2.9,2.3-2.8,2.6-2.6,2.8-2.5,3.1-2.3,3.3-2,3.5-1.8,3.7-1.6,3.9-1.3,4.1-1,4.2-.7,4.4-.4,4.5-.2,4.6.2,4.6.5,4.7.8,4.7,1.1,4.7,1.4,4.7,1.7,4.7,2,4.6,2.3,4.5,2.6,4.5,2.9,4.3,3.2,4.2,3.4,4.1,3.7,3.9,3.9,3.7,4.2,3.6,4.4,3.4,4.6,3.1,4.8,2.9,5,2.7,5.2,2.4,5.4,2.2,5.5,1.9,5.7,1.6,5.8,1.4,5.9,1.1,6,.8,6,.5,6.1.2h6.1c0-.1,6.2-.6,6.2-.6l6.2-.7,6.2-1,6.1-1.3,6.1-1.6,6-1.9,6-2.2,5.9-2.5,5.8-2.8,5.6-3.1,5.5-3.4,5.4-3.6,5.2-3.9,5-4.1,4.8-4.4,4.6-4.6,4.4-4.8,4.2-5,4-5.2,3.8-5.4,3.5-5.6,3.3-5.8,3-5.9,2.7-6,2.4-6.2,2.2-6.3,1.9-6.4,1.6-6.5,1.3-6.5,1-6.6.7-6.6.4-6.7v-6.7c0,0-.1-6.7-.1-6.7l-.5-6.7-.8-6.6-1.1-6.6-1.4-6.5-1.7-6.4-2-6.3-2.3-6.2-2.6-6.1-2.8-6-3.1-5.9-3.4-5.7-3.6-5.5-3.9-5.3-4.1-5.2-4.3-5-4.5-4.7-4.7-4.5-4.9-4.3-5.1-4-5.3-3.8-5.4-3.5-5.6-3.2-5.7-3-5.8-2.7-5.9-2.4-6-2.1-6.1-1.8-6.1-1.5-6.1-1.2-6.2-.9-6.2-.6-6.2-.3h-6.1s-6.1.3-6.1.3l-6,.6-5.9.9-5.9,1.2-5.7,1.5-5.6,1.8-5.5,2-5.3,2.3-5.1,2.6-5,2.8-4.8,3-4.5,3.3-4.3,3.5-4.1,3.7-3.8,3.8-3.6,4-3.3,4.2-3,4.3-2.7,4.4-2.4,4.5-2.1,4.6-1.8,4.7-1.5,4.7-1.2,4.7-.9,4.7-.6,4.7-.3,4.7v4.6s.3,4.5.3,4.5l.6,4.4.9,4.3,1.2,4.2,1.4,4,1.7,3.8,1.9,3.6,2.2,3.4,2.4,3.2,2.6,3,2.8,2.7,2.9,2.4,3,2.1,3.1,1.8,3.2,1.5,3.3,1.2,3.3.9,3.3.6,3.3.3h3.2s3.2-.3,3.2-.3l3.1-.6,2.9-.9,2.8-1.2,2.6-1.4,2.4-1.6,2.2-1.9,1.9-2,1.7-2.2,1.4-2.3,1.1-2.5.8-2.5.5-2.6.2-2.6v-2.6c0,0-.5-2.6-.5-2.6l-.7-2.5-1-2.4-1.3-2.3-1.5-2.2-1.8-2-2-1.8-2.2-1.5-2.4-1.3-2.5-1-2.6-.8-2.7-.5-2.8-.2h-2.8c0,.1-2.7.6-2.7.6l-2.7.7-2.6,1-2.5,1.3-2.3,1.6-2.2,1.8-2,2-1.7,2.2-1.5,2.4-1.2,2.5-.9,2.7-.6,2.7-.3,2.8v2.8s.2,2.8.2,2.8l.6,2.7.9,2.6,1.1,2.5,1.4,2.4,1.6,2.2,1.9,2,2.1,1.8,2.2,1.5,2.4,1.2,2.5,1,2.6.7,2.6.4h2.6c0,0,2.6-.2,2.6-.2l2.5-.5,2.4-.8,2.3-1.1,2.1-1.4,1.9-1.6,1.7-1.8,1.5-2,1.2-2.1.9-2.3.7-2.3.4-2.4v-2.4c0,0-.2-2.4-.2-2.4l-.5-2.3-.8-2.2-1.1-2.1-1.4-2-1.6-1.8-1.8-1.6-2-1.3-2.2-1.1-2.3-.8-2.4-.5-2.4-.2h-2.4c0,.1-2.4.5-2.4.5l-2.3.7-2.3,1-2.1,1.3-2,1.5-1.8,1.8-1.5,2-1.3,2.2-1,2.3-.8,2.4-.5,2.5-.2,2.6v2.6c.1,0,.5,2.6.5,2.6l.7,2.5,1,2.5,1.3,2.3,1.6,2.2,1.8,2,2,1.8,2.2,1.6,2.4,1.4,2.6,1.1,2.7.8,2.8.5,2.8.2h2.8c0,0,2.8-.5,2.8-.5l2.8-.7,2.7-1,2.5-1.2,2.4-1.5,2.2-1.8,2-2,1.8-2.2,1.5-2.4,1.3-2.5,1-2.6.7-2.7.4-2.7v-2.7c0,0-.1-2.7-.1-2.7l-.5-2.7-.8-2.6-1.1-2.5-1.3-2.3-1.6-2.1-1.8-1.9-2-1.7-2.2-1.5-2.4-1.2-2.5-.9-2.6-.6-2.6-.3h-2.7s-2.6.2-2.6.2l-2.6.6-2.6.9-2.5,1.1-2.3,1.4-2.2,1.7-2,1.9-1.8,2.2-1.6,2.4-1.4,2.6-1.1,2.7-.8,2.9-.6,3-.3,3.1v3.2s.4,3.2.4,3.2l.6,3.3.9,3.3,1.3,3.2,1.6,3.2,1.9,3.1,2.1,3,2.4,2.9,2.7,2.7,3,2.5,3.2,2.4,3.4,2.1,3.7,1.9,3.9,1.7,4,1.4,4.2,1.2,4.3.9,4.5.6,4.6.3h4.6s4.7-.3,4.7-.3l4.7-.6,4.8-.9,4.8-1.2,4.7-1.5,4.7-1.8,4.6-2.1,4.5-2.4,4.4-2.7,4.3-3,4.2-3.3,4-3.5,3.9-3.8,3.7-4,3.5-4.3,3.3-4.5,3.1-4.7,2.8-4.9,2.6-5.1,2.3-5.3,2.1-5.4,1.8-5.5,1.5-5.7,1.2-5.8.9-5.9.6-6,.3-6v-6.1s-.2-6.1-.2-6.1l-.6-6.1-.9-6.1-1.2-6.1-1.5-6.1-1.8-6-2.1-5.9-2.4-5.9-2.7-5.8-2.9-5.7-3.2-5.5-3.5-5.4-3.8-5.3-4-5.1-4.3-4.9-4.5-4.7-4.7-4.5-4.9-4.3-5.2-4.1-5.4-3.9-5.5-3.6-5.7-3.4-5.9-3.1-6-2.9-6.2-2.6-6.3-2.3-6.4-2-6.5-1.7-6.6-1.5-6.6-1.2-6.7-.9-6.7-.6-6.7-.3h-6.7s-6.7.4-6.7.4l-6.7.7-6.7,1-6.6,1.3-6.5,1.5-6.5,1.8-6.4,2.1-6.2,2.4-6.1,2.7-6,3-5.8,3.2-5.7,3.5-5.5,3.7-5.3,4-5.1,4.2-4.9,4.4-4.7,4.6-4.4,4.8-4.2,5-3.9,5.2-3.7,5.3-3.4,5.5-3.1,5.6-2.9,5.7-2.6,5.8-2.3,5.9-2,6-1.7,6-1.4,6.1-1.1,6.1-.8,6.1-.5,6.1-.2,6.1v6.1c.1,0,.6,6,.6,6l.7,5.9,1,5.9,1.3,5.8,1.6,5.6,1.9,5.5,2.2,5.4,2.4,5.2,2.7,5,2.9,4.8,3.1,4.6,3.4,4.4,3.6,4.2,3.8,4,3.9,3.7,4.1,3.4,4.3,3.2,4.4,2.9,4.5,2.6,4.6,2.3,4.7,2,4.7,1.7,4.8,1.4,4.8,1.1,4.8.8,4.7.5,4.7.2h4.6c0-.1,4.5-.6,4.5-.6l4.4-.7,4.3-1,4.1-1.3,4-1.6,3.8-1.8,3.6-2,3.4-2.3,3.1-2.5,2.9-2.6,2.6-2.8,2.3-2.9,2-3.1,1.7-3.2,1.4-3.2,1.1-3.3.8-3.3.5-3.3.2-3.2v-3.2c-.1,0-.6-3.1-.6-3.1l-.7-3-1-2.8-1.3-2.7-1.5-2.5-1.7-2.3-1.9-2-2.1-1.8-2.3-1.5-2.4-1.3-2.5-1-2.6-.7-2.6-.4h-2.7c0,0-2.6.2-2.6.2l-2.6.5-2.5.8-2.4,1.1-2.3,1.4-2.1,1.6-1.9,1.9-1.7,2.1-1.4,2.3-1.2,2.4-.9,2.5-.6,2.6-.3,2.7v2.7s.2,2.7.2,2.7l.6,2.7.9,2.6,1.2,2.5,1.4,2.4,1.7,2.2,1.9,2.1,2.1,1.8,2.3,1.6,2.5,1.4,2.6,1.1,2.7.8,2.8.5,2.8.2h2.8c0-.1,2.8-.5,2.8-.5l2.7-.7,2.6-1,2.5-1.3,2.3-1.5,2.1-1.7,1.9-2,1.7-2.1,1.4-2.3,1.1-2.4.8-2.5.5-2.6.2-2.6v-2.6c0,0-.4-2.6-.4-2.6l-.7-2.5-.9-2.4-1.2-2.2-1.5-2-1.7-1.8-1.9-1.6-2.1-1.4-2.2-1.1-2.3-.8-2.4-.5-2.4-.2h-2.4c0,0-2.4.5-2.4.5l-2.3.7-2.2,1-2.1,1.2-1.9,1.5-1.7,1.7-1.5,1.9-1.2,2.1-.9,2.2-.7,2.3-.4,2.4v2.4c0,0,.2,2.4.2,2.4l.5,2.4.8,2.3,1.1,2.2,1.4,2,1.6,1.9,1.9,1.7,2.1,1.4,2.2,1.2,2.4.9,2.5.6,2.6.4h2.6c0,0,2.6-.2,2.6-.2l2.6-.6,2.5-.9,2.4-1.1,2.3-1.4,2.1-1.7,1.9-1.9,1.7-2.1,1.5-2.3,1.2-2.5,1-2.6.7-2.7.4-2.8v-2.8c0,0-.1-2.8-.1-2.8l-.5-2.8-.8-2.7-1.1-2.6-1.4-2.5-1.6-2.3-1.9-2.1-2.1-1.9-2.3-1.7-2.4-1.4-2.6-1.1-2.7-.9-2.7-.6-2.8-.3h-2.8s-2.7.4-2.7.4l-2.7.6-2.6.9-2.4,1.2-2.3,1.5-2.1,1.7-1.9,1.9-1.6,2.1-1.4,2.3-1.1,2.4-.8,2.5-.5,2.6-.2,2.6v2.6c0,0,.5,2.6.5,2.6l.7,2.6,1,2.5,1.3,2.4,1.5,2.3,1.8,2.1,2.1,1.9,2.3,1.7,2.5,1.5,2.7,1.3,2.8,1,3,.7,3.1.4h3.2c0,.1,3.2,0,3.2,0l3.3-.5,3.3-.8,3.3-1.1,3.2-1.4,3.2-1.7,3.1-2,3-2.3,2.8-2.5,2.7-2.8,2.5-3.1,2.3-3.3,2.1-3.5,1.8-3.7,1.6-3.9,1.3-4.1,1-4.2.8-4.4.5-4.5.2-4.6v-4.6c-.1,0-.5-4.7-.5-4.7l-.7-4.7-1-4.7-1.3-4.7-1.7-4.7-2-4.6-2.3-4.6-2.6-4.5-2.8-4.4-3.1-4.2-3.4-4.1-3.7-3.9-3.9-3.8-4.2-3.6-4.4-3.4-4.6-3.2-4.8-2.9-5-2.7-5.2-2.5-5.4-2.2-5.5-1.9-5.7-1.7-5.8-1.4-5.9-1.1-6-.8-6-.5-6.1-.2h-6.1c0,0-6.2.5-6.2.5l-6.2.7-6.2,1-6.1,1.3-6.1,1.6-6,1.9-6,2.2-5.9,2.5-5.8,2.8-5.7,3.1-5.5,3.3-5.4,3.6-5.2,3.9-5,4.1-4.9,4.3-4.7,4.6-4.5,4.8-4.2,5-4,5.2-3.8,5.4-3.5,5.6-3.3,5.7-3,5.9-2.8,6-2.5,6.2-2.2,6.3-1.9,6.4-1.6,6.5-1.3,6.5-1,6.6-.7,6.6-.4,6.7v6.7c-.1,0,0,6.7,0,6.7l.5,6.7.8,6.6,1.1,6.6,1.4,6.5,1.7,6.4,2,6.4,2.3,6.3,2.5,6.1,2.8,6,3.1,5.9,3.3,5.7,3.6,5.5,3.8,5.4,4.1,5.2,4.3,5,4.5,4.8,4.7,4.5,4.9,4.3,5.1,4.1,5.3,3.8,5.4,3.5,5.6,3.3,5.7,3,5.8,2.7,5.9,2.4,6,2.1,6.1,1.8,6.1,1.5,6.1,1.2,6.2.9,6.2.6,6.2.3h6.1s6.1-.3,6.1-.3l6-.6,6-.9,5.9-1.2,5.8-1.5,5.6-1.7,5.5-2,5.3-2.3,5.2-2.5,5-2.8,4.8-3,4.6-3.2,4.3-3.5,4.1-3.6,3.9-3.8,3.6-4,3.3-4.2,3.1-4.3,2.8-4.4,2.5-4.5,2.2-4.6,1.9-4.7,1.6-4.7,1.3-4.7.9-4.7.6-4.7.3-4.7v-4.6s-.3-4.5-.3-4.5l-.6-4.5-.9-4.3-1.2-4.2-1.4-4-1.7-3.9-1.9-3.7-2.2-3.5-2.4-3.2-2.6-3-2.7-2.7-2.9-2.5-3-2.2-3.1-1.9-3.2-1.6-3.3-1.3-3.3-1-3.3-.6-3.3-.3h-3.2s-3.2.3-3.2.3l-3.1.6-2.9.9-2.8,1.1-2.6,1.4-2.4,1.6-2.2,1.8-1.9,2-1.7,2.2-1.4,2.3-1.1,2.5-.8,2.5-.5,2.6-.2,2.6v2.6c0,0,.4,2.6.4,2.6l.7,2.5.9,2.4,1.2,2.3,1.5,2.2,1.7,2,2,1.8,2.2,1.6,2.3,1.3,2.5,1.1,2.6.8,2.7.5,2.7.2h2.8c0-.1,2.8-.5,2.8-.5l2.7-.7,2.6-1,2.5-1.3,2.4-1.5,2.2-1.8,2-2,1.8-2.2,1.5-2.4,1.2-2.5,1-2.6.7-2.7.4-2.8v-2.8c0,0-.2-2.8-.2-2.8l-.5-2.7-.8-2.7-1.1-2.5-1.4-2.4-1.6-2.2-1.8-2-2.1-1.8-2.2-1.5-2.4-1.3-2.5-1-2.6-.7-2.6-.4h-2.6c0,0-2.6.1-2.6.1l-2.5.5-2.5.8-2.3,1.1-2.2,1.3-2,1.6-1.8,1.8-1.5,2-1.3,2.1-1,2.2-.7,2.3-.4,2.4v2.4c0,0,.1,2.4.1,2.4l.5,2.3.8,2.3,1.1,2.1,1.3,2,1.6,1.8,1.8,1.6,2,1.3,2.1,1.1,2.3.8,2.4.5,2.4.2h2.4c0,0,2.4-.5,2.4-.5l2.4-.7,2.3-1,2.1-1.2,2-1.5,1.8-1.7,1.6-2,1.3-2.1,1.1-2.3.8-2.4.5-2.5.2-2.6v-2.6c0,0-.5-2.6-.5-2.6l-.7-2.5-1-2.5-1.3-2.4-1.5-2.2-1.8-2-2-1.8-2.2-1.6-2.4-1.4-2.5-1.1-2.7-.8-2.8-.6-2.8-.3h-2.8s-2.8.4-2.8.4l-2.8.7-2.7.9-2.6,1.2-2.4,1.5-2.2,1.7-2,2-1.8,2.2-1.6,2.3-1.3,2.5-1,2.6-.7,2.7-.4,2.7v2.7c-.1,0,0,2.7,0,2.7l.5,2.7.8,2.6,1.1,2.5,1.3,2.3,1.6,2.2,1.8,2,2,1.7,2.2,1.5,2.3,1.2,2.5,1,2.6.7,2.6.4h2.7c0,0,2.7-.2,2.7-.2l2.6-.5,2.6-.8,2.5-1.1,2.4-1.4,2.2-1.7,2-1.9,1.8-2.1,1.6-2.4,1.4-2.6,1.1-2.7.9-2.9.6-3,.3-3.1v-3.2s-.3-3.2-.3-3.2l-.6-3.3-.9-3.3-1.2-3.2-1.5-3.2-1.8-3.1-2.1-3-2.4-2.9-2.7-2.7-2.9-2.6-3.2-2.4-3.4-2.2-3.6-1.9-3.8-1.7-4-1.5-4.2-1.2-4.3-.9-4.4-.6-4.6-.3h-4.6s-4.7.2-4.7.2l-4.7.6-4.8.9-4.8,1.2-4.7,1.5-4.7,1.8-4.6,2.1-4.5,2.4-4.5,2.7-4.3,3-4.2,3.2-4.1,3.5-3.9,3.8-3.7,4-3.5,4.2-3.3,4.5-3.1,4.7-2.8,4.9-2.6,5.1-2.4,5.2-2.1,5.4-1.8,5.5-1.5,5.7-1.3,5.8-1,5.9-.7,5.9-.4,6v6.1c0,0,.2,6.1.2,6.1l.5,6.1.8,6.1,1.1,6.1,1.4,6.1,1.7,6,2,5.9,2.3,5.9,2.6,5.8,2.9,5.7,3.2,5.6,3.5,5.4,3.7,5.3,4,5.1,4.2,4.9,4.5,4.8,4.7,4.6,4.9,4.3,5.1,4.1,5.3,3.9,5.5,3.7,5.7,3.4,5.9,3.2,6,2.9,6.1,2.6,6.3,2.3,6.4,2.1,6.5,1.8,6.6,1.5,6.6,1.2,6.7.9,6.7.6,6.7.3h6.7s6.7-.3,6.7-.3l6.7-.6,6.7-.9,6.6-1.2,6.5-1.5,6.5-1.8,6.4-2.1,6.3-2.4,6.1-2.7,6-2.9,5.8-3.2,5.7-3.4,5.5-3.7,5.3-3.9,5.1-4.2,4.9-4.4,4.7-4.6,4.5-4.8,4.2-5,4-5.1,3.7-5.3,3.4-5.4,3.2-5.6,2.9-5.7,2.6-5.8,2.3-5.9,2-6,1.7-6,1.4-6.1,1.1-6.1.8-6.1.5-6.1.2-6.1v-6.1c-.1,0-.5-6-.5-6l-.7-5.9-1-5.9-1.3-5.8-1.6-5.7-1.9-5.5-2.1-5.4-2.4-5.2-2.6-5-2.9-4.9-3.1-4.7-3.3-4.4-3.6-4.2-3.7-4-3.9-3.7-4.1-3.5-4.2-3.2-4.4-2.9-4.5-2.6-4.6-2.3-4.7-2-4.7-1.7-4.8-1.4-4.8-1.1-4.8-.8-4.7-.5-4.7-.2h-4.6c0,.1-4.6.5-4.6.5l-4.4.7-4.3,1-4.2,1.3-4,1.5-3.8,1.8-3.6,2-3.4,2.2-3.1,2.4-2.9,2.6-2.6,2.8-2.3,2.9-2,3.1-1.7,3.1-1.4,3.2-1.1,3.3-.8,3.3-.5,3.3-.2,3.2v3.2c.1,0,.5,3.1.5,3.1l.7,3,1,2.8,1.2,2.7,1.5,2.5,1.7,2.3,1.9,2.1,2.1,1.8,2.3,1.6,2.4,1.3,2.5,1,2.6.7,2.6.4h2.7c0,.1,2.6,0,2.6,0l2.6-.5,2.5-.8,2.4-1.1,2.3-1.3,2.1-1.6,1.9-1.8,1.7-2,1.5-2.2,1.2-2.4.9-2.5.7-2.6.4-2.7v-2.7c0,0-.2-2.7-.2-2.7l-.5-2.7-.8-2.6-1.1-2.6-1.4-2.4-1.7-2.3-1.9-2.1-2.1-1.9-2.3-1.6-2.5-1.4-2.6-1.1-2.7-.8-2.8-.5-2.8-.2h-2.8c0,0-2.8.4-2.8.4l-2.7.7-2.6,1-2.5,1.2-2.3,1.5-2.1,1.7-1.9,1.9-1.7,2.1-1.4,2.3-1.2,2.4-.9,2.5-.6,2.6-.3,2.6v2.6s.4,2.6.4,2.6l.6,2.5.9,2.4,1.2,2.2,1.4,2.1,1.7,1.9,1.9,1.6,2.1,1.4,2.2,1.1,2.3.8,2.4.6,2.4.3h2.4c0,0,2.4-.4,2.4-.4l2.3-.6,2.2-.9,2.1-1.2,1.9-1.5,1.7-1.7,1.5-1.9,1.2-2.1,1-2.2.7-2.3.4-2.4v-2.4c0,0-.1-2.4-.1-2.4l-.5-2.4-.8-2.3-1.1-2.2-1.4-2.1-1.6-1.9-1.8-1.7-2.1-1.5-2.2-1.2-2.4-1-2.5-.7-2.6-.4h-2.6c0,0-2.6.1-2.6.1l-2.6.5-2.5.8-2.4,1.1-2.3,1.4-2.2,1.6-2,1.9-1.8,2.1-1.5,2.3-1.3,2.4-1,2.6-.7,2.7-.4,2.8v2.8c-.1,0,0,2.8,0,2.8l.5,2.8.8,2.7,1.1,2.6,1.3,2.5,1.6,2.3,1.8,2.1,2.1,1.9,2.3,1.7,2.4,1.4,2.6,1.2,2.7.9,2.7.6,2.8.3h2.8s2.7-.3,2.7-.3l2.7-.6,2.6-.9,2.4-1.2,2.3-1.4,2.1-1.7,1.9-1.9,1.6-2.1,1.4-2.2,1.1-2.4.8-2.5.5-2.6.2-2.6v-2.6c0,0-.4-2.6-.4-2.6l-.7-2.6-1-2.5-1.2-2.4-1.5-2.3-1.8-2.1-2-1.9-2.3-1.7-2.5-1.5-2.7-1.3-2.8-1-3-.7-3.1-.5-3.2-.2h-3.2c0,.1-3.3.6-3.3.6l-3.3.7-3.3,1.1-3.2,1.4-3.2,1.7-3.1,2-3,2.2-2.8,2.5-2.7,2.8-2.5,3-2.3,3.3-2.1,3.5-1.8,3.7-1.6,3.9-1.3,4.1-1.1,4.2-.8,4.3-.5,4.5-.2,4.5v4.6c0,0,.5,4.7.5,4.7l.7,4.7,1,4.7,1.3,4.7,1.6,4.7,1.9,4.6,2.2,4.6,2.5,4.5,2.8,4.4,3.1,4.2,3.4,4.1,3.6,4,3.9,3.8,4.1,3.6,4.4,3.4,4.6,3.2,4.8,3,5,2.7,5.2,2.5,5.3,2.2,5.5,2,5.6,1.7,5.8,1.4,5.9,1.1,6,.8,6,.5,6.1.2h6.1c0,0,6.2-.4,6.2-.4l6.2-.7,6.2-1,6.1-1.3,6.1-1.6,6-1.9,6-2.2,5.9-2.5,5.8-2.7,5.7-3,5.5-3.3,5.4-3.6,5.2-3.8,5.1-4.1,4.9-4.3,4.7-4.6,4.5-4.8,4.3-5,4-5.2,3.8-5.4,3.6-5.6,3.3-5.7,3-5.9,2.8-6,2.5-6.2,2.2-6.3,1.9-6.4,1.6-6.4,1.4-6.5,1.1-6.6.8-6.6.5-6.6.2-6.6h0"/>
</svg>