<?xml version="1.0" encoding="UTF-8"?>
<svg id="Layer_1" xmlns="http://www.w3.org/2000/svg" xmlns:xlink="http://www.w3.org/1999/xlink" version="1.1" viewBox="0 0 288 288">
  <!-- Generator: Adobe Illustrator 29.1.0, SVG Export Plug-In . SVG Version: 2.1.0 Build 142)  -->
  <defs>
    <style>
      .st0, .st1 {
        fill: none;
      }

      .st1 {
        filter: url(#drop-shadow-1);
        stroke: #fff;
        stroke-linecap: square;
        stroke-linejoin: round;
      }

      .st2 {
        fill: #fff;
      }

      .st3 {
        clip-path: url(#clippath);
      }
    </style>
    <clipPath id="clippath">
      <rect class="st0" x="36" y="34.6" width="223.2" height="221.8"/>
    </clipPath>
    <filter id="drop-shadow-1" x="44" y="43" width="211" height="209" filterUnits="userSpaceOnUse">
      <feOffset dx="2" dy="2"/>
      <feGaussianBlur result="blur" stdDeviation="1"/>
      <feFlood flood-color="#000" flood-opacity=".8"/>
      <feComposite in2="blur" operator="in"/>
      <feComposite in="SourceGraphic"/>
    </filter>
  </defs>
  <g id="figure_1">
    <g id="patch_1">
      <path class="st2" d="M0,288h288V0H0v288Z"/>
    </g>
    <g id="axes_1">
      <g id="line2d_1">
        <g class="st3">
          <path class="st1" d="M249.1,145.4v-4c-.1,0-.4-4-.4-4l-.6-4-.8-3.9-1-3.9-1.2-3.8-1.4-3.7-1.6-3.6-1.8-3.5-2-3.4-2.2-3.3-2.4-3.2-2.5-3-2.7-2.9-2.8-2.7-3-2.5-3.1-2.3-3.2-2.1-3.3-2-3.4-1.8-3.5-1.5-3.6-1.3-3.6-1.1-3.7-.9-3.7-.7-3.7-.4-3.7-.2h-3.7s-3.6.2-3.6.2l-3.6.4-3.5.7-3.5.9-3.4,1.1-3.3,1.3-3.1,1.5-3,1.6-2.9,1.8-2.7,2-2.5,2.1-2.3,2.3-2.2,2.4-2,2.5-1.8,2.6-1.5,2.7-1.3,2.7-1.1,2.8-.9,2.8-.6,2.8-.4,2.8-.2,2.8v2.8s.3,2.7.3,2.7l.5,2.6.7,2.5.9,2.4,1.1,2.3,1.2,2.1,1.4,2,1.5,1.8,1.7,1.6,1.8,1.4,1.9,1.2,1.9.9,2,.7,2,.5,2,.3h1.9s1.9-.1,1.9-.1l1.8-.4,1.7-.6,1.6-.8,1.4-1,1.3-1.1,1.1-1.3.9-1.4.7-1.5.5-1.5.3-1.6v-1.6s-.1-1.6-.1-1.6l-.4-1.5-.6-1.4-.8-1.4-1-1.2-1.2-1.1-1.3-.9-1.4-.7-1.5-.5-1.6-.3h-1.6c0-.1-1.7,0-1.7,0l-1.6.3-1.6.6-1.5.8-1.4,1-1.3,1.1-1.1,1.3-.9,1.4-.7,1.5-.5,1.6-.3,1.7v1.7c0,0,0,1.7,0,1.7l.4,1.6.6,1.6.8,1.5,1,1.3,1.1,1.2,1.3,1,1.4.8,1.5.6,1.5.4,1.6.2h1.6s1.5-.3,1.5-.3l1.5-.5,1.4-.7,1.3-.8,1.1-1,.9-1.2.7-1.3.5-1.4.3-1.4v-1.4c.1,0,0-1.4,0-1.4l-.3-1.4-.5-1.3-.7-1.2-.9-1.1-1.1-.9-1.2-.8-1.3-.6-1.4-.4h-1.4c0-.1-1.5,0-1.5,0l-1.4.3-1.4.5-1.3.7-1.2.9-1,1.1-.9,1.2-.7,1.4-.5,1.4-.3,1.5v1.5c0,0,.1,1.6.1,1.6l.4,1.5.6,1.5.8,1.4,1,1.3,1.2,1.1,1.3,1,1.5.8,1.6.6,1.6.4,1.7.2h1.7c0,0,1.7-.3,1.7-.3l1.6-.5,1.5-.7,1.4-.9,1.3-1.1,1.2-1.2,1-1.4.8-1.5.6-1.6.4-1.6v-1.6c.1,0,0-1.6,0-1.6l-.3-1.6-.5-1.5-.7-1.4-.9-1.3-1.1-1.2-1.2-1-1.3-.8-1.5-.6-1.5-.4-1.6-.2h-1.6s-1.6.3-1.6.3l-1.5.5-1.5.7-1.4.9-1.3,1.1-1.1,1.2-1,1.4-.8,1.5-.6,1.7-.4,1.8-.2,1.8v1.9s.2,1.9.2,1.9l.4,2,.7,1.9.9,1.9,1.1,1.8,1.3,1.8,1.5,1.7,1.7,1.6,1.9,1.4,2.1,1.3,2.2,1.1,2.4.9,2.5.7,2.6.5,2.7.3h2.8c0,.1,2.8,0,2.8,0l2.8-.3,2.8-.6,2.8-.8,2.8-1,2.8-1.2,2.7-1.5,2.6-1.7,2.5-1.9,2.4-2.1,2.3-2.3,2.2-2.4,2-2.6,1.9-2.8,1.7-2.9,1.5-3.1,1.3-3.2,1.1-3.3.9-3.4.7-3.5.5-3.5.3-3.6v-3.6c0,0,0-3.6,0-3.6l-.4-3.7-.6-3.7-.8-3.6-1-3.6-1.2-3.6-1.5-3.5-1.7-3.4-1.9-3.3-2.1-3.2-2.3-3.1-2.5-3-2.6-2.9-2.8-2.7-3-2.6-3.1-2.4-3.3-2.3-3.4-2.1-3.5-1.9-3.6-1.7-3.7-1.5-3.8-1.3-3.9-1.1-3.9-.9-4-.6-4-.4-4-.2h-4s-4,.3-4,.3l-4,.5-4,.7-3.9.9-3.9,1.1-3.8,1.3-3.7,1.5-3.6,1.7-3.5,1.9-3.4,2.1-3.2,2.3-3.1,2.5-2.9,2.6-2.8,2.8-2.6,2.9-2.4,3-2.2,3.2-2,3.3-1.8,3.4-1.6,3.4-1.4,3.5-1.2,3.6-1,3.6-.8,3.6-.5,3.7-.3,3.7v3.6c0,0,0,3.6,0,3.6l.4,3.6.6,3.5.8,3.5,1,3.4,1.2,3.3,1.4,3.2,1.6,3,1.8,2.9,1.9,2.7,2.1,2.6,2.2,2.4,2.4,2.2,2.5,2,2.6,1.8,2.7,1.6,2.7,1.4,2.8,1.2,2.8,1,2.9.7,2.9.5,2.8.3h2.8c0,0,2.8-.1,2.8-.1l2.7-.4,2.6-.6,2.5-.8,2.3-1,2.2-1.2,2-1.3,1.9-1.5,1.7-1.6,1.5-1.7,1.3-1.8,1-1.9.8-1.9.6-2,.4-2v-1.9c.1,0,0-1.9,0-1.9l-.3-1.8-.5-1.7-.7-1.6-.9-1.5-1.1-1.3-1.2-1.2-1.3-1-1.4-.8-1.5-.6-1.6-.4h-1.6c0-.1-1.6,0-1.6,0l-1.6.3-1.5.5-1.4.7-1.3.9-1.2,1.1-1,1.2-.8,1.4-.6,1.5-.4,1.6-.2,1.6v1.6s.3,1.6.3,1.6l.5,1.6.7,1.5.9,1.4,1.1,1.3,1.2,1.2,1.4,1,1.5.8,1.6.6,1.7.4,1.7.2h1.7s1.7-.3,1.7-.3l1.6-.5,1.5-.7,1.4-.9,1.3-1.1,1.1-1.2.9-1.3.7-1.4.5-1.5.3-1.5v-1.6c0,0,0-1.5,0-1.5l-.4-1.5-.6-1.4-.8-1.3-1-1.2-1.1-1-1.2-.8-1.3-.6-1.4-.4-1.5-.2h-1.5s-1.4.3-1.4.3l-1.4.5-1.3.7-1.2.9-1,1-.8,1.2-.7,1.3-.4,1.4-.2,1.4v1.4s.2,1.4.2,1.4l.4,1.4.6,1.3.8,1.2,1,1.1,1.2.9,1.3.8,1.4.6,1.5.4h1.6c0,.1,1.6,0,1.6,0l1.6-.3,1.5-.5,1.4-.7,1.3-.9,1.2-1.1,1-1.3.9-1.4.7-1.5.5-1.6.3-1.6v-1.7s-.1-1.7-.1-1.7l-.4-1.6-.6-1.6-.8-1.5-1-1.4-1.2-1.2-1.3-1.1-1.4-.9-1.5-.7-1.6-.5-1.7-.2h-1.7s-1.6.2-1.6.2l-1.6.4-1.5.6-1.4.8-1.3,1-1.1,1.2-.9,1.3-.7,1.4-.5,1.5-.3,1.5v1.6c0,0,0,1.6,0,1.6l.4,1.5.6,1.5.8,1.4,1,1.3,1.2,1.2,1.3,1.1,1.5.9,1.6.7,1.7.5,1.8.3h1.9c0,0,1.9,0,1.9,0l2-.4,2-.6,1.9-.8,1.9-1,1.8-1.2,1.7-1.4,1.6-1.6,1.5-1.8,1.3-2,1.2-2.2,1-2.3.8-2.4.6-2.5.4-2.6.2-2.7v-2.8s-.3-2.8-.3-2.8l-.5-2.8-.7-2.8-.9-2.8-1.1-2.8-1.4-2.7-1.6-2.7-1.8-2.6-2-2.5-2.2-2.4-2.4-2.2-2.6-2.1-2.7-1.9-2.9-1.8-3-1.6-3.1-1.4-3.3-1.2-3.4-1-3.5-.8-3.5-.6-3.6-.4-3.6-.2h-3.7s-3.7.3-3.7.3l-3.7.5-3.7.7-3.7.9-3.6,1.1-3.6,1.4-3.5,1.6-3.4,1.8-3.3,2-3.2,2.2-3.1,2.4-3,2.5-2.8,2.7-2.7,2.9-2.5,3-2.3,3.2-2.2,3.3-2,3.4-1.8,3.5-1.6,3.6-1.4,3.7-1.2,3.8-1,3.9-.7,3.9-.5,4-.3,4v4c0,0,0,4,0,4l.4,4,.6,3.9.8,3.9,1,3.9,1.2,3.8,1.4,3.7,1.6,3.6,1.8,3.5,2,3.4,2.2,3.3,2.4,3.1,2.6,3,2.7,2.8,2.9,2.7,3,2.5,3.1,2.3,3.2,2.1,3.3,1.9,3.4,1.7,3.5,1.5,3.6,1.3,3.6,1.1,3.7.9,3.7.6,3.7.4,3.7.2h3.7s3.6-.3,3.6-.3l3.6-.5,3.5-.7,3.4-.9,3.3-1.1,3.2-1.3,3.1-1.5,3-1.7,2.8-1.8,2.7-2,2.5-2.2,2.3-2.3,2.1-2.4,1.9-2.5,1.7-2.6,1.5-2.7,1.3-2.8,1.1-2.8.8-2.8.6-2.8.4-2.8.2-2.8v-2.8c0,0-.4-2.7-.4-2.7l-.5-2.6-.7-2.5-.9-2.4-1.1-2.2-1.3-2.1-1.4-1.9-1.6-1.7-1.7-1.6-1.8-1.3-1.9-1.1-1.9-.9-2-.7-2-.5-2-.2h-1.9s-1.9.2-1.9.2l-1.8.4-1.7.6-1.6.8-1.4,1-1.2,1.1-1.1,1.3-.9,1.4-.7,1.5-.4,1.5-.2,1.6v1.6s.2,1.6.2,1.6l.4,1.5.6,1.4.8,1.3,1,1.2,1.2,1.1,1.3.9,1.5.7,1.5.5,1.6.3h1.7c0,0,1.7,0,1.7,0l1.6-.4,1.6-.6,1.5-.8,1.4-1,1.2-1.2,1.1-1.3.9-1.4.7-1.5.5-1.6.3-1.7v-1.7s-.1-1.7-.1-1.7l-.4-1.6-.6-1.5-.8-1.4-1-1.3-1.1-1.2-1.3-1-1.4-.8-1.5-.6-1.5-.4-1.6-.2h-1.6c0,0-1.5.3-1.5.3l-1.5.5-1.4.7-1.2.9-1.1,1-.9,1.2-.7,1.3-.5,1.4-.3,1.4v1.4c0,0,0,1.4,0,1.4l.4,1.4.6,1.3.8,1.2,1,1.1,1.1.9,1.2.7,1.3.5,1.4.3h1.4c0,.1,1.5,0,1.5,0l1.4-.3,1.4-.6,1.3-.8,1.2-.9,1-1.1.8-1.3.7-1.4.4-1.5.2-1.5v-1.6s-.2-1.6-.2-1.6l-.4-1.5-.6-1.5-.8-1.4-1-1.3-1.2-1.1-1.4-.9-1.5-.8-1.6-.6-1.6-.3h-1.7c0-.1-1.7,0-1.7,0l-1.7.3-1.6.5-1.5.7-1.4.9-1.3,1.1-1.1,1.3-.9,1.4-.8,1.5-.5,1.6-.3,1.6v1.6c-.1,0,0,1.6,0,1.6l.3,1.6.5,1.5.7,1.4.9,1.3,1.1,1.2,1.2,1,1.4.8,1.5.6,1.5.4,1.6.2h1.6c0,0,1.6-.3,1.6-.3l1.5-.5,1.5-.7,1.4-.9,1.3-1.1,1.1-1.3,1-1.4.8-1.6.6-1.7.4-1.8.2-1.9v-1.9s-.3-1.9-.3-1.9l-.5-2-.7-1.9-.9-1.9-1.2-1.8-1.4-1.8-1.6-1.7-1.8-1.5-1.9-1.4-2.1-1.2-2.3-1.1-2.4-.9-2.5-.7-2.6-.5-2.7-.3h-2.8c0,0-2.8,0-2.8,0l-2.8.4-2.8.6-2.8.8-2.8,1.1-2.8,1.3-2.7,1.5-2.6,1.7-2.5,1.9-2.4,2.1-2.3,2.3-2.2,2.5-2,2.6-1.9,2.8-1.7,2.9-1.5,3.1-1.3,3.2-1.1,3.3-.9,3.4-.7,3.5-.5,3.5-.3,3.6v3.6c0,0,.1,3.6.1,3.6l.4,3.7.6,3.6.8,3.6,1.1,3.6,1.3,3.5,1.5,3.5,1.7,3.4,1.9,3.3,2.1,3.2,2.3,3.1,2.5,3,2.7,2.9,2.8,2.7,3,2.6,3.1,2.4,3.3,2.2,3.4,2,3.5,1.9,3.6,1.7,3.7,1.5,3.8,1.3,3.9,1,3.9.8,4,.6,4,.4,4,.2h4c0,0,4-.3,4-.3l4-.5,4-.7,3.9-.9,3.9-1.1,3.8-1.4,3.7-1.6,3.6-1.8,3.5-2,3.4-2.1,3.2-2.3,3.1-2.5,2.9-2.6,2.8-2.8,2.6-2.9,2.4-3.1,2.2-3.2,2-3.3,1.8-3.4,1.6-3.5,1.4-3.5,1.2-3.6.9-3.6.7-3.7.5-3.7.3-3.7v-3.6c0,0-.1-3.6-.1-3.6l-.4-3.6-.6-3.5-.8-3.4-1-3.4-1.2-3.3-1.4-3.1-1.6-3-1.8-2.9-1.9-2.7-2.1-2.6-2.2-2.4-2.4-2.2-2.5-2-2.6-1.8-2.7-1.6-2.8-1.4-2.8-1.2-2.8-.9-2.9-.7-2.9-.5-2.8-.2h-2.8s-2.7.2-2.7.2l-2.7.4-2.6.6-2.5.8-2.3,1-2.2,1.2-2,1.4-1.8,1.5-1.6,1.6-1.4,1.7-1.2,1.8-1,1.9-.8,1.9-.6,2-.3,2v1.9c0,0,0,1.9,0,1.9l.3,1.8.6,1.7.7,1.6.9,1.5,1.1,1.3,1.2,1.1,1.4,1,1.5.7,1.5.5,1.6.3h1.6c0,0,1.6,0,1.6,0l1.5-.3,1.5-.6,1.4-.8,1.3-.9,1.1-1.1,1-1.3.8-1.4.6-1.5.4-1.6.2-1.6v-1.6c0,0-.3-1.6-.3-1.6l-.5-1.6-.7-1.5-.9-1.4-1.1-1.3-1.3-1.1-1.4-1-1.5-.8-1.6-.6-1.7-.4h-1.7c0-.1-1.7,0-1.7,0l-1.7.3-1.6.5-1.5.7-1.4.9-1.2,1.1-1.1,1.2-.9,1.3-.7,1.4-.5,1.5-.3,1.6v1.6s.2,1.5.2,1.5l.4,1.5.6,1.4.8,1.3,1,1.1,1.1,1,1.3.8,1.4.6,1.4.4,1.5.2h1.5c0,0,1.4-.3,1.4-.3l1.4-.5,1.3-.7,1.1-.9,1-1,.8-1.2.6-1.3.4-1.4.2-1.4v-1.4s-.3-1.4-.3-1.4l-.5-1.4-.7-1.3-.9-1.2-1-1.1-1.2-.9-1.3-.7-1.4-.5-1.5-.3h-1.6c0-.1-1.6,0-1.6,0l-1.6.3-1.5.6-1.4.8-1.3,1-1.2,1.1-1,1.3-.8,1.4-.6,1.5-.4,1.6-.2,1.7v1.7s.2,1.7.2,1.7l.4,1.6.6,1.6.8,1.5,1,1.3,1.2,1.2,1.3,1,1.5.8,1.6.6,1.6.4,1.7.2h1.7s1.6-.3,1.6-.3l1.6-.5,1.5-.7,1.4-.9,1.2-1,1.1-1.2.9-1.3.7-1.4.5-1.5.3-1.5v-1.6s-.1-1.6-.1-1.6l-.4-1.5-.6-1.5-.8-1.4-1-1.3-1.2-1.2-1.4-1-1.5-.9-1.7-.7-1.8-.5-1.8-.3h-1.9c0,0-2,.1-2,.1l-2,.4-2,.6-1.9.8-1.9,1.1-1.8,1.3-1.7,1.5-1.6,1.7-1.5,1.9-1.3,2-1.1,2.2-1,2.3-.8,2.4-.6,2.6-.4,2.6-.2,2.7v2.8c0,0,.3,2.8.3,2.8l.5,2.8.7,2.8,1,2.8,1.2,2.8,1.4,2.7,1.6,2.6,1.8,2.6,2,2.5,2.2,2.3,2.4,2.2,2.6,2.1,2.7,1.9,2.9,1.7,3,1.6,3.2,1.4,3.3,1.2,3.4,1,3.5.8,3.5.6,3.6.4h3.6c0,.1,3.7,0,3.7,0l3.7-.3,3.7-.5,3.7-.7,3.6-1,3.6-1.2,3.5-1.4,3.5-1.6,3.4-1.8,3.3-2,3.2-2.2,3.1-2.4,2.9-2.6,2.8-2.7,2.6-2.9,2.5-3.1,2.3-3.2,2.1-3.3,1.9-3.5,1.7-3.6,1.5-3.7,1.3-3.7,1.1-3.8.9-3.9.7-3.9.5-4,.3-4v-4s-.1-4-.1-4l-.4-4-.6-3.9-.8-3.9-1.1-3.8-1.3-3.8-1.5-3.7-1.7-3.6-1.9-3.5-2.1-3.4-2.2-3.3-2.4-3.1-2.6-3-2.7-2.8-2.9-2.6-3-2.5-3.2-2.3-3.3-2.1-3.4-1.9-3.5-1.7-3.5-1.5-3.6-1.3-3.6-1-3.7-.8-3.7-.6-3.7-.4h-3.7c0-.1-3.7,0-3.7,0l-3.6.3-3.6.5-3.5.7-3.4.9-3.3,1.1-3.2,1.3-3.1,1.5-3,1.7-2.8,1.9-2.6,2-2.5,2.2-2.3,2.3-2.1,2.4-1.9,2.5-1.7,2.6-1.5,2.7-1.2,2.8-1,2.8-.8,2.8-.6,2.8-.3,2.8v2.8c-.1,0,0,2.7,0,2.7l.3,2.7.5,2.6.7,2.5.9,2.4,1.1,2.2,1.3,2.1,1.4,1.9,1.6,1.7,1.7,1.5,1.8,1.3,1.9,1.1,1.9.9,2,.6,2,.4,2,.2h1.9s1.9-.3,1.9-.3l1.8-.5,1.7-.7,1.5-.9,1.4-1,1.2-1.2,1-1.3.8-1.4.6-1.5.4-1.5.2-1.6v-1.6s-.3-1.6-.3-1.6l-.5-1.5-.7-1.4-.9-1.3-1.1-1.2-1.2-1-1.4-.9-1.5-.7-1.6-.5-1.6-.3h-1.7s-1.7.2-1.7.2l-1.6.4-1.6.6-1.5.8-1.4,1-1.2,1.2-1,1.3-.9,1.5-.7,1.6-.5,1.6-.2,1.7v1.7s.2,1.7.2,1.7l.4,1.6.6,1.5.8,1.4,1,1.3,1.2,1.1,1.3,1,1.4.8,1.5.6,1.6.3h1.6c0,.1,1.6,0,1.6,0l1.5-.3,1.4-.5,1.3-.7,1.2-.9,1.1-1.1.9-1.2.7-1.3.5-1.4.3-1.4v-1.4s-.2-1.4-.2-1.4l-.4-1.4-.6-1.3-.8-1.2-1-1-1.1-.9-1.3-.7-1.4-.5-1.4-.3h-1.5c0,0-1.5,0-1.5,0l-1.4.4-1.4.6-1.3.8-1.1,1-1,1.1-.8,1.3-.6,1.4-.4,1.5-.2,1.5v1.6s.3,1.5.3,1.5l.5,1.5.7,1.4.9,1.4,1.1,1.2,1.2,1.1,1.4.9,1.5.7,1.6.5,1.7.3h1.7c0,0,1.7,0,1.7,0l1.7-.3,1.6-.6,1.5-.8,1.4-1,1.3-1.1,1.1-1.3.9-1.4.7-1.5.5-1.6.3-1.6v-1.6c0,0,0-1.6,0-1.6l-.4-1.6-.6-1.5-.8-1.4-1-1.3-1.1-1.1-1.3-1-1.4-.8-1.5-.6-1.5-.4h-1.6c0-.1-1.6,0-1.6,0l-1.6.3-1.5.5-1.5.7-1.4.9-1.2,1.1-1.1,1.3-.9,1.4-.8,1.6-.6,1.7-.4,1.8v1.9c-.1,0,0,1.9,0,1.9l.3,1.9.5,2,.7,1.9,1,1.9,1.2,1.8,1.4,1.7,1.6,1.6,1.8,1.5,2,1.4,2.1,1.2,2.3,1,2.4.9,2.5.7,2.6.5,2.7.2h2.8s2.8-.2,2.8-.2l2.8-.4,2.8-.6,2.8-.9,2.8-1.1,2.8-1.3,2.7-1.5,2.6-1.7,2.5-1.9,2.4-2.1,2.3-2.3,2.1-2.5,2-2.7,1.8-2.8,1.7-3,1.5-3.1,1.3-3.2,1.1-3.3.9-3.4.7-3.5.5-3.5.2-3.6v-3.6s-.2-3.7-.2-3.7l-.4-3.7-.7-3.6-.9-3.6-1.1-3.6-1.3-3.5-1.5-3.5-1.7-3.4-1.9-3.3-2.1-3.2-2.3-3.1-2.5-3-2.7-2.8-2.9-2.7-3-2.5-3.2-2.4-3.3-2.2-3.4-2-3.5-1.8-3.7-1.6-3.7-1.4-3.8-1.2-3.9-1-3.9-.8-4-.6-4-.4h-4c0-.1-4,0-4,0l-4,.3-4,.5-4,.8-3.9,1-3.8,1.2-3.8,1.4-3.7,1.6-3.6,1.8-3.5,2-3.3,2.2-3.2,2.3-3,2.5-2.9,2.7-2.7,2.8-2.5,3-2.4,3.1-2.2,3.2-2,3.3-1.8,3.4-1.6,3.5-1.3,3.5-1.1,3.6-.9,3.6-.7,3.7-.5,3.7-.2,3.7v3.6s.2,3.6.2,3.6l.4,3.6.6,3.5.9,3.4,1.1,3.3,1.3,3.2,1.5,3.1,1.6,3,1.8,2.8,2,2.7,2.1,2.5,2.3,2.4,2.4,2.2,2.5,2,2.6,1.8,2.7,1.6,2.8,1.3,2.8,1.1,2.8.9,2.9.7,2.9.4,2.8.2h2.8s2.7-.3,2.7-.3l2.7-.5,2.6-.7,2.4-.9,2.3-1,2.2-1.2,2-1.4,1.8-1.5,1.6-1.6,1.4-1.8,1.2-1.8,1-1.9.7-1.9.5-2,.3-2v-1.9c0,0-.1-1.9-.1-1.9l-.4-1.8-.6-1.7-.8-1.6-1-1.4-1.1-1.3-1.3-1.1-1.4-.9-1.5-.7-1.5-.5-1.6-.3h-1.6c0,0-1.6.1-1.6.1l-1.5.4-1.5.6-1.4.8-1.2,1-1.1,1.1-.9,1.3-.8,1.4-.6,1.5-.3,1.6v1.6c-.1,0,0,1.6,0,1.6l.3,1.6.5,1.6.7,1.5.9,1.4,1.1,1.3,1.3,1.1,1.4.9,1.5.7,1.6.5,1.7.3h1.7c0,.1,1.7,0,1.7,0l1.6-.3,1.6-.6,1.5-.8,1.4-.9,1.2-1.1,1-1.2.9-1.4.7-1.5.4-1.5.2-1.6v-1.6s-.2-1.5-.2-1.5l-.4-1.5-.6-1.4-.8-1.3-1-1.1-1.2-.9-1.3-.8-1.4-.6-1.4-.3h-1.5c0-.1-1.5,0-1.5,0l-1.4.3-1.3.5-1.2.7-1.1.9-1,1.1-.8,1.2-.6,1.3-.4,1.4-.2,1.4v1.4c0,0,.4,1.4.4,1.4l.5,1.4.7,1.3.9,1.2,1.1,1,1.2.9,1.4.7,1.5.5,1.5.3h1.6c0,0,1.6,0,1.6,0l1.5-.4,1.5-.6,1.4-.8,1.3-1,1.2-1.2,1-1.3.8-1.4.6-1.5.4-1.6.2-1.7v-1.7s-.3-1.7-.3-1.7l-.5-1.6-.7-1.5-.9-1.4-1.1-1.3-1.2-1.2-1.4-1-1.5-.8-1.6-.6-1.6-.4-1.7-.2h-1.7c0,0-1.6.3-1.6.3l-1.6.5-1.5.7-1.3.9-1.2,1.1-1,1.2-.9,1.3-.7,1.4-.4,1.5-.2,1.6v1.6s.2,1.6.2,1.6l.4,1.5.7,1.5.9,1.4,1.1,1.3,1.2,1.1,1.4,1,1.5.8,1.7.6,1.8.4,1.9.2h1.9s2-.2,2-.2l2-.4,2-.7,1.9-.9,1.9-1.1,1.8-1.3,1.7-1.5,1.6-1.7,1.4-1.9,1.3-2.1,1.1-2.2.9-2.3.7-2.5.5-2.6.3-2.7v-2.7c.1,0,0-2.8,0-2.8l-.3-2.8-.5-2.8-.8-2.8-1-2.8-1.2-2.8-1.4-2.7-1.7-2.6-1.9-2.5-2.1-2.4-2.3-2.3-2.4-2.2-2.6-2-2.8-1.9-2.9-1.7-3.1-1.5-3.2-1.4-3.3-1.2-3.4-1-3.5-.8-3.6-.5-3.6-.3h-3.7c0-.1-3.7,0-3.7,0l-3.7.3-3.7.6-3.7.8-3.6,1-3.6,1.2-3.5,1.4-3.5,1.6-3.4,1.9-3.3,2.1-3.2,2.2-3,2.4-2.9,2.6-2.8,2.8-2.6,2.9-2.4,3.1-2.3,3.2-2.1,3.4-1.9,3.5-1.7,3.6-1.5,3.7-1.3,3.8-1.1,3.8-.9,3.9-.7,3.9-.4,4-.2,4v4s.2,4,.2,4l.4,4,.7,3.9.9,3.9,1.1,3.8,1.3,3.8,1.5,3.7,1.7,3.6,1.9,3.5,2.1,3.4,2.3,3.2,2.5,3.1,2.6,2.9,2.8,2.8,2.9,2.6,3,2.4,3.2,2.2,3.3,2.1,3.4,1.9,3.5,1.6,3.5,1.4,3.6,1.2,3.6,1,3.7.8,3.7.6,3.7.3h3.7c0,.1,3.7,0,3.7,0l3.6-.3,3.6-.6,3.5-.8,3.4-1,3.3-1.2,3.2-1.4,3.1-1.6,2.9-1.7,2.8-1.9,2.6-2.1,2.4-2.2,2.3-2.3,2.1-2.5,1.9-2.6,1.6-2.6,1.4-2.7,1.2-2.8,1-2.8.8-2.8.5-2.8.3-2.8v-2.8c0,0,0-2.7,0-2.7l-.4-2.7-.6-2.6-.8-2.5-1-2.3-1.2-2.2-1.3-2-1.5-1.9-1.6-1.7-1.7-1.5-1.8-1.3-1.9-1.1-1.9-.8-2-.6-2-.4-2-.2h-1.9c0,0-1.9.4-1.9.4l-1.8.5-1.7.7-1.5.9-1.4,1-1.2,1.2-1,1.3-.8,1.4-.6,1.5-.4,1.5-.2,1.6v1.6c0,0,.4,1.5.4,1.5l.5,1.5.7,1.4.9,1.3,1.1,1.2,1.2,1,1.4.8,1.5.6,1.6.4,1.6.2h1.7s1.7-.2,1.7-.2l1.6-.4,1.5-.7,1.5-.9,1.3-1,1.2-1.2,1-1.4.8-1.5.6-1.6.4-1.6.2-1.7v-1.7s-.3-1.7-.3-1.7l-.5-1.6-.7-1.5-.9-1.4-1-1.3-1.2-1.1-1.3-.9-1.4-.7-1.5-.5-1.6-.3h-1.6c0,0-1.6,0-1.6,0l-1.5.4-1.4.6-1.3.8-1.2.9-1,1.1-.8,1.2-.6,1.3-.4,1.4-.2,1.4v1.4s.2,1.4.2,1.4l.4,1.4.6,1.3.8,1.2,1,1,1.2.9,1.3.7,1.4.5,1.4.2h1.5s1.4-.2,1.4-.2l1.4-.4,1.3-.6,1.2-.8,1.1-1,1-1.2.8-1.3.6-1.4.4-1.5.2-1.5v-1.6c0,0-.3-1.5-.3-1.5l-.5-1.5-.7-1.4-.9-1.3-1.1-1.2-1.3-1.1-1.4-.9-1.5-.7-1.6-.5-1.7-.3h-1.7c0,0-1.7.1-1.7.1l-1.7.4-1.6.6-1.5.8-1.4,1-1.2,1.2-1.1,1.3-.9,1.4-.7,1.5-.5,1.6-.3,1.6v1.6s.2,1.6.2,1.6l.4,1.6.6,1.5.8,1.4,1,1.3,1.2,1.1,1.3.9,1.4.7,1.5.5,1.6.3h1.6c0,0,1.6,0,1.6,0l1.6-.3,1.5-.6,1.4-.8,1.3-1,1.2-1.2,1.1-1.3.9-1.5.7-1.6.5-1.7.3-1.8v-1.9c.1,0,0-1.9,0-1.9l-.3-1.9-.6-1.9-.8-1.9-1-1.9-1.2-1.8-1.4-1.7-1.6-1.6-1.8-1.5-2-1.3-2.2-1.2-2.3-1-2.4-.8-2.5-.6-2.6-.4-2.7-.2h-2.8s-2.8.2-2.8.2l-2.8.5-2.8.7-2.8.9-2.8,1.1-2.7,1.3-2.7,1.6-2.6,1.8-2.5,2-2.4,2.2-2.3,2.4-2.1,2.5-2,2.7-1.8,2.8-1.6,3-1.4,3.1-1.2,3.2-1,3.3-.8,3.4-.6,3.5-.4,3.6-.2,3.6v3.6s.3,3.7.3,3.7l.5,3.7.7,3.6.9,3.6,1.1,3.6,1.3,3.5,1.6,3.5,1.8,3.4,2,3.3,2.2,3.2,2.4,3.1,2.5,3,2.7,2.8,2.9,2.7,3,2.5,3.2,2.3,3.3,2.2,3.4,2,3.6,1.8,3.7,1.6,3.8,1.4,3.8,1.2,3.9,1,4,.8,4,.5,4,.3h4c0,0,4,0,4,0l4-.3,4-.6,3.9-.8,3.9-1,3.8-1.2,3.7-1.4,3.7-1.6,3.6-1.8,3.4-2,3.3-2.2,3.2-2.4,3-2.5,2.9-2.7,2.7-2.8,2.5-3,2.3-3.1,2.1-3.2,1.9-3.3,1.7-3.4,1.5-3.5,1.3-3.5,1.1-3.6.9-3.6.7-3.7.4-3.7.2-3.7v-3.6s-.3-3.6-.3-3.6l-.5-3.6-.7-3.5-.9-3.4-1.1-3.3-1.3-3.2-1.5-3.1-1.7-3-1.8-2.8-2-2.7-2.2-2.5-2.3-2.3-2.4-2.1-2.5-1.9-2.6-1.7-2.7-1.5-2.8-1.3-2.8-1.1-2.9-.9-2.9-.6-2.9-.4-2.8-.2h-2.8c0,0-2.7.3-2.7.3l-2.6.5-2.5.7-2.4.9-2.3,1.1-2.1,1.2-2,1.4-1.8,1.5-1.6,1.7-1.4,1.8-1.2,1.9-.9,1.9-.7,2-.5,2-.2,2v1.9s.2,1.9.2,1.9l.4,1.8.6,1.7.8,1.6,1,1.4,1.1,1.3,1.3,1.1,1.4.9,1.5.7,1.5.5,1.6.2h1.6s1.6-.2,1.6-.2l1.5-.4,1.5-.6,1.4-.8,1.2-1,1.1-1.2.9-1.3.7-1.4.5-1.5.3-1.6v-1.6c0,0,0-1.6,0-1.6l-.4-1.6-.6-1.6-.8-1.5-1-1.4-1.1-1.2-1.3-1.1-1.4-.9-1.5-.7-1.6-.5-1.7-.3h-1.7c0,0-1.7,0-1.7,0l-1.6.4-1.6.6-1.5.8-1.3,1-1.2,1.1-1,1.3-.8,1.4-.6,1.5-.4,1.5-.2,1.6v1.6s.3,1.5.3,1.5l.5,1.5.7,1.4.9,1.2,1,1.1,1.2.9,1.3.7,1.4.5,1.4.3h1.5c0,0,1.4,0,1.4,0l1.4-.4,1.3-.6,1.2-.8,1.1-.9.9-1.1.7-1.2.6-1.3.3-1.4v-1.4c.1,0,0-1.4,0-1.4l-.3-1.4-.5-1.4-.7-1.3-.9-1.2-1.1-1-1.2-.9-1.4-.7-1.5-.5-1.5-.3h-1.6s-1.6.2-1.6.2l-1.5.4-1.5.6-1.4.8-1.3,1-1.1,1.2-1,1.3-.8,1.5-.6,1.6-.4,1.6-.2,1.7v1.7c0,0,.4,1.7.4,1.7l.5,1.6.7,1.5.9,1.4,1.1,1.3,1.3,1.1,1.4,1,1.5.8,1.6.6,1.6.3h1.7c0,.1,1.7,0,1.7,0l1.6-.3,1.5-.5,1.4-.7,1.3-.9,1.2-1.1,1-1.2.8-1.3.6-1.4.4-1.5.2-1.6v-1.6s-.3-1.6-.3-1.6l-.5-1.5-.7-1.5-.9-1.4-1.1-1.3-1.3-1.1-1.4-1-1.6-.8-1.7-.6-1.8-.4-1.9-.2h-1.9s-2,.3-2,.3l-2,.5-2,.7-1.9.9-1.9,1.1-1.8,1.3-1.7,1.5-1.6,1.7-1.4,1.9-1.3,2.1-1.1,2.2-.9,2.4-.7,2.5-.5,2.6-.3,2.7v2.7c0,0,0,2.8,0,2.8l.4,2.8.6,2.8.8,2.8,1,2.8,1.3,2.7,1.5,2.7,1.7,2.6,1.9,2.5,2.1,2.4,2.3,2.3,2.5,2.2,2.6,2,2.8,1.9,2.9,1.7,3.1,1.5,3.2,1.3,3.3,1.1,3.4.9,3.5.7,3.6.5,3.6.3h3.7c0,0,3.7,0,3.7,0l3.7-.4,3.7-.6,3.7-.8,3.6-1,3.6-1.3,3.5-1.5,3.4-1.7,3.4-1.9,3.3-2.1,3.1-2.3,3-2.5,2.9-2.6,2.7-2.8,2.6-3,2.4-3.1,2.2-3.2,2.1-3.4,1.9-3.5,1.7-3.6,1.5-3.7,1.3-3.8,1.1-3.8.8-3.9.6-3.9.4-4,.2-4v-4s-.3-4-.3-4l-.5-4-.7-3.9-.9-3.9-1.1-3.8-1.3-3.7-1.5-3.7-1.7-3.6-1.9-3.5-2.1-3.3-2.3-3.2-2.5-3.1-2.6-2.9-2.8-2.8-2.9-2.6-3.1-2.4-3.2-2.2-3.3-2-3.4-1.8-3.5-1.6-3.6-1.4-3.6-1.2-3.7-1-3.7-.7-3.7-.5-3.7-.3h-3.7c0,0-3.7,0-3.7,0l-3.6.4-3.6.6-3.5.8-3.4,1-3.3,1.2-3.2,1.4-3,1.6-2.9,1.8-2.8,1.9-2.6,2.1-2.4,2.2-2.2,2.4-2,2.5-1.8,2.6-1.6,2.7-1.4,2.7-1.2,2.8-1,2.8-.7,2.8-.5,2.8-.3,2.8v2.8s.1,2.7.1,2.7l.4,2.6.6,2.6.8,2.4,1,2.3,1.2,2.2,1.3,2,1.5,1.8,1.6,1.7,1.7,1.5,1.8,1.2,1.9,1,2,.8,2,.6,2,.3h2c0,.1,1.9,0,1.9,0l1.8-.3,1.7-.5,1.6-.7,1.5-.9,1.3-1.1,1.2-1.2,1-1.3.8-1.4.6-1.5.3-1.6v-1.6c.1,0,0-1.6,0-1.6l-.3-1.5-.5-1.5-.7-1.4-.9-1.3-1.1-1.1-1.3-1-1.4-.8-1.5-.6-1.6-.4-1.6-.2h-1.7s-1.6.3-1.6.3l-1.6.5-1.5.7-1.4.9-1.3,1.1-1.2,1.2-1,1.4-.8,1.5-.6,1.6-.4,1.6-.2,1.7v1.7c0,0,.3,1.6.3,1.6l.5,1.6.7,1.5.9,1.4,1.1,1.2,1.2,1.1,1.3.9,1.4.7,1.5.5,1.6.3h1.6c0,0,1.6-.1,1.6-.1l1.5-.4,1.4-.6,1.3-.8,1.2-1,1-1.1.8-1.2.6-1.3.4-1.4.2-1.4v-1.4s-.3-1.4-.3-1.4l-.5-1.4-.7-1.3-.9-1.1-1-1-1.2-.8-1.3-.6-1.4-.4-1.4-.2h-1.5s-1.4.2-1.4.2l-1.4.4-1.3.7-1.2.8-1.1,1-.9,1.2-.7,1.3-.6,1.4-.3,1.5v1.5c-.1,0,0,1.6,0,1.6l.3,1.5.5,1.5.7,1.4.9,1.3,1.1,1.2,1.3,1,1.4.9,1.5.7,1.6.5,1.7.2h1.7s1.7-.2,1.7-.2l1.6-.4,1.6-.6,1.5-.8,1.4-1,1.2-1.2,1-1.3.9-1.4.7-1.5.4-1.6.2-1.6v-1.6s-.2-1.6-.2-1.6l-.4-1.6-.6-1.5-.8-1.4-1-1.2-1.2-1.1-1.3-.9-1.4-.7-1.5-.5-1.6-.3h-1.6c0,0-1.6,0-1.6,0l-1.6.4-1.5.6-1.4.8-1.3,1-1.2,1.2-1,1.3-.9,1.5-.7,1.6-.5,1.7-.3,1.8v1.9c0,0,0,1.9,0,1.9l.4,1.9.6,1.9.8,1.9,1,1.9,1.3,1.8,1.5,1.7,1.7,1.6,1.8,1.5,2,1.3,2.2,1.2,2.3,1,2.5.8,2.6.6,2.7.4,2.7.2h2.8s2.8-.3,2.8-.3l2.8-.5,2.8-.7,2.8-.9,2.8-1.2,2.7-1.4,2.7-1.6,2.6-1.8,2.5-2,2.4-2.2,2.2-2.4,2.1-2.6,1.9-2.7,1.8-2.9,1.6-3,1.4-3.1,1.2-3.2,1-3.3.8-3.4.6-3.5.4-3.6.2-3.6v-3.6c0,0-.3-3.7-.3-3.7l-.5-3.7-.7-3.6-.9-3.6-1.2-3.6-1.4-3.5-1.6-3.5-1.8-3.4-2-3.3-2.2-3.2-2.4-3.1-2.6-2.9-2.7-2.8-2.9-2.6-3.1-2.5-3.2-2.3-3.3-2.1-3.5-2-3.6-1.8-3.7-1.6-3.8-1.4-3.8-1.2-3.9-.9-4-.7-4-.5-4-.3h-4c0,0-4,.1-4,.1l-4,.4-4,.6-3.9.8-3.9,1-3.8,1.2-3.7,1.5-3.6,1.7-3.5,1.9-3.4,2-3.3,2.2-3.1,2.4-3,2.6-2.8,2.7-2.7,2.9-2.5,3-2.3,3.1-2.1,3.2-1.9,3.3-1.7,3.4-1.5,3.5-1.3,3.6-1.1,3.6-.8,3.6-.6,3.7-.4,3.7-.2,3.7v3.6c0,0,.3,3.6.3,3.6l.5,3.5.7,3.5.9,3.4,1.1,3.3,1.3,3.2,1.5,3.1,1.7,2.9,1.9,2.8,2,2.6,2.2,2.5,2.3,2.3,2.4,2.1,2.5,1.9,2.6,1.7,2.7,1.5,2.8,1.3,2.8,1,2.9.8,2.9.6,2.9.4h2.8c0,.1,2.8,0,2.8,0l2.7-.3,2.6-.5,2.5-.7,2.4-.9,2.3-1.1,2.1-1.3,1.9-1.4,1.7-1.6,1.5-1.7,1.3-1.8,1.1-1.9.9-1.9.7-2,.4-2,.2-2v-1.9s-.3-1.9-.3-1.9l-.4-1.8-.6-1.7-.8-1.5-1-1.4-1.2-1.2-1.3-1-1.4-.9-1.5-.6-1.6-.4-1.6-.2h-1.6s-1.6.2-1.6.2l-1.5.5-1.4.7-1.3.9-1.2,1-1.1,1.2-.9,1.3-.7,1.5-.5,1.5-.3,1.6v1.6c0,0,.1,1.6.1,1.6l.4,1.6.6,1.6.8,1.5,1,1.4,1.2,1.2,1.3,1.1,1.5.9,1.6.7,1.6.5,1.7.3h1.7s1.7-.2,1.7-.2l1.6-.4,1.6-.6,1.4-.8,1.3-1,1.2-1.2,1-1.3.8-1.4.6-1.5.4-1.5v-1.6c.1,0,0-1.6,0-1.6l-.3-1.5-.5-1.4-.7-1.3-.9-1.2-1.1-1.1-1.2-.9-1.3-.7-1.4-.5-1.4-.3h-1.5c0,0-1.4.1-1.4.1l-1.4.4-1.3.6-1.2.8-1.1,1-.9,1.1-.7,1.2-.5,1.3-.3,1.4v1.4c0,0,0,1.4,0,1.4l.4,1.4.6,1.3.8,1.3,1,1.1,1.1,1,1.3.8,1.4.6,1.5.4,1.5.2h1.6s1.6-.2,1.6-.2l1.5-.4,1.5-.7,1.4-.9,1.2-1,1.1-1.2.9-1.4.7-1.5.5-1.6.3-1.6v-1.7c.1,0,0-1.7,0-1.7l-.3-1.7-.5-1.6-.7-1.5-.9-1.4-1.1-1.3-1.3-1.1-1.4-.9-1.5-.7-1.6-.5-1.6-.3h-1.7c0,0-1.6,0-1.6,0l-1.6.4-1.5.6-1.4.8-1.3.9-1.1,1.1-1,1.2-.8,1.4-.6,1.5-.4,1.5-.2,1.6v1.6c0,0,.4,1.6.4,1.6l.5,1.5.7,1.4.9,1.4,1.1,1.2,1.3,1.1,1.4.9,1.6.8,1.7.6,1.8.4,1.9.2h1.9s2-.3,2-.3l2-.5,2-.7,1.9-.9,1.8-1.2,1.8-1.4,1.7-1.6,1.5-1.8,1.4-1.9,1.2-2.1,1.1-2.3.9-2.4.7-2.5.5-2.6.3-2.7v-2.7c0,0-.1-2.8-.1-2.8l-.4-2.8-.6-2.8-.8-2.8-1.1-2.8-1.3-2.7-1.5-2.7-1.7-2.6-1.9-2.5-2.1-2.4-2.3-2.3-2.5-2.1-2.7-2-2.8-1.8-3-1.7-3.1-1.5-3.2-1.3-3.3-1.1-3.4-.9-3.5-.7-3.6-.5-3.6-.3h-3.7s-3.7.1-3.7.1l-3.7.4-3.7.6-3.7.9-3.6,1.1-3.6,1.3-3.5,1.5-3.4,1.7-3.3,1.9-3.2,2.1-3.1,2.3-3,2.5-2.9,2.7-2.7,2.8-2.6,3-2.4,3.1-2.2,3.3-2,3.4-1.8,3.5-1.6,3.6-1.4,3.7-1.2,3.8-1,3.9-.8,3.9-.6,3.9-.4,4-.2,4v4c0,0,.4,4,.4,4l.5,4,.7,3.9.9,3.9,1.2,3.8,1.4,3.7,1.6,3.7,1.8,3.6,2,3.4,2.2,3.3,2.3,3.2,2.5,3,2.7,2.9,2.8,2.7,3,2.6,3.1,2.4,3.2,2.2,3.3,2,3.4,1.8,3.5,1.6,3.6,1.4,3.6,1.2,3.7.9,3.7.7,3.7.5,3.7.3h3.7s3.6-.1,3.6-.1l3.6-.4,3.5-.6,3.5-.8,3.4-1,3.3-1.2,3.2-1.4,3-1.6,2.9-1.8,2.7-2,2.6-2.1,2.4-2.2,2.2-2.4,2-2.5,1.8-2.6,1.6-2.7,1.4-2.7,1.1-2.8.9-2.8.7-2.8.5-2.8.2-2.8v-2.8s-.2-2.7-.2-2.7l-.4-2.6-.6-2.5-.8-2.4-1-2.3-1.2-2.2-1.4-2-1.5-1.8-1.6-1.6-1.8-1.4-1.8-1.2-1.9-1-2-.8-2-.5-2-.3h-2c0,0-1.9,0-1.9,0l-1.8.4-1.7.6-1.6.8-1.5.9-1.3,1.1-1.1,1.2-.9,1.4-.7,1.4-.5,1.5-.3,1.6v1.6c0,0,0,1.6,0,1.6l.4,1.5.6,1.5.8,1.4,1,1.3,1.1,1.1,1.3,1,1.4.8,1.5.6,1.6.4h1.6c0,.1,1.7,0,1.7,0l1.6-.3,1.6-.5,1.5-.7,1.4-.9,1.3-1.1,1.1-1.3,1-1.4.8-1.5.6-1.6.3-1.6v-1.7c.1,0,0-1.7,0-1.7l-.3-1.6-.5-1.6-.7-1.5-.9-1.4-1.1-1.2-1.2-1.1-1.4-.9-1.5-.7-1.5-.5-1.6-.2h-1.6s-1.5.2-1.5.2l-1.5.4-1.4.6-1.3.8-1.1,1-1,1.1-.8,1.3-.6,1.3-.4,1.4v1.4c-.1,0,0,1.4,0,1.4l.3,1.4.5,1.3.7,1.2.9,1.1,1.1,1,1.2.8,1.3.6,1.4.4,1.4.2h1.5s1.4-.3,1.4-.3l1.4-.5,1.3-.7,1.2-.9,1.1-1.1.9-1.2.7-1.3.5-1.4.3-1.5v-1.5c0,0,0-1.6,0-1.6l-.4-1.5-.6-1.5-.8-1.4-1-1.3-1.1-1.2-1.3-1-1.4-.8-1.5-.6-1.6-.4-1.7-.2h-1.7s-1.7.2-1.7.2l-1.6.5-1.6.7-1.5.9-1.3,1-1.2,1.2-1,1.3-.8,1.5-.6,1.6-.4,1.6-.2,1.6v1.6s.3,1.6.3,1.6l.5,1.6.7,1.5.9,1.3,1,1.2,1.2,1,1.3.9,1.4.7,1.5.5,1.6.2h1.6s1.6-.2,1.6-.2l1.6-.4,1.5-.6,1.4-.8,1.3-1,1.2-1.2,1-1.4.8-1.5.7-1.6.5-1.8.3-1.8v-1.9s-.1-1.9-.1-1.9l-.4-2-.6-1.9-.9-1.9-1.1-1.9-1.3-1.8-1.5-1.7-1.7-1.6-1.9-1.4-2-1.3-2.2-1.1-2.3-1-2.5-.8-2.6-.6-2.7-.4h-2.7c0-.1-2.8,0-2.8,0l-2.8.3-2.8.5-2.8.8-2.8,1-2.8,1.2-2.7,1.4-2.7,1.6-2.6,1.8-2.5,2-2.3,2.2-2.2,2.4-2.1,2.6-1.9,2.7-1.7,2.9-1.6,3-1.4,3.2-1.2,3.3-1,3.4-.8,3.4-.6,3.5-.3,3.6v3.6c-.1,0,0,3.6,0,3.6l.3,3.7.5,3.7.8,3.6,1,3.6,1.2,3.6,1.4,3.5,1.6,3.4,1.8,3.4,2,3.3,2.2,3.2,2.4,3,2.6,2.9,2.8,2.8,2.9,2.6,3.1,2.5,3.2,2.3,3.4,2.1,3.5,1.9,3.6,1.7,3.7,1.5,3.8,1.3,3.9,1.1,3.9.9,4,.7,4,.5,4,.2h4s4-.2,4-.2l4-.4,4-.6,3.9-.9,3.9-1.1,3.8-1.3,3.7-1.5,3.6-1.7,3.5-1.9,3.4-2.1,3.3-2.3,3.1-2.4,3-2.6,2.8-2.7,2.6-2.9,2.5-3,2.3-3.1,2.1-3.2,1.9-3.3,1.7-3.4,1.5-3.5,1.2-3.6,1-3.6.8-3.6.6-3.7.4-3.7v-3.7c.1,0,0-3.6,0-3.6l-.3-3.6-.5-3.5-.7-3.5-1-3.4-1.2-3.3-1.4-3.2-1.5-3.1-1.7-2.9-1.9-2.8-2.1-2.6-2.2-2.4-2.3-2.3-2.5-2.1-2.6-1.9-2.7-1.7-2.7-1.5-2.8-1.2-2.8-1-2.9-.8-2.9-.6-2.8-.3h-2.8c0,0-2.8,0-2.8,0l-2.7.3-2.6.6-2.5.8-2.4,1-2.2,1.1-2.1,1.3-1.9,1.5-1.7,1.6-1.5,1.7-1.3,1.8-1.1,1.9-.9,1.9-.6,2-.4,2-.2,2v1.9c0,0,.3,1.8.3,1.8l.5,1.8.7,1.6.9,1.5,1,1.4,1.2,1.2,1.3,1,1.4.8,1.5.6,1.6.4,1.6.2h1.6s1.6-.3,1.6-.3l1.5-.5,1.4-.7,1.3-.9,1.2-1.1,1-1.2.9-1.4.7-1.5.5-1.6.2-1.6v-1.6s-.2-1.6-.2-1.6l-.4-1.6-.6-1.5-.8-1.5-1-1.3-1.2-1.2-1.3-1-1.5-.8-1.6-.6-1.6-.4-1.7-.2h-1.7s-1.7.2-1.7.2l-1.6.4-1.5.6-1.4.8-1.3,1-1.1,1.2-1,1.3-.8,1.4-.5,1.5-.3,1.5v1.6c-.1,0,0,1.5,0,1.5l.3,1.5.5,1.4.7,1.3.9,1.2,1.1,1,1.2.9,1.3.7,1.4.5,1.4.2h1.5s1.4-.2,1.4-.2l1.4-.4,1.3-.6,1.2-.8,1-1,.9-1.1.7-1.3.5-1.3.3-1.4v-1.4c0,0-.1-1.4-.1-1.4l-.4-1.4-.6-1.3-.8-1.2-1-1.1-1.1-1-1.3-.8-1.4-.6-1.5-.4-1.5-.2h-1.6s-1.6.3-1.6.3l-1.5.5-1.5.7-1.4.9-1.2,1.1-1.1,1.2-.9,1.4-.7,1.5-.5,1.6-.3,1.6v1.7c0,0,0,1.7,0,1.7l.4,1.6.6,1.6.8,1.5,1,1.4,1.1,1.2,1.3,1.1,1.4.9,1.5.7,1.6.5,1.6.3h1.7c0,0,1.6-.1,1.6-.1l1.6-.4,1.5-.6,1.4-.8,1.3-1,1.1-1.1.9-1.3.8-1.4.6-1.5.3-1.5v-1.6c.1,0,0-1.6,0-1.6l-.3-1.6-.5-1.5-.8-1.4-1-1.3-1.1-1.2-1.3-1.1-1.5-.9-1.6-.7-1.7-.6-1.8-.3h-1.9c0-.1-1.9,0-1.9,0l-2,.3-2,.5-1.9.8-1.9,1-1.8,1.2-1.7,1.4-1.6,1.6-1.5,1.8-1.4,2-1.2,2.1-1,2.3-.8,2.4-.7,2.5-.4,2.6-.2,2.7v2.8s.2,2.8.2,2.8l.4,2.8.7,2.8.9,2.8,1.1,2.8,1.3,2.7,1.5,2.7,1.8,2.6,2,2.5,2.2,2.4,2.3,2.3,2.5,2.1,2.7,2,2.8,1.8,3,1.6,3.1,1.5,3.2,1.3,3.3,1.1,3.4.9,3.5.7,3.6.4,3.6.2h3.7s3.7-.2,3.7-.2l3.7-.4,3.7-.7,3.7-.9,3.6-1.1,3.6-1.3,3.5-1.5,3.4-1.7,3.3-1.9,3.2-2.1,3.1-2.3,3-2.5,2.8-2.7,2.7-2.9,2.5-3,2.4-3.2,2.2-3.3,2-3.4,1.8-3.5,1.6-3.6,1.4-3.7,1.2-3.8,1-3.9.8-3.9.6-4,.3-4v-4c.1,0,0-4,0-4l-.3-4-.5-4-.8-3.9-1-3.9-1.2-3.8-1.4-3.7-1.6-3.6-1.8-3.5-2-3.4-2.2-3.3-2.4-3.2-2.5-3-2.7-2.9-2.8-2.7-3-2.5-3.1-2.3-3.2-2.2-3.3-2-3.4-1.8-3.5-1.5-3.6-1.3-3.6-1.1-3.7-.9-3.7-.7-3.7-.5-3.7-.2h-3.7s-3.6.2-3.6.2l-3.6.4-3.5.7-3.5.9-3.4,1.1-3.3,1.3-3.1,1.5-3,1.6-2.9,1.8-2.7,2-2.5,2.1-2.4,2.3-2.2,2.4-2,2.5-1.8,2.6-1.5,2.7-1.3,2.7-1.1,2.8-.9,2.8-.6,2.8-.4,2.8-.2,2.8v2.8s.3,2.7.3,2.7l.5,2.6.7,2.5.9,2.4,1.1,2.3,1.2,2.1,1.4,2,1.5,1.8,1.7,1.6,1.8,1.4,1.9,1.2,1.9,1,2,.7,2,.5,2,.3h1.9s1.9-.1,1.9-.1l1.8-.4,1.7-.6,1.6-.8,1.4-1,1.3-1.1,1.1-1.3.9-1.4.7-1.5.5-1.5.3-1.6v-1.6s-.1-1.6-.1-1.6l-.4-1.5-.6-1.4-.8-1.4-1-1.2-1.2-1.1-1.3-.9-1.4-.7-1.5-.5-1.6-.3h-1.6c0-.1-1.7,0-1.7,0l-1.6.3-1.6.5-1.5.8-1.4.9-1.3,1.1-1.1,1.3-.9,1.4-.7,1.5-.5,1.6-.3,1.7v1.7c0,0,0,1.7,0,1.7l.4,1.6.6,1.6.8,1.5,1,1.3,1.1,1.2,1.3,1,1.4.8,1.5.6,1.5.4,1.6.2h1.6s1.5-.3,1.5-.3l1.5-.5,1.4-.7,1.3-.8,1.1-1,.9-1.2.7-1.3.5-1.4.3-1.4v-1.4c.1,0,0-1.4,0-1.4l-.3-1.4-.5-1.3-.7-1.2-.9-1.1-1.1-.9-1.2-.8-1.3-.6-1.4-.4h-1.4c0-.1-1.5,0-1.5,0l-1.4.3-1.4.5-1.3.7-1.2.9-1,1.1-.9,1.2-.7,1.4-.5,1.4-.3,1.5v1.5c0,0,.1,1.6.1,1.6l.4,1.5.6,1.5.8,1.4,1,1.3,1.2,1.1,1.3,1,1.5.8,1.6.6,1.6.4,1.7.2h1.7s1.7-.3,1.7-.3l1.6-.5,1.6-.7,1.4-.9,1.3-1.1,1.2-1.2,1-1.4.8-1.5.6-1.6.4-1.6v-1.6c.1,0,0-1.6,0-1.6l-.3-1.6-.5-1.5-.7-1.4-.9-1.3-1.1-1.2-1.2-1-1.3-.8-1.4-.6-1.5-.4-1.6-.2h-1.6s-1.6.2-1.6.2l-1.5.4-1.5.7-1.4.9-1.3,1.1-1.1,1.2-1,1.4-.8,1.5-.6,1.7-.4,1.8-.2,1.8v1.9s.2,1.9.2,1.9l.4,2,.7,1.9.9,1.9,1.1,1.9,1.3,1.8,1.5,1.7,1.7,1.6,1.9,1.4,2.1,1.3,2.2,1.1,2.4.9,2.5.7,2.6.5,2.7.3h2.8c0,.1,2.8,0,2.8,0l2.8-.3,2.8-.6,2.8-.8,2.8-1,2.8-1.2,2.7-1.5,2.6-1.7,2.6-1.9,2.4-2.1,2.3-2.3,2.2-2.4,2-2.6,1.9-2.8,1.7-2.9,1.5-3,1.3-3.2,1.2-3.3,1-3.4.7-3.5.5-3.5.3-3.6v-3.6c0,0,0-3.6,0-3.6l-.4-3.7-.6-3.7-.8-3.6-1-3.6-1.2-3.6-1.4-3.5-1.7-3.4-1.9-3.3-2.1-3.2-2.3-3.1-2.4-3-2.6-2.9-2.8-2.7-3-2.6-3.1-2.4-3.3-2.3-3.4-2.1-3.5-1.9-3.6-1.7-3.7-1.5-3.8-1.3-3.9-1.1-3.9-.9-4-.7-4-.4-4-.2h-4s-4,.2-4,.2l-4,.5-4,.7-3.9.9-3.9,1.1-3.8,1.3-3.7,1.5-3.6,1.7-3.5,1.9-3.4,2.1-3.2,2.3-3.1,2.5-2.9,2.6-2.8,2.8-2.6,2.9-2.4,3-2.2,3.2-2,3.3-1.8,3.4-1.6,3.4-1.4,3.5-1.2,3.6-1,3.6-.8,3.6-.5,3.7-.3,3.7v3.7c0,0,0,3.6,0,3.6l.3,3.6.6,3.5.8,3.5,1,3.4,1.2,3.3,1.4,3.2,1.6,3,1.7,2.9,1.9,2.7,2.1,2.6,2.2,2.4,2.4,2.2,2.5,2,2.6,1.8,2.7,1.6,2.7,1.4,2.8,1.2,2.8,1,2.9.7,2.9.5,2.8.3h2.8c0,0,2.8,0,2.8,0l2.7-.4,2.6-.6,2.5-.8,2.4-1,2.2-1.2,2-1.3,1.9-1.5,1.7-1.6,1.5-1.7,1.3-1.8,1-1.9.8-1.9.6-2,.4-2v-1.9c.1,0,0-1.9,0-1.9l-.3-1.8-.5-1.7-.7-1.6-.9-1.5-1.1-1.3-1.2-1.2-1.3-1-1.4-.8-1.5-.6-1.6-.4h-1.6c0-.1-1.6,0-1.6,0l-1.6.3-1.5.5-1.4.7-1.3.9-1.2,1.1-1,1.2-.8,1.4-.6,1.5-.4,1.6-.2,1.6v1.6s.3,1.6.3,1.6l.5,1.6.7,1.5.9,1.4,1.1,1.3,1.2,1.2,1.4,1,1.5.8,1.6.6,1.7.4,1.7.2h1.7s1.7-.3,1.7-.3l1.6-.5,1.5-.7,1.4-.9,1.3-1,1.1-1.2.9-1.3.7-1.4.5-1.5.3-1.5v-1.6c0,0,0-1.5,0-1.5l-.4-1.5-.6-1.4-.8-1.3-.9-1.2-1.1-1-1.2-.8-1.3-.6-1.4-.4-1.5-.2h-1.5s-1.4.3-1.4.3l-1.4.5-1.3.7-1.2.8-1,1-.8,1.2-.7,1.3-.5,1.4-.2,1.4v1.4s.2,1.4.2,1.4l.4,1.4.6,1.3.8,1.2,1,1.1,1.2.9,1.3.8,1.4.6,1.5.4h1.6c0,.1,1.6,0,1.6,0l1.6-.3,1.5-.5,1.4-.7,1.3-.9,1.2-1.1,1.1-1.3.9-1.4.7-1.5.5-1.6.3-1.6v-1.7s-.1-1.7-.1-1.7l-.4-1.6-.6-1.6-.8-1.5-1-1.4-1.2-1.2-1.3-1.1-1.4-.9-1.5-.7-1.6-.5-1.7-.2h-1.7s-1.6.2-1.6.2l-1.6.4-1.5.6-1.4.8-1.3,1-1.1,1.2-.9,1.3-.7,1.4-.5,1.5-.3,1.5v1.6c0,0,0,1.6,0,1.6l.4,1.5.6,1.5.8,1.4,1,1.3,1.2,1.2,1.3,1.1,1.5.9,1.6.7,1.7.5,1.8.3h1.9c0,0,1.9,0,1.9,0l2-.3,2-.6,1.9-.8,1.9-1,1.8-1.2,1.7-1.4,1.6-1.6,1.5-1.8,1.3-2,1.2-2.2,1-2.3.8-2.4.6-2.5.4-2.6.2-2.7v-2.8s-.3-2.8-.3-2.8l-.5-2.8-.7-2.8-.9-2.8-1.1-2.8-1.4-2.7-1.6-2.7-1.8-2.6-2-2.5-2.2-2.4-2.4-2.2-2.6-2.1-2.7-1.9-2.9-1.8-3-1.6-3.1-1.4-3.3-1.2-3.4-1-3.5-.8-3.5-.6-3.6-.4-3.6-.2h-3.7s-3.7.3-3.7.3l-3.7.5-3.7.7-3.7.9-3.6,1.1-3.6,1.4-3.5,1.6-3.4,1.8-3.3,2-3.2,2.2-3.1,2.4-3,2.5-2.8,2.7-2.7,2.9-2.5,3-2.3,3.2-2.2,3.3-2,3.4-1.8,3.5-1.6,3.6-1.4,3.7-1.2,3.8-1,3.9-.7,3.9-.5,4-.3,4v4c0,0,0,4,0,4l.4,4,.6,4,.8,3.9,1,3.9,1.2,3.8,1.4,3.7,1.6,3.6,1.8,3.5,2,3.4,2.2,3.3,2.4,3.1,2.6,3,2.7,2.8,2.9,2.7,3,2.5,3.1,2.3,3.2,2.1,3.3,1.9,3.4,1.7,3.5,1.5,3.6,1.3,3.6,1.1,3.7.9,3.7.6,3.7.4,3.7.2h3.7s3.6-.3,3.6-.3l3.6-.5,3.5-.7,3.4-.9,3.3-1.1,3.2-1.3,3.1-1.5,3-1.7,2.8-1.8,2.7-2,2.5-2.2,2.3-2.3,2.1-2.4,1.9-2.5,1.7-2.6,1.5-2.7,1.3-2.8,1.1-2.8.8-2.8.6-2.8.4-2.8.2-2.8v-2.8c0,0-.4-2.7-.4-2.7l-.5-2.6-.7-2.5-.9-2.4-1.1-2.3-1.3-2.1-1.4-1.9-1.6-1.8-1.7-1.6-1.8-1.4-1.9-1.1-1.9-.9-2-.7-2-.5-2-.2h-1.9s-1.9.2-1.9.2l-1.8.4-1.7.6-1.6.8-1.4,1-1.3,1.1-1.1,1.3-.9,1.4-.7,1.5-.5,1.5-.2,1.6v1.6s.2,1.6.2,1.6l.4,1.5.6,1.4.8,1.3,1,1.2,1.2,1.1,1.3.9,1.5.7,1.5.5,1.6.3h1.7c0,0,1.7,0,1.7,0l1.6-.4,1.6-.6,1.5-.8,1.4-1,1.2-1.2,1.1-1.3.9-1.4.7-1.5.5-1.6.3-1.7v-1.7c0,0-.1-1.7-.1-1.7l-.4-1.6-.6-1.5-.8-1.4-1-1.3-1.1-1.2-1.3-1-1.4-.8-1.5-.6-1.5-.4-1.6-.2h-1.6c0,0-1.5.3-1.5.3l-1.5.5-1.4.7-1.2.9-1.1,1-.9,1.2-.7,1.3-.5,1.4-.3,1.4v1.4c0,0,0,1.4,0,1.4l.4,1.4.6,1.3.8,1.2,1,1.1,1.1.9,1.2.7,1.3.5,1.4.3h1.4c0,.1,1.5,0,1.5,0l1.4-.3,1.4-.5,1.3-.8,1.2-.9,1-1.1.8-1.2.7-1.4.5-1.5.2-1.5v-1.6s-.2-1.6-.2-1.6l-.4-1.5-.6-1.5-.8-1.4-1-1.3-1.2-1.1-1.3-.9-1.5-.8-1.6-.6-1.6-.4h-1.7c0-.1-1.7,0-1.7,0l-1.7.3-1.6.5-1.5.7-1.4.9-1.3,1.1-1.1,1.3-1,1.4-.8,1.5-.5,1.6-.3,1.6v1.6c-.1,0,0,1.6,0,1.6l.3,1.6.5,1.5.7,1.4.9,1.3,1.1,1.2,1.2,1,1.4.8,1.5.6,1.5.4,1.6.2h1.6s1.6-.3,1.6-.3l1.5-.5,1.5-.7,1.4-.9,1.3-1.1,1.1-1.3,1-1.4.8-1.6.6-1.7.4-1.8.2-1.9v-1.9s-.3-1.9-.3-1.9l-.5-2-.7-1.9-.9-1.9-1.1-1.8-1.4-1.8-1.6-1.7-1.8-1.5-1.9-1.4-2.1-1.2-2.3-1.1-2.4-.9-2.5-.7-2.6-.5-2.7-.3h-2.8c0,0-2.8,0-2.8,0l-2.8.4-2.8.6-2.8.8-2.8,1.1-2.8,1.3-2.7,1.5-2.6,1.7-2.5,1.9-2.4,2.1-2.3,2.3-2.2,2.5-2,2.6-1.9,2.8-1.7,2.9-1.5,3.1-1.3,3.2-1.1,3.3-.9,3.4-.7,3.5-.5,3.5-.3,3.6v3.6c0,0,.1,3.6.1,3.6l.4,3.7.6,3.7.8,3.6,1.1,3.6,1.3,3.6,1.5,3.5,1.7,3.4,1.9,3.3,2.1,3.2,2.3,3.1,2.5,3,2.7,2.9,2.8,2.7,3,2.6,3.1,2.4,3.3,2.2,3.4,2,3.5,1.9,3.6,1.7,3.7,1.5,3.8,1.3,3.9,1,3.9.8,4,.6,4,.4,4,.2h4s4-.3,4-.3l4-.5,4-.7,3.9-.9,3.9-1.1,3.8-1.4,3.7-1.6,3.6-1.8,3.5-1.9,3.4-2.1,3.2-2.3,3.1-2.5,2.9-2.6,2.8-2.8,2.6-2.9,2.4-3.1,2.2-3.2,2-3.3,1.8-3.4,1.6-3.5,1.4-3.5,1.2-3.6,1-3.6.7-3.7.5-3.7.3-3.7v-3.6c0,0-.1-3.6-.1-3.6l-.4-3.6-.6-3.5-.8-3.4-1-3.4-1.2-3.3-1.4-3.1-1.6-3-1.8-2.9-1.9-2.7-2.1-2.6-2.2-2.4-2.4-2.2-2.5-2-2.6-1.8-2.7-1.6-2.8-1.4-2.8-1.2-2.8-.9-2.9-.7-2.9-.5-2.8-.3h-2.8s-2.7.2-2.7.2l-2.7.4-2.6.6-2.5.8-2.3,1-2.2,1.2-2,1.4-1.8,1.5-1.6,1.6-1.4,1.7-1.2,1.8-1,1.9-.8,1.9-.6,2-.3,2v1.9c0,0,0,1.9,0,1.9l.3,1.8.5,1.7.7,1.6.9,1.5,1.1,1.3,1.2,1.1,1.4,1,1.5.8,1.5.5,1.6.3h1.6c0,.1,1.6,0,1.6,0l1.5-.3,1.5-.6,1.4-.8,1.3-.9,1.1-1.1,1-1.3.8-1.4.6-1.5.4-1.6.2-1.6v-1.6c0,0-.3-1.6-.3-1.6l-.5-1.6-.7-1.5-.9-1.4-1.1-1.3-1.2-1.1-1.4-1-1.5-.8-1.6-.6-1.7-.4h-1.7c0-.1-1.7,0-1.7,0l-1.7.3-1.6.5-1.5.7-1.4.9-1.2,1.1-1.1,1.2-.9,1.3-.7,1.4-.5,1.5-.3,1.6v1.6s.2,1.5.2,1.5l.4,1.5.6,1.4.8,1.3,1,1.1,1.1,1,1.3.8,1.4.6,1.4.4,1.5.2h1.5c0,0,1.4-.3,1.4-.3l1.4-.5,1.3-.7,1.1-.9,1-1,.8-1.2.6-1.3.4-1.4.2-1.4v-1.4s-.3-1.4-.3-1.4l-.5-1.4-.7-1.3-.9-1.2-1-1.1-1.2-.9-1.3-.7-1.4-.5-1.5-.3h-1.6c0-.1-1.6,0-1.6,0l-1.6.3-1.5.5-1.4.8-1.3.9-1.2,1.1-1,1.3-.8,1.4-.7,1.5-.4,1.6-.2,1.7v1.7s.2,1.7.2,1.7l.4,1.6.6,1.6.8,1.5,1,1.3,1.2,1.2,1.3,1,1.5.8,1.6.6,1.6.4,1.7.2h1.7s1.6-.3,1.6-.3l1.6-.5,1.5-.7,1.4-.9,1.2-1,1.1-1.2.9-1.3.7-1.4.5-1.5.3-1.5v-1.6s-.1-1.6-.1-1.6l-.4-1.5-.6-1.5-.8-1.4-1-1.3-1.2-1.2-1.4-1-1.5-.9-1.6-.7-1.8-.5-1.8-.3h-1.9c0,0-2,0-2,0l-2,.4-2,.6-1.9.8-1.9,1.1-1.8,1.3-1.7,1.5-1.6,1.7-1.5,1.9-1.3,2-1.2,2.2-1,2.3-.8,2.4-.6,2.5-.4,2.6-.2,2.7v2.8c0,0,.3,2.8.3,2.8l.5,2.8.7,2.8,1,2.8,1.2,2.8,1.4,2.7,1.6,2.6,1.8,2.6,2,2.5,2.2,2.3,2.4,2.2,2.6,2.1,2.7,1.9,2.9,1.8,3,1.6,3.2,1.4,3.3,1.2,3.4,1,3.5.8,3.5.6,3.6.4h3.6c0,.1,3.7,0,3.7,0l3.7-.3,3.7-.5,3.7-.7,3.6-1,3.6-1.2,3.5-1.4,3.5-1.6,3.4-1.8,3.3-2,3.2-2.2,3.1-2.4,2.9-2.6,2.8-2.7,2.6-2.9,2.5-3.1,2.3-3.2,2.1-3.3,1.9-3.5,1.8-3.6,1.6-3.7,1.3-3.7,1.1-3.8.9-3.9.7-3.9.5-4,.3-4v-4s-.1-4-.1-4l-.4-4-.6-3.9-.8-3.9-1.1-3.8-1.3-3.8-1.5-3.7-1.7-3.6-1.9-3.5-2.1-3.4-2.2-3.3-2.4-3.1-2.6-3-2.7-2.8-2.9-2.6-3-2.5-3.1-2.3-3.3-2.1-3.4-1.9-3.5-1.7-3.5-1.5-3.6-1.3-3.6-1-3.7-.8-3.7-.6-3.7-.4-3.7-.2h-3.7c0,0-3.6.4-3.6.4l-3.6.5-3.5.7-3.4.9-3.3,1.1-3.2,1.3-3.1,1.5-3,1.7-2.8,1.9-2.6,2-2.5,2.2-2.3,2.3-2.1,2.4-1.9,2.5-1.7,2.6-1.5,2.7-1.3,2.8-1,2.8-.8,2.8-.6,2.8-.3,2.8v2.8c-.1,0,0,2.7,0,2.7l.3,2.7.5,2.6.7,2.5.9,2.4,1.1,2.2,1.3,2.1,1.4,1.9,1.6,1.7,1.7,1.5,1.8,1.3,1.9,1.1,1.9.9,2,.7,2,.4,2,.2h1.9s1.9-.3,1.9-.3l1.8-.5,1.7-.7,1.5-.8,1.4-1,1.2-1.2,1-1.3.8-1.4.6-1.5.4-1.5.2-1.6v-1.6s-.3-1.6-.3-1.6l-.5-1.5-.7-1.4-.9-1.3-1.1-1.2-1.2-1-1.4-.9-1.5-.7-1.6-.5-1.6-.3h-1.7s-1.7.1-1.7.1l-1.6.4-1.6.6-1.5.8-1.4,1-1.2,1.2-1,1.3-.9,1.5-.7,1.6-.5,1.6-.2,1.7v1.7s.2,1.7.2,1.7l.4,1.6.6,1.5.8,1.4,1,1.3,1.2,1.1,1.3,1,1.4.8,1.5.6,1.6.4h1.6c0,.1,1.6,0,1.6,0l1.5-.3,1.4-.5,1.3-.7,1.2-.9,1.1-1.1.9-1.2.7-1.3.5-1.4.3-1.4v-1.4s-.2-1.4-.2-1.4l-.4-1.4-.6-1.3-.8-1.2-1-1-1.1-.9-1.3-.7-1.4-.5-1.4-.3h-1.5c0,0-1.5,0-1.5,0l-1.4.4-1.4.6-1.3.8-1.1,1-1,1.1-.8,1.3-.6,1.4-.4,1.5-.2,1.5v1.6s.3,1.5.3,1.5l.5,1.5.7,1.4.9,1.4,1.1,1.2,1.2,1.1,1.4.9,1.5.7,1.6.5,1.7.3h1.7c0,.1,1.7,0,1.7,0l1.7-.3,1.6-.6,1.5-.8,1.4-1,1.3-1.1,1.1-1.3.9-1.4.7-1.5.5-1.6.3-1.6v-1.6c0,0,0-1.6,0-1.6l-.4-1.6-.6-1.5-.8-1.4-1-1.3-1.1-1.1-1.3-1-1.4-.8-1.5-.6-1.5-.4h-1.6c0-.1-1.6,0-1.6,0l-1.6.3-1.5.5-1.5.7-1.4.9-1.2,1.1-1.1,1.3-.9,1.4-.8,1.6-.6,1.7-.4,1.8-.2,1.9v1.9c0,0,.4,1.9.4,1.9l.5,2,.7,1.9,1,1.9,1.2,1.8,1.4,1.7,1.6,1.6,1.8,1.5,2,1.4,2.1,1.2,2.3,1,2.4.9,2.5.7,2.6.5,2.7.3h2.8s2.8-.2,2.8-.2l2.8-.4,2.8-.6,2.8-.9,2.8-1.1,2.8-1.3,2.7-1.5,2.6-1.7,2.5-1.9,2.4-2.1,2.3-2.3,2.1-2.5,2-2.7,1.8-2.8,1.7-3,1.5-3.1,1.3-3.2,1.1-3.3.9-3.4.7-3.5.5-3.5.2-3.6v-3.6s-.2-3.7-.2-3.7l-.4-3.7-.6-3.6-.9-3.6-1.1-3.6-1.3-3.5-1.5-3.5-1.7-3.4-1.9-3.3-2.1-3.2-2.3-3.1-2.5-3-2.7-2.8-2.9-2.7-3-2.5-3.2-2.4-3.3-2.2-3.4-2-3.5-1.8-3.6-1.6-3.7-1.4-3.8-1.2-3.9-1-3.9-.8-4-.6-4-.4h-4c0-.1-4,0-4,0l-4,.3-4,.5-4,.7-3.9,1-3.8,1.2-3.8,1.4-3.7,1.6-3.6,1.8-3.5,2-3.3,2.2-3.2,2.3-3.1,2.5-2.9,2.7-2.7,2.8-2.6,3-2.4,3.1-2.2,3.2-2,3.3-1.8,3.4-1.6,3.5-1.4,3.5-1.1,3.6-.9,3.6-.7,3.7-.5,3.7-.2,3.7v3.6s.2,3.6.2,3.6l.4,3.6.6,3.5.8,3.4,1.1,3.3,1.3,3.2,1.4,3.1,1.6,3,1.8,2.9,2,2.7,2.1,2.5,2.3,2.4,2.4,2.2,2.5,2,2.6,1.8,2.7,1.6,2.8,1.3,2.8,1.1,2.8.9,2.9.7,2.9.4,2.8.2h2.8s2.7-.2,2.7-.2l2.7-.4,2.6-.7,2.4-.9,2.3-1,2.2-1.2,2-1.4,1.8-1.5,1.6-1.6,1.4-1.8,1.2-1.8,1-1.9.7-1.9.5-2,.3-2v-1.9c0,0,0-1.9,0-1.9l-.4-1.8-.6-1.7-.8-1.6-1-1.4-1.1-1.3-1.3-1.1-1.4-.9-1.5-.7-1.5-.5-1.6-.3h-1.6c0,0-1.6,0-1.6,0l-1.5.4-1.5.6-1.4.8-1.3,1-1.1,1.1-.9,1.3-.8,1.4-.6,1.5-.4,1.6v1.6c-.1,0,0,1.6,0,1.6l.3,1.6.5,1.6.7,1.5.9,1.4,1.1,1.3,1.3,1.1,1.4.9,1.5.8,1.6.5,1.7.3h1.7c0,.1,1.7,0,1.7,0l1.7-.3,1.6-.5,1.5-.7,1.4-.9,1.2-1.1,1-1.2.9-1.4.7-1.5.4-1.5.2-1.6v-1.6s-.2-1.5-.2-1.5l-.4-1.5-.6-1.4-.8-1.3-1-1.1-1.1-1-1.3-.8-1.4-.6-1.4-.3h-1.5c0-.1-1.5,0-1.5,0l-1.4.3-1.3.5-1.2.7-1.1.9-1,1.1-.8,1.2-.6,1.3-.4,1.4-.2,1.4v1.4c0,0,.3,1.4.3,1.4l.5,1.4.7,1.3.9,1.2,1.1,1,1.2.9,1.3.7,1.5.5,1.5.3h1.6c0,0,1.6,0,1.6,0l1.5-.4,1.5-.6,1.4-.8,1.3-1,1.2-1.2,1-1.3.8-1.4.6-1.5.4-1.6.2-1.7v-1.7s-.3-1.7-.3-1.7l-.5-1.6-.7-1.5-.9-1.4-1.1-1.3-1.2-1.2-1.4-1-1.5-.8-1.6-.6-1.6-.4-1.7-.2h-1.7c0,0-1.6.3-1.6.3l-1.6.5-1.5.7-1.3.9-1.2,1.1-1,1.2-.9,1.3-.7,1.4-.4,1.5-.2,1.6v1.6s.2,1.6.2,1.6l.4,1.5.6,1.5.9,1.4,1,1.3,1.2,1.2,1.4,1,1.5.8,1.7.7,1.8.5,1.9.2h1.9s2-.2,2-.2l2-.4,2-.6,1.9-.9,1.9-1.1,1.8-1.3,1.7-1.5,1.6-1.7,1.4-1.9,1.3-2,1.1-2.2.9-2.3.8-2.5.6-2.6.3-2.7v-2.7c.1,0,0-2.8,0-2.8l-.3-2.8-.5-2.8-.8-2.8-1-2.8-1.2-2.8-1.4-2.7-1.6-2.6-1.9-2.5-2.1-2.4-2.2-2.3-2.4-2.2-2.6-2-2.8-1.9-2.9-1.7-3.1-1.5-3.2-1.4-3.3-1.2-3.4-1-3.5-.8-3.6-.6-3.6-.3h-3.7c0-.1-3.7,0-3.7,0l-3.7.3-3.7.6-3.7.8-3.6,1-3.6,1.2-3.5,1.4-3.5,1.6-3.4,1.8-3.3,2-3.2,2.2-3,2.4-2.9,2.6-2.8,2.8-2.6,2.9-2.5,3.1-2.3,3.2-2.1,3.4-1.9,3.5-1.7,3.6-1.5,3.7-1.3,3.8-1.1,3.8-.9,3.9-.7,3.9-.5,4-.2,4v4s.2,4,.2,4l.4,4,.7,3.9.9,3.9,1.1,3.8,1.3,3.8,1.5,3.7,1.7,3.6,1.9,3.5,2.1,3.4,2.3,3.2,2.4,3.1,2.6,2.9,2.8,2.8,2.9,2.6,3,2.4,3.2,2.3,3.3,2.1,3.4,1.9,3.5,1.7,3.5,1.4,3.6,1.2,3.6,1,3.7.8,3.7.6,3.7.3h3.7c0,.1,3.7,0,3.7,0l3.6-.3,3.6-.5,3.5-.8,3.4-1,3.3-1.2,3.2-1.4,3.1-1.6,2.9-1.7,2.8-1.9,2.6-2.1,2.4-2.2,2.3-2.3,2.1-2.4,1.9-2.6,1.7-2.6,1.4-2.7,1.2-2.8,1-2.8.8-2.8.5-2.8.3-2.8v-2.8c0,0,0-2.7,0-2.7l-.4-2.7-.6-2.6-.8-2.5-1-2.3-1.1-2.2-1.3-2-1.5-1.9-1.6-1.7-1.7-1.5-1.8-1.3-1.9-1.1-1.9-.8-2-.6-2-.4-2-.2h-1.9c0,0-1.9.4-1.9.4l-1.8.5-1.7.7-1.5.9-1.4,1-1.2,1.2-1,1.3-.8,1.4-.6,1.5-.4,1.5-.2,1.6v1.6c0,0,.3,1.5.3,1.5l.5,1.5.7,1.4.9,1.3,1.1,1.2,1.2,1,1.4.8,1.5.6,1.6.4,1.6.2h1.7s1.7-.2,1.7-.2l1.6-.4,1.6-.6,1.5-.8,1.3-1,1.2-1.2,1-1.3.8-1.5.6-1.6.4-1.6.2-1.7v-1.7s-.3-1.7-.3-1.7l-.5-1.6-.7-1.5-.9-1.4-1-1.3-1.2-1.1-1.3-.9-1.4-.7-1.5-.5-1.6-.3h-1.6c0,0-1.6,0-1.6,0l-1.5.3-1.4.6-1.3.8-1.2.9-1,1.1-.8,1.2-.7,1.3-.4,1.4-.2,1.4v1.4s.2,1.4.2,1.4l.4,1.4.6,1.3.8,1.2,1,1,1.2.9,1.3.7,1.4.5,1.4.3h1.5s1.4-.2,1.4-.2l1.4-.4,1.3-.6,1.2-.8,1.1-1,1-1.2.8-1.3.6-1.4.4-1.5.2-1.5v-1.6c0,0-.3-1.5-.3-1.5l-.5-1.5-.7-1.4-.9-1.3-1.1-1.2-1.3-1.1-1.4-.9-1.5-.7-1.6-.5-1.7-.3h-1.7c0,0-1.7,0-1.7,0l-1.7.4-1.6.6-1.5.8-1.4,1-1.2,1.2-1.1,1.3-.9,1.4-.7,1.5-.5,1.6-.3,1.6v1.6s.1,1.6.1,1.6l.4,1.6.6,1.5.8,1.4,1,1.3,1.1,1.1,1.3.9,1.4.7,1.5.5,1.5.3h1.6c0,.1,1.6,0,1.6,0l1.6-.3,1.5-.6,1.4-.8,1.3-1,1.2-1.1,1.1-1.3.9-1.5.7-1.6.5-1.7.3-1.8v-1.9c.1,0,0-1.9,0-1.9l-.3-1.9-.6-1.9-.8-1.9-1-1.9-1.2-1.8-1.4-1.7-1.6-1.6-1.8-1.5-2-1.4-2.2-1.2-2.3-1-2.4-.8-2.5-.6-2.6-.4-2.7-.2h-2.8s-2.8.2-2.8.2l-2.8.4-2.8.7-2.8.9-2.8,1.1-2.7,1.3-2.7,1.6-2.6,1.8-2.5,2-2.4,2.2-2.3,2.3-2.1,2.5-2,2.7-1.8,2.8-1.6,3-1.4,3.1-1.3,3.2-1.1,3.3-.9,3.4-.6,3.5-.4,3.6-.2,3.6v3.6s.3,3.7.3,3.7l.5,3.7.7,3.6.9,3.6,1.1,3.6,1.3,3.5,1.6,3.5,1.8,3.4,2,3.3,2.2,3.2,2.4,3.1,2.5,3,2.7,2.8,2.9,2.7,3,2.5,3.2,2.3,3.3,2.2,3.4,2,3.6,1.8,3.7,1.6,3.8,1.4,3.8,1.2,3.9,1,4,.8,4,.5,4,.3h4c0,.1,4,0,4,0l4-.3,4-.6,3.9-.8,3.9-1,3.8-1.2,3.7-1.4,3.7-1.6,3.6-1.8,3.4-2,3.3-2.2,3.2-2.4,3-2.5,2.9-2.7,2.7-2.8,2.5-3,2.3-3.1,2.1-3.2,1.9-3.3,1.7-3.4,1.5-3.5,1.3-3.5,1.1-3.6.9-3.6.7-3.7.4-3.7.2-3.7v-3.6s-.2-3.6-.2-3.6l-.5-3.6-.7-3.5-.9-3.4-1.1-3.3-1.3-3.2-1.5-3.1-1.7-3-1.8-2.8-2-2.7-2.1-2.5-2.3-2.3-2.4-2.1-2.5-1.9-2.6-1.7-2.7-1.5-2.8-1.3-2.8-1.1-2.9-.9-2.9-.6-2.9-.4-2.8-.2h-2.8s-2.7.3-2.7.3l-2.6.5-2.5.7-2.4.9-2.3,1.1-2.1,1.2-2,1.4-1.8,1.5-1.6,1.7-1.4,1.8-1.2,1.9-.9,1.9-.7,2-.5,2-.3,2v1.9s.2,1.9.2,1.9l.4,1.8.6,1.7.8,1.6,1,1.4,1.1,1.3,1.3,1.1,1.4.9,1.5.7,1.5.5,1.6.3h1.6s1.6-.2,1.6-.2l1.5-.4,1.5-.6,1.4-.8,1.2-1,1.1-1.2.9-1.3.7-1.4.5-1.5.3-1.6v-1.6c0,0,0-1.6,0-1.6l-.3-1.6-.6-1.6-.8-1.5-1-1.4-1.1-1.2-1.3-1.1-1.4-.9-1.5-.7-1.6-.5-1.7-.3h-1.7c0,0-1.7,0-1.7,0l-1.6.4-1.6.6-1.5.8-1.3,1-1.2,1.1-1,1.3-.8,1.4-.6,1.5-.4,1.5-.2,1.6v1.6s.3,1.5.3,1.5l.5,1.5.7,1.4.9,1.2,1,1.1,1.2.9,1.3.7,1.4.5,1.4.3h1.5c0,0,1.4,0,1.4,0l1.4-.3,1.3-.6,1.2-.8,1.1-.9.9-1.1.8-1.2.6-1.3.3-1.4v-1.4c.1,0,0-1.4,0-1.4l-.3-1.4-.5-1.4-.7-1.3-.9-1.2-1.1-1-1.2-.9-1.4-.7-1.5-.5-1.5-.3h-1.6s-1.6.1-1.6.1l-1.5.4-1.5.6-1.4.8-1.3,1-1.1,1.2-1,1.3-.8,1.5-.6,1.6-.4,1.6-.2,1.7v1.7c0,0,.4,1.7.4,1.7l.5,1.6.7,1.5.9,1.4,1.1,1.3,1.2,1.1,1.4,1,1.5.8,1.6.6,1.6.4h1.7c0,.1,1.7,0,1.7,0l1.6-.3,1.5-.5,1.4-.7,1.3-.9,1.2-1.1,1-1.2.8-1.3.6-1.4.4-1.5.2-1.6v-1.6s-.3-1.6-.3-1.6l-.5-1.5-.7-1.5-.9-1.4-1.1-1.3-1.3-1.1-1.4-1-1.6-.8-1.7-.6-1.8-.4-1.9-.2h-1.9s-2,.2-2,.2l-2,.5-2,.7-1.9.9-1.9,1.1-1.8,1.3-1.7,1.5-1.6,1.7-1.4,1.9-1.3,2.1-1.1,2.2-.9,2.4-.7,2.5-.5,2.6-.3,2.7v2.7c0,0,0,2.8,0,2.8l.4,2.8.6,2.8.8,2.8,1,2.8,1.3,2.7,1.5,2.7,1.7,2.6,1.9,2.5,2.1,2.4,2.3,2.3,2.5,2.2,2.6,2,2.8,1.9,2.9,1.7,3.1,1.5,3.2,1.3,3.3,1.1,3.4.9,3.5.7,3.6.5,3.6.3h3.7c0,0,3.7,0,3.7,0l3.7-.4,3.7-.6,3.7-.8,3.6-1,3.6-1.2,3.5-1.5,3.5-1.7,3.4-1.9,3.3-2.1,3.2-2.3,3-2.5,2.9-2.6,2.7-2.8,2.6-3,2.4-3.1,2.3-3.2,2.1-3.4,1.9-3.5,1.7-3.6,1.5-3.7,1.3-3.8,1.1-3.8.9-3.9.6-3.9.4-4,.2-4v-1.5h0"/>
        </g>
      </g>
    </g>
  </g>
</svg>