<?xml version="1.0" encoding="UTF-8"?><svg id="Layer_1" xmlns="http://www.w3.org/2000/svg" xmlns:xlink="http://www.w3.org/1999/xlink" viewBox="0 0 1723.5 690.14"><defs><style>.cls-1{filter:url(#drop-shadow-8);stroke:red;}.cls-1,.cls-2{stroke-dasharray:10;stroke-linecap:round;stroke-width:3px;}.cls-1,.cls-2,.cls-3,.cls-4{fill:none;}.cls-1,.cls-2,.cls-4{stroke-linejoin:round;}.cls-5{filter:url(#drop-shadow-1);}.cls-6{filter:url(#drop-shadow-3);}.cls-7{filter:url(#drop-shadow-2);}.cls-8{filter:url(#drop-shadow-5);}.cls-9{filter:url(#drop-shadow-4);}.cls-10{fill:#fcfafa;}.cls-10,.cls-3{stroke-miterlimit:10;}.cls-10,.cls-3,.cls-4{stroke:#000;}.cls-2{filter:url(#drop-shadow-9);stroke:#fff;}.cls-11{fill:#fff;}</style><filter id="drop-shadow-1" x="-11.12" y="138.84" width="971.12" height="551.3" filterUnits="userSpaceOnUse"><feOffset dx="3" dy="3"/><feGaussianBlur result="blur" stdDeviation="5"/><feFlood flood-color="#000" flood-opacity=".5"/><feComposite in2="blur" operator="in"/><feComposite in="SourceGraphic"/></filter><filter id="drop-shadow-2" x="614.34" y="141.85" width="84.96" height="85.44" filterUnits="userSpaceOnUse"><feOffset dx="3" dy="3"/><feGaussianBlur result="blur-2" stdDeviation="5"/><feFlood flood-color="#000" flood-opacity=".5"/><feComposite in2="blur-2" operator="in"/><feComposite in="SourceGraphic"/></filter><filter id="drop-shadow-3" x="701.22" y="141.85" width="84.96" height="85.44" filterUnits="userSpaceOnUse"><feOffset dx="3" dy="3"/><feGaussianBlur result="blur-3" stdDeviation="5"/><feFlood flood-color="#000" flood-opacity=".5"/><feComposite in2="blur-3" operator="in"/><feComposite in="SourceGraphic"/></filter><filter id="drop-shadow-4" x="778.02" y="141.85" width="85.44" height="85.44" filterUnits="userSpaceOnUse"><feOffset dx="3" dy="3"/><feGaussianBlur result="blur-4" stdDeviation="5"/><feFlood flood-color="#000" flood-opacity=".5"/><feComposite in2="blur-4" operator="in"/><feComposite in="SourceGraphic"/></filter><filter id="drop-shadow-5" x="867.3" y="141.85" width="84.96" height="85.44" filterUnits="userSpaceOnUse"><feOffset dx="3" dy="3"/><feGaussianBlur result="blur-5" stdDeviation="5"/><feFlood flood-color="#000" flood-opacity=".5"/><feComposite in2="blur-5" operator="in"/><feComposite in="SourceGraphic"/></filter><filter id="drop-shadow-8" x="1316.42" y="82.86" width="224.16" height="100.8" filterUnits="userSpaceOnUse"><feOffset dx="3" dy="3"/><feGaussianBlur result="blur-6" stdDeviation="4"/><feFlood flood-color="#000" flood-opacity=".75"/><feComposite in2="blur-6" operator="in"/><feComposite in="SourceGraphic"/></filter><filter id="drop-shadow-9" x="1032.67" y="46.38" width="224.64" height="100.32" filterUnits="userSpaceOnUse"><feOffset dx="3" dy="3"/><feGaussianBlur result="blur-7" stdDeviation="4"/><feFlood flood-color="#000" flood-opacity=".75"/><feComposite in2="blur-7" operator="in"/><feComposite in="SourceGraphic"/></filter></defs><g class="cls-5"><rect class="cls-11" x="1.5" y="151.64" width="459" height="507"/><rect class="cls-3" x="1.5" y="151.64" width="459" height="507"/></g><g class="cls-7"><circle class="cls-10" cx="653.69" cy="181.42" r="26.72"/><path d="M653.05,172.84h-.06l-3.53,1.91-.53-2.09,4.44-2.38h2.34v20.31h-2.66v-17.75Z"/></g><g class="cls-6"><circle class="cls-10" cx="740.69" cy="181.42" r="26.72"/><path d="M734.09,190.59v-1.69l2.16-2.09c5.19-4.94,7.53-7.56,7.56-10.62,0-2.06-1-3.97-4.03-3.97-1.84,0-3.38.94-4.31,1.72l-.88-1.94c1.41-1.19,3.41-2.06,5.75-2.06,4.38,0,6.22,3,6.22,5.91,0,3.75-2.72,6.78-7,10.91l-1.62,1.5v.06h9.12v2.28h-12.97Z"/></g><g class="cls-9"><circle class="cls-10" cx="817.69" cy="181.42" r="26.72"/><path d="M811.74,187.43c.78.5,2.59,1.28,4.5,1.28,3.53,0,4.62-2.25,4.59-3.94-.03-2.84-2.59-4.06-5.25-4.06h-1.53v-2.06h1.53c2,0,4.53-1.03,4.53-3.44,0-1.62-1.03-3.06-3.56-3.06-1.62,0-3.19.72-4.06,1.34l-.72-2c1.06-.78,3.12-1.56,5.31-1.56,4,0,5.81,2.38,5.81,4.84,0,2.09-1.25,3.88-3.75,4.78v.06c2.5.5,4.53,2.38,4.53,5.22,0,3.25-2.53,6.09-7.41,6.09-2.28,0-4.28-.72-5.28-1.38l.75-2.12Z"/></g><g class="cls-8"><circle class="cls-10" cx="906.69" cy="181.42" r="26.72"/><path d="M908.59,190.59v-5.53h-9.44v-1.81l9.06-12.97h2.97v12.62h2.84v2.16h-2.84v5.53h-2.59ZM908.59,182.9v-6.78c0-1.06.03-2.12.09-3.19h-.09c-.62,1.19-1.12,2.06-1.69,3l-4.97,6.91v.06h6.66Z"/></g><path d="M71.01,56.43v37.25h-4.81v-37.25h4.81Z"/><path d="M79.8,74.17c0-2.76-.06-5.03-.22-7.24h4.26l.22,4.31h.17c1.49-2.54,3.98-4.92,8.4-4.92,3.65,0,6.41,2.21,7.57,5.36h.11c.83-1.49,1.88-2.65,2.98-3.48,1.6-1.22,3.37-1.88,5.91-1.88,3.54,0,8.79,2.32,8.79,11.61v15.75h-4.75v-15.14c0-5.14-1.88-8.23-5.8-8.23-2.76,0-4.92,2.04-5.75,4.42-.22.66-.39,1.55-.39,2.43v16.52h-4.75v-16.03c0-4.26-1.88-7.35-5.58-7.35-3.04,0-5.25,2.43-6.02,4.86-.28.72-.39,1.55-.39,2.38v16.14h-4.75v-19.51Z"/><path d="M140.7,93.68l-.39-3.37h-.17c-1.49,2.1-4.37,3.98-8.18,3.98-5.42,0-8.18-3.81-8.18-7.68,0-6.47,5.75-10,16.08-9.95v-.55c0-2.21-.61-6.19-6.08-6.19-2.49,0-5.08.77-6.96,1.99l-1.11-3.21c2.21-1.44,5.42-2.38,8.79-2.38,8.18,0,10.17,5.58,10.17,10.94v10c0,2.32.11,4.59.44,6.41h-4.42ZM139.98,80.03c-5.31-.11-11.33.83-11.33,6.02,0,3.15,2.1,4.64,4.59,4.64,3.48,0,5.69-2.21,6.47-4.48.17-.5.28-1.05.28-1.55v-4.64Z"/><path d="M175.58,66.93c-.11,1.93-.22,4.09-.22,7.35v15.53c0,6.13-1.22,9.89-3.81,12.21-2.6,2.43-6.36,3.21-9.73,3.21s-6.74-.77-8.9-2.21l1.22-3.7c1.77,1.11,4.53,2.1,7.85,2.1,4.97,0,8.62-2.6,8.62-9.34v-2.98h-.11c-1.49,2.49-4.37,4.48-8.51,4.48-6.63,0-11.39-5.64-11.39-13.04,0-9.06,5.91-14.2,12.05-14.2,4.64,0,7.18,2.43,8.35,4.64h.11l.22-4.03h4.26ZM170.55,77.49c0-.83-.06-1.55-.28-2.21-.88-2.82-3.26-5.14-6.8-5.14-4.64,0-7.96,3.92-7.96,10.11,0,5.25,2.65,9.62,7.9,9.62,2.98,0,5.69-1.88,6.74-4.97.28-.83.39-1.77.39-2.6v-4.81Z"/><path d="M186.13,81.19c.11,6.58,4.31,9.28,9.17,9.28,3.48,0,5.58-.61,7.41-1.38l.83,3.48c-1.71.77-4.64,1.66-8.9,1.66-8.23,0-13.15-5.42-13.15-13.49s4.75-14.42,12.55-14.42c8.73,0,11.05,7.68,11.05,12.6,0,.99-.11,1.77-.17,2.27h-18.79ZM200.39,77.71c.06-3.1-1.27-7.9-6.74-7.9-4.92,0-7.07,4.53-7.46,7.9h14.2Z"/><path d="M225.54,81.19c.11,6.58,4.31,9.28,9.17,9.28,3.48,0,5.58-.61,7.41-1.38l.83,3.48c-1.71.77-4.64,1.66-8.9,1.66-8.23,0-13.15-5.42-13.15-13.49s4.75-14.42,12.55-14.42c8.73,0,11.05,7.68,11.05,12.6,0,.99-.11,1.77-.17,2.27h-18.79ZM239.79,77.71c.06-3.1-1.27-7.9-6.74-7.9-4.92,0-7.07,4.53-7.46,7.9h14.2Z"/><path d="M267.04,93.68v-23.05h-11.22v23.05h-4.81v-23.05h-3.76v-3.7h3.76v-.88c0-3.76.88-7.02,2.98-9.12,1.55-1.55,3.76-2.49,6.74-2.49,1.55,0,2.98.5,3.81.94l-.99,3.59c-.72-.33-1.77-.66-2.87-.66-3.81,0-4.86,3.26-4.86,7.46v1.16h11.22v-1.27c0-3.76.88-7.18,3.15-9.34,1.82-1.77,4.26-2.49,6.47-2.49,1.77,0,3.21.39,4.15.77l-.61,3.76c-.77-.33-1.71-.61-3.15-.61-4.09,0-5.2,3.65-5.2,7.74v1.44h6.47v3.7h-6.41v23.05h-4.86Z"/><path d="M284.73,81.19c.11,6.58,4.31,9.28,9.17,9.28,3.48,0,5.58-.61,7.41-1.38l.83,3.48c-1.71.77-4.64,1.66-8.9,1.66-8.23,0-13.15-5.42-13.15-13.49s4.75-14.42,12.55-14.42c8.73,0,11.05,7.68,11.05,12.6,0,.99-.11,1.77-.17,2.27h-18.79ZM298.99,77.71c.06-3.1-1.27-7.9-6.74-7.9-4.92,0-7.07,4.53-7.46,7.9h14.2Z"/><path d="M328.77,92.69c-1.27.66-4.09,1.55-7.68,1.55-8.07,0-13.32-5.47-13.32-13.65s5.64-14.2,14.37-14.2c2.87,0,5.42.72,6.74,1.38l-1.11,3.76c-1.16-.66-2.98-1.27-5.64-1.27-6.13,0-9.45,4.53-9.45,10.11,0,6.19,3.98,10,9.28,10,2.76,0,4.59-.72,5.97-1.33l.83,3.65Z"/><path d="M341.04,59.25v7.68h6.96v3.7h-6.96v14.42c0,3.32.94,5.19,3.65,5.19,1.27,0,2.21-.17,2.82-.33l.22,3.65c-.94.39-2.43.66-4.31.66-2.27,0-4.09-.72-5.25-2.04-1.38-1.44-1.88-3.81-1.88-6.96v-14.59h-4.15v-3.7h4.15v-6.41l4.75-1.27Z"/><path d="M352.81,88.71c1.44.94,3.98,1.93,6.41,1.93,3.54,0,5.2-1.77,5.2-3.98,0-2.32-1.38-3.59-4.97-4.92-4.81-1.71-7.07-4.37-7.07-7.57,0-4.31,3.48-7.85,9.23-7.85,2.71,0,5.08.77,6.58,1.66l-1.22,3.54c-1.05-.66-2.98-1.55-5.47-1.55-2.87,0-4.48,1.66-4.48,3.65,0,2.21,1.6,3.21,5.08,4.53,4.64,1.77,7.02,4.09,7.02,8.07,0,4.7-3.65,8.01-10,8.01-2.93,0-5.64-.72-7.52-1.82l1.22-3.7Z"/><path d="M118.64,682.39c1.84-.28,4.02-.49,6.42-.49,4.34,0,7.43,1.01,9.47,2.91,2.08,1.91,3.3,4.61,3.3,8.4s-1.18,6.94-3.37,9.09c-2.19,2.19-5.79,3.37-10.34,3.37-2.15,0-3.96-.1-5.48-.28v-23.01ZM121.66,703.07c.76.14,1.87.17,3.05.17,6.45,0,9.96-3.61,9.96-9.92.03-5.52-3.09-9.02-9.47-9.02-1.56,0-2.74.14-3.54.31v18.46Z"/><path d="M141.64,693.91c0-1.98-.04-3.68-.14-5.24h2.67l.1,3.3h.14c.76-2.26,2.6-3.68,4.65-3.68.35,0,.59.03.87.1v2.88c-.31-.07-.62-.1-1.04-.1-2.15,0-3.68,1.63-4.09,3.92-.07.42-.14.9-.14,1.42v8.95h-3.02v-11.55Z"/><path d="M167.84,696.93c0,6.21-4.3,8.92-8.36,8.92-4.55,0-8.05-3.33-8.05-8.64,0-5.62,3.68-8.92,8.33-8.92s8.08,3.5,8.08,8.64ZM154.51,697.1c0,3.68,2.12,6.45,5.1,6.45s5.1-2.74,5.1-6.52c0-2.85-1.42-6.45-5.03-6.45s-5.17,3.33-5.17,6.52Z"/><path d="M171.69,694.16c0-2.15-.07-3.89-.14-5.48h2.74l.14,2.88h.07c1.25-2.05,3.23-3.26,5.97-3.26,4.06,0,7.11,3.44,7.11,8.54,0,6.04-3.68,9.02-7.63,9.02-2.22,0-4.16-.97-5.17-2.64h-.07v9.13h-3.02v-18.18ZM174.71,698.63c0,.45.07.87.14,1.25.56,2.12,2.39,3.57,4.58,3.57,3.23,0,5.1-2.64,5.1-6.49,0-3.37-1.77-6.25-5-6.25-2.08,0-4.03,1.49-4.62,3.78-.1.38-.21.83-.21,1.25v2.88Z"/><path d="M198.37,702.34c.9.59,2.5,1.21,4.02,1.21,2.22,0,3.26-1.11,3.26-2.5,0-1.46-.87-2.26-3.12-3.09-3.02-1.08-4.44-2.74-4.44-4.75,0-2.71,2.19-4.93,5.79-4.93,1.7,0,3.19.49,4.13,1.04l-.76,2.22c-.66-.42-1.87-.97-3.44-.97-1.8,0-2.81,1.04-2.81,2.29,0,1.39,1.01,2.01,3.19,2.85,2.92,1.11,4.41,2.57,4.41,5.07,0,2.95-2.29,5.03-6.28,5.03-1.84,0-3.54-.45-4.72-1.15l.76-2.33Z"/><path d="M212.52,680.83h3.05v10.48h.07c.49-.87,1.25-1.63,2.19-2.15.9-.52,1.98-.87,3.12-.87,2.26,0,5.86,1.39,5.86,7.18v9.99h-3.05v-9.65c0-2.71-1.01-5-3.89-5-1.98,0-3.54,1.39-4.09,3.05-.17.42-.21.87-.21,1.46v10.13h-3.05v-24.64Z"/><path d="M241.08,705.47l-.24-2.12h-.1c-.94,1.32-2.74,2.5-5.14,2.5-3.4,0-5.14-2.39-5.14-4.82,0-4.06,3.61-6.28,10.1-6.25v-.35c0-1.39-.38-3.89-3.82-3.89-1.56,0-3.19.49-4.37,1.25l-.69-2.01c1.39-.9,3.4-1.49,5.52-1.49,5.14,0,6.38,3.5,6.38,6.87v6.28c0,1.46.07,2.88.28,4.02h-2.78ZM240.63,696.9c-3.33-.07-7.11.52-7.11,3.78,0,1.98,1.32,2.92,2.88,2.92,2.19,0,3.57-1.39,4.06-2.81.1-.31.17-.66.17-.97v-2.91Z"/><path d="M263.01,680.83v20.3c0,1.49.03,3.19.14,4.34h-2.74l-.14-2.91h-.07c-.94,1.87-2.98,3.3-5.73,3.3-4.06,0-7.18-3.44-7.18-8.54-.03-5.59,3.44-9.02,7.53-9.02,2.57,0,4.3,1.21,5.07,2.57h.07v-10.03h3.05ZM259.96,695.51c0-.38-.03-.9-.14-1.28-.45-1.94-2.12-3.54-4.41-3.54-3.16,0-5.03,2.78-5.03,6.49,0,3.4,1.67,6.21,4.96,6.21,2.05,0,3.92-1.35,4.48-3.64.1-.42.14-.83.14-1.32v-2.91Z"/><path d="M283.27,696.93c0,6.21-4.3,8.92-8.36,8.92-4.55,0-8.05-3.33-8.05-8.64,0-5.62,3.68-8.92,8.33-8.92s8.08,3.5,8.08,8.64ZM269.95,697.1c0,3.68,2.12,6.45,5.1,6.45s5.1-2.74,5.1-6.52c0-2.85-1.42-6.45-5.03-6.45s-5.17,3.33-5.17,6.52Z"/><path d="M288.09,688.67l2.22,8.54c.49,1.87.94,3.61,1.25,5.34h.1c.38-1.7.94-3.5,1.49-5.31l2.74-8.57h2.57l2.6,8.4c.62,2.01,1.11,3.78,1.49,5.48h.1c.28-1.7.73-3.47,1.28-5.45l2.39-8.43h3.02l-5.41,16.79h-2.78l-2.57-8.02c-.59-1.87-1.08-3.54-1.49-5.52h-.07c-.42,2.01-.94,3.75-1.53,5.55l-2.71,7.98h-2.78l-5.07-16.79h3.12Z"/><path class="cls-3" d="M1342.19,325.41l133.98-.98c1.67-.01,3.02,1.33,3.02,3v326.98c0,1.66-1.34,3-3,3h-106.03"/><polygon points="1372.97 653.7 1371.4 657.41 1372.97 661.11 1364.19 657.41 1372.97 653.7"/><path class="cls-4" d="M1172.6,505.03v20.38c0,3.27-2.65,5.92-5.92,5.92h-278.67c-2.78,0-5.18,1.93-5.78,4.64l-2.26,21.67-2.26-21.67c-.6-2.71-3-4.64-5.78-4.64h-278.67c-3.27,0-5.92-2.65-5.92-5.92v-20.38"/><rect class="cls-1" x="1326.98" y="93.68" width="197" height="73"/><rect class="cls-2" x="1043.48" y="57.18" width="197" height="73"/></svg>